<ttFont>
    <TTGlyph name=".notdef" xMin="256" yMin="0" xMax="1280" yMax="1280">
      <contour>
        <pt x="256" y="0" on="1"/>
        <pt x="256" y="1280" on="1"/>
        <pt x="1280" y="1280" on="1"/>
        <pt x="1280" y="0" on="1"/>
      </contour>
      <contour>
        <pt x="288" y="32" on="1"/>
        <pt x="1248" y="32" on="1"/>
        <pt x="1248" y="1248" on="1"/>
        <pt x="288" y="1248" on="1"/>
      </contour>
    </TTGlyph>
    <TTGlyph name="ampersand" xMin="106" yMin="-47" xMax="1304" yMax="1452">
      <contour>
        <pt x="1009" y="684" on="1"/>
        <pt x="1173" y="684" on="1"/>
        <pt x="1173" y="492" on="0"/>
        <pt x="1054" y="309" on="1"/>
        <pt x="1304" y="0" on="1"/>
        <pt x="1081" y="0" on="1"/>
        <pt x="954" y="160" on="1"/>
        <pt x="854" y="61" on="0"/>
        <pt x="796" y="27" on="1"/>
        <pt x="681" y="-47" on="0"/>
        <pt x="526" y="-47" on="1"/>
        <pt x="288" y="-47" on="0"/>
        <pt x="174" y="121" on="1"/>
        <pt x="106" y="221" on="0"/>
        <pt x="106" y="360" on="1"/>
        <pt x="106" y="526" on="0"/>
        <pt x="212" y="635" on="1"/>
        <pt x="286" y="709" on="0"/>
        <pt x="438" y="797" on="1"/>
        <pt x="294" y="977" on="0"/>
        <pt x="276" y="1075" on="1"/>
        <pt x="272" y="1102" on="0"/>
        <pt x="272" y="1130" on="1"/>
        <pt x="272" y="1288" on="0"/>
        <pt x="405" y="1384" on="1"/>
        <pt x="499" y="1452" on="0"/>
        <pt x="622" y="1452" on="1"/>
        <pt x="806" y="1452" on="0"/>
        <pt x="901" y="1317" on="1"/>
        <pt x="931" y="1260" on="1"/>
        <pt x="950" y="1217" on="0"/>
        <pt x="954" y="1167" on="1"/>
        <pt x="956" y="1149" on="0"/>
        <pt x="956" y="1130" on="1"/>
        <pt x="956" y="989" on="0"/>
        <pt x="843" y="889" on="1"/>
        <pt x="784" y="836" on="0"/>
        <pt x="673" y="774" on="1"/>
        <pt x="946" y="440" on="1"/>
        <pt x="1009" y="552" on="0"/>
        <pt x="1009" y="676" on="1"/>
      </contour>
      <contour>
        <pt x="583" y="883" on="1"/>
        <pt x="749" y="987" on="0"/>
        <pt x="780" y="1063" on="1"/>
        <pt x="794" y="1094" on="0"/>
        <pt x="794" y="1135" on="1"/>
        <pt x="794" y="1241" on="0"/>
        <pt x="702" y="1288" on="1"/>
        <pt x="663" y="1309" on="0"/>
        <pt x="616" y="1309" on="1"/>
        <pt x="493" y="1309" on="0"/>
        <pt x="452" y="1206" on="1"/>
        <pt x="440" y="1174" on="0"/>
        <pt x="440" y="1133" on="1"/>
        <pt x="440" y="1065" on="0"/>
        <pt x="491" y="993" on="1"/>
      </contour>
      <contour>
        <pt x="856" y="281" on="1"/>
        <pt x="528" y="690" on="1"/>
        <pt x="335" y="567" on="0"/>
        <pt x="294" y="465" on="1"/>
        <pt x="278" y="424" on="0"/>
        <pt x="278" y="375" on="1"/>
        <pt x="278" y="242" on="0"/>
        <pt x="389" y="164" on="1"/>
        <pt x="460" y="113" on="0"/>
        <pt x="546" y="113" on="1"/>
        <pt x="684" y="113" on="0"/>
        <pt x="823" y="246" on="1"/>
        <pt x="839" y="262" on="0"/>
      </contour>
    </TTGlyph>
    <TTGlyph name="asterisk" xMin="450" yMin="903" xMax="1071" yMax="1493">
      <contour>
        <pt x="696" y="1493" on="1"/>
        <pt x="825" y="1493" on="1"/>
        <pt x="815" y="1264" on="1"/>
        <pt x="1032" y="1341" on="1"/>
        <pt x="1071" y="1221" on="1"/>
        <pt x="849" y="1159" on="1"/>
        <pt x="993" y="977" on="1"/>
        <pt x="888" y="903" on="1"/>
        <pt x="761" y="1094" on="1"/>
        <pt x="632" y="903" on="1"/>
        <pt x="530" y="977" on="1"/>
        <pt x="671" y="1159" on="1"/>
        <pt x="450" y="1221" on="1"/>
        <pt x="489" y="1341" on="1"/>
        <pt x="706" y="1264" on="1"/>
      </contour>
    </TTGlyph>
    <TTGlyph name="at" xMin="69" yMin="-290" xMax="1947" yMax="1518">
      <contour>
        <pt x="1361" y="1026" on="1"/>
        <pt x="1531" y="1026" on="1"/>
        <pt x="1347" y="453" on="1"/>
        <pt x="1322" y="381" on="0"/>
        <pt x="1322" y="350" on="1"/>
        <pt x="1322" y="295" on="0"/>
        <pt x="1382" y="268" on="1"/>
        <pt x="1402" y="260" on="0"/>
        <pt x="1425" y="260" on="1"/>
        <pt x="1556" y="260" on="0"/>
        <pt x="1664" y="408" on="1"/>
        <pt x="1769" y="553" on="0"/>
        <pt x="1769" y="731" on="1"/>
        <pt x="1769" y="977" on="0"/>
        <pt x="1570" y="1159" on="1"/>
        <pt x="1367" y="1348" on="0"/>
        <pt x="1079" y="1360" on="1"/>
        <pt x="1048" y="1360" on="1"/>
        <pt x="747" y="1360" on="0"/>
        <pt x="515" y="1151" on="1"/>
        <pt x="446" y="1081" on="1"/>
        <pt x="243" y="850" on="0"/>
        <pt x="243" y="559" on="1"/>
        <pt x="243" y="270" on="0"/>
        <pt x="458" y="72" on="1"/>
        <pt x="679" y="-133" on="0"/>
        <pt x="1011" y="-133" on="1"/>
        <pt x="1173" y="-133" on="0"/>
        <pt x="1406" y="-67" on="1"/>
        <pt x="1464" y="-204" on="1"/>
        <pt x="1234" y="-290" on="0"/>
        <pt x="1001" y="-290" on="1"/>
        <pt x="632" y="-290" on="0"/>
        <pt x="364" y="-71" on="1"/>
        <pt x="114" y="133" on="0"/>
        <pt x="75" y="434" on="1"/>
        <pt x="69" y="481" on="0"/>
        <pt x="69" y="528" on="1"/>
        <pt x="69" y="844" on="0"/>
        <pt x="264" y="1110" on="1"/>
        <pt x="321" y="1190" on="0"/>
        <pt x="393" y="1253" on="1"/>
        <pt x="614" y="1454" on="0"/>
        <pt x="923" y="1505" on="1"/>
        <pt x="999" y="1518" on="0"/>
        <pt x="1075" y="1518" on="1"/>
        <pt x="1415" y="1518" on="0"/>
        <pt x="1666" y="1311" on="1"/>
        <pt x="1904" y="1118" on="0"/>
        <pt x="1941" y="842" on="1"/>
        <pt x="1947" y="799" on="0"/>
        <pt x="1947" y="756" on="1"/>
        <pt x="1947" y="508" on="0"/>
        <pt x="1771" y="299" on="1"/>
        <pt x="1615" y="117" on="0"/>
        <pt x="1390" y="117" on="1"/>
        <pt x="1193" y="117" on="0"/>
        <pt x="1165" y="274" on="1"/>
        <pt x="1030" y="127" on="0"/>
        <pt x="874" y="127" on="1"/>
        <pt x="706" y="127" on="0"/>
        <pt x="610" y="268" on="1"/>
        <pt x="540" y="369" on="0"/>
        <pt x="540" y="502" on="1"/>
        <pt x="540" y="725" on="0"/>
        <pt x="702" y="897" on="1"/>
        <pt x="860" y="1067" on="0"/>
        <pt x="1066" y="1069" on="1"/>
        <pt x="1238" y="1069" on="0"/>
        <pt x="1316" y="891" on="1"/>
      </contour>
      <contour>
        <pt x="1054" y="938" on="1"/>
        <pt x="919" y="938" on="0"/>
        <pt x="817" y="793" on="1"/>
        <pt x="724" y="664" on="0"/>
        <pt x="724" y="500" on="1"/>
        <pt x="724" y="362" on="0"/>
        <pt x="821" y="293" on="1"/>
        <pt x="870" y="258" on="0"/>
        <pt x="927" y="258" on="1"/>
        <pt x="1046" y="258" on="0"/>
        <pt x="1136" y="391" on="1"/>
        <pt x="1204" y="489" on="0"/>
        <pt x="1236" y="662" on="1"/>
        <pt x="1245" y="707" on="0"/>
        <pt x="1247" y="741" on="1"/>
        <pt x="1247" y="755" on="1"/>
        <pt x="1247" y="856" on="0"/>
        <pt x="1163" y="909" on="1"/>
        <pt x="1113" y="938" on="0"/>
      </contour>
    </TTGlyph>
    <TTGlyph name="colon" xMin="225" yMin="0" xMax="438" yMax="1073">
      <contour>
        <pt x="438" y="213" on="1"/>
        <pt x="438" y="0" on="1"/>
        <pt x="225" y="0" on="1"/>
        <pt x="225" y="213" on="1"/>
      </contour>
      <contour>
        <pt x="438" y="1073" on="1"/>
        <pt x="438" y="860" on="1"/>
        <pt x="225" y="860" on="1"/>
        <pt x="225" y="1073" on="1"/>
      </contour>
    </TTGlyph>
    <TTGlyph name="comma" xMin="178" yMin="-301" xMax="393" yMax="213">
      <contour>
        <pt x="178" y="213" on="1"/>
        <pt x="393" y="213" on="1"/>
        <pt x="393" y="-32" on="1"/>
        <pt x="393" y="-301" on="0"/>
        <pt x="178" y="-301" on="1"/>
        <pt x="178" y="-223" on="1"/>
        <pt x="266" y="-219" on="0"/>
        <pt x="287" y="-155" on="1"/>
        <pt x="301" y="-116" on="0"/>
        <pt x="301" y="-36" on="1"/>
        <pt x="301" y="0" on="1"/>
        <pt x="178" y="0" on="1"/>
      </contour>
    </TTGlyph>
    <TTGlyph name="dollar" xMin="70" yMin="-258" xMax="1064" yMax="1577">
      <contour>
        <pt x="501" y="1577" on="1"/>
        <pt x="622" y="1577" on="1"/>
        <pt x="622" y="1466" on="1"/>
        <pt x="880" y="1448" on="0"/>
        <pt x="976" y="1257" on="1"/>
        <pt x="1015" y="1180" on="0"/>
        <pt x="1019" y="1083" on="1"/>
        <pt x="1019" y="1063" on="1"/>
        <pt x="858" y="1063" on="1"/>
        <pt x="856" y="1221" on="0"/>
        <pt x="739" y="1290" on="1"/>
        <pt x="698" y="1313" on="0"/>
        <pt x="649" y="1321" on="1"/>
        <pt x="636" y="1323" on="0"/>
        <pt x="622" y="1323" on="1"/>
        <pt x="622" y="813" on="1"/>
        <pt x="827" y="750" on="0"/>
        <pt x="890" y="715" on="1"/>
        <pt x="1064" y="616" on="0"/>
        <pt x="1064" y="399" on="1"/>
        <pt x="1064" y="186" on="0"/>
        <pt x="925" y="61" on="1"/>
        <pt x="903" y="41" on="0"/>
        <pt x="876" y="25" on="1"/>
        <pt x="776" y="-34" on="0"/>
        <pt x="622" y="-47" on="1"/>
        <pt x="622" y="-258" on="1"/>
        <pt x="501" y="-258" on="1"/>
        <pt x="501" y="-47" on="1"/>
        <pt x="186" y="-26" on="0"/>
        <pt x="98" y="213" on="1"/>
        <pt x="70" y="293" on="0"/>
        <pt x="70" y="390" on="1"/>
        <pt x="70" y="408" on="0"/>
        <pt x="71" y="426" on="1"/>
        <pt x="233" y="426" on="1"/>
        <pt x="247" y="274" on="0"/>
        <pt x="276" y="225" on="1"/>
        <pt x="280" y="219" on="0"/>
        <pt x="284" y="211" on="1"/>
        <pt x="356" y="113" on="0"/>
        <pt x="501" y="94" on="1"/>
        <pt x="501" y="651" on="1"/>
        <pt x="311" y="709" on="0"/>
        <pt x="243" y="758" on="1"/>
        <pt x="98" y="862" on="0"/>
        <pt x="98" y="1057" on="1"/>
        <pt x="98" y="1356" on="0"/>
        <pt x="384" y="1442" on="1"/>
        <pt x="438" y="1458" on="0"/>
        <pt x="501" y="1466" on="1"/>
      </contour>
      <contour>
        <pt x="501" y="829" on="1"/>
        <pt x="501" y="1321" on="1"/>
        <pt x="305" y="1294" on="0"/>
        <pt x="270" y="1139" on="1"/>
        <pt x="264" y="1110" on="0"/>
        <pt x="264" y="1077" on="1"/>
        <pt x="264" y="893" on="0"/>
      </contour>
      <contour>
        <pt x="622" y="633" on="1"/>
        <pt x="622" y="94" on="1"/>
        <pt x="747" y="109" on="0"/>
        <pt x="810" y="170" on="1"/>
        <pt x="896" y="252" on="0"/>
        <pt x="896" y="375" on="1"/>
        <pt x="896" y="500" on="0"/>
        <pt x="800" y="561" on="1"/>
        <pt x="741" y="598" on="0"/>
      </contour>
    </TTGlyph>
    <TTGlyph name="eight" xMin="74" yMin="0" xMax="1004" yMax="1500">
      <contour>
        <pt x="539" y="1350" on="1"/>
        <pt x="254" y="1350" on="0"/>
        <pt x="254" y="1100" on="1"/>
        <pt x="254" y="850" on="0"/>
        <pt x="539" y="850" on="1"/>
        <pt x="824" y="850" on="0"/>
        <pt x="824" y="1100" on="1"/>
        <pt x="824" y="1350" on="0"/>
      </contour>
      <contour>
        <pt x="539" y="700" on="1"/>
        <pt x="224" y="700" on="0"/>
        <pt x="224" y="425" on="1"/>
        <pt x="224" y="150" on="0"/>
        <pt x="539" y="150" on="1"/>
        <pt x="854" y="150" on="0"/>
        <pt x="854" y="425" on="1"/>
        <pt x="854" y="700" on="0"/>
      </contour>
      <contour>
        <pt x="237" y="780" on="1"/>
        <pt x="104" y="878" on="0"/>
        <pt x="104" y="1100" on="1"/>
        <pt x="104" y="1500" on="0"/>
        <pt x="539" y="1500" on="1"/>
        <pt x="974" y="1500" on="0"/>
        <pt x="974" y="1100" on="1"/>
        <pt x="974" y="878" on="0"/>
        <pt x="841" y="780" on="1"/>
        <pt x="1004" y="677" on="0"/>
        <pt x="1004" y="425" on="1"/>
        <pt x="1004" y="0" on="0"/>
        <pt x="539" y="0" on="1"/>
        <pt x="74" y="0" on="0"/>
        <pt x="74" y="425" on="1"/>
        <pt x="74" y="677" on="0"/>
      </contour>
    </TTGlyph>
    <TTGlyph name="equal" xMin="102" yMin="227" xMax="1093" yMax="723">
      <contour>
        <pt x="1093" y="723" on="1"/>
        <pt x="1093" y="580" on="1"/>
        <pt x="102" y="580" on="1"/>
        <pt x="102" y="723" on="1"/>
      </contour>
      <contour>
        <pt x="1093" y="371" on="1"/>
        <pt x="1093" y="227" on="1"/>
        <pt x="102" y="227" on="1"/>
        <pt x="102" y="371" on="1"/>
      </contour>
    </TTGlyph>
    <TTGlyph name="exclam" xMin="450" yMin="0" xMax="622" yMax="1493">
      <contour>
        <pt x="612" y="1493" on="1"/>
        <pt x="612" y="801" on="1"/>
        <pt x="572" y="344" on="1"/>
        <pt x="502" y="344" on="1"/>
        <pt x="462" y="801" on="1"/>
        <pt x="462" y="1493" on="1"/>
      </contour>
      <contour>
        <pt x="622" y="213" on="1"/>
        <pt x="622" y="0" on="1"/>
        <pt x="450" y="0" on="1"/>
        <pt x="450" y="213" on="1"/>
      </contour>
    </TTGlyph>
    <TTGlyph name="five" xMin="124" yMin="0" xMax="1039" yMax="1500">
      <contour>
        <pt x="1039" y="500" on="1"/>
        <pt x="1039" y="0" on="0"/>
        <pt x="602" y="0" on="1"/>
        <pt x="174" y="0" on="0"/>
        <pt x="124" y="397" on="1"/>
        <pt x="274" y="397" on="1"/>
        <pt x="324" y="150" on="0"/>
        <pt x="602" y="150" on="1"/>
        <pt x="889" y="150" on="0"/>
        <pt x="889" y="500" on="1"/>
        <pt x="889" y="850" on="0"/>
        <pt x="612" y="850" on="1"/>
        <pt x="410" y="850" on="0"/>
        <pt x="324" y="722" on="1"/>
        <pt x="179" y="722" on="1"/>
        <pt x="249" y="1500" on="1"/>
        <pt x="969" y="1500" on="1"/>
        <pt x="969" y="1350" on="1"/>
        <pt x="384" y="1350" on="1"/>
        <pt x="347" y="949" on="1"/>
        <pt x="454" y="1000" on="0"/>
        <pt x="612" y="1000" on="1"/>
        <pt x="1039" y="1000" on="0"/>
      </contour>
    </TTGlyph>
    <TTGlyph name="four" xMin="40" yMin="0" xMax="1040" yMax="1500">
      <contour>
        <pt x="698" y="1231" on="1"/>
        <pt x="221" y="519" on="1"/>
        <pt x="698" y="519" on="1"/>
      </contour>
      <contour>
        <pt x="698" y="1500" on="1"/>
        <pt x="848" y="1500" on="1"/>
        <pt x="848" y="519" on="1"/>
        <pt x="1040" y="519" on="1"/>
        <pt x="1040" y="369" on="1"/>
        <pt x="848" y="369" on="1"/>
        <pt x="848" y="0" on="1"/>
        <pt x="698" y="0" on="1"/>
        <pt x="698" y="369" on="1"/>
        <pt x="40" y="369" on="1"/>
        <pt x="40" y="519" on="1"/>
      </contour>
    </TTGlyph>
    <TTGlyph name="glyph139" xMin="-1151" yMin="-800" xMax="906" yMax="1500">
      <contour>
        <pt x="-238" y="-769" on="1"/>
        <pt x="-334" y="-737" on="0"/>
        <pt x="-382" y="-674" on="1"/>
        <pt x="-443" y="-737" on="0"/>
        <pt x="-534" y="-769" on="1"/>
        <pt x="-624" y="-800" on="0"/>
        <pt x="-694" y="-800" on="1"/>
        <pt x="-884" y="-800" on="0"/>
        <pt x="-989" y="-706" on="1"/>
        <pt x="-1066" y="-637" on="0"/>
        <pt x="-1066" y="-520" on="1"/>
        <pt x="-1066" y="-476" on="0"/>
        <pt x="-1055" y="-425" on="1"/>
        <pt x="-1044" y="-355" on="1"/>
        <pt x="-1151" y="-310" on="0"/>
        <pt x="-1151" y="-229" on="1"/>
        <pt x="-1151" y="-215" on="0"/>
        <pt x="-1148" y="-201" on="1"/>
        <pt x="-1127" y="-100" on="0"/>
        <pt x="-1024" y="-100" on="1"/>
        <pt x="-921" y="-100" on="0"/>
        <pt x="-889" y="-156" on="1"/>
        <pt x="-872" y="-186" on="0"/>
        <pt x="-872" y="-238" on="1"/>
        <pt x="-872" y="-281" on="0"/>
        <pt x="-884" y="-339" on="1"/>
        <pt x="-907" y="-450" on="1"/>
        <pt x="-912" y="-473" on="0"/>
        <pt x="-912" y="-493" on="1"/>
        <pt x="-912" y="-561" on="0"/>
        <pt x="-859" y="-600" on="1"/>
        <pt x="-791" y="-650" on="0"/>
        <pt x="-694" y="-650" on="1"/>
        <pt x="-611" y="-650" on="0"/>
        <pt x="-530" y="-599" on="1"/>
        <pt x="-450" y="-547" on="0"/>
        <pt x="-422" y="-444" on="1"/>
        <pt x="-352" y="-97" on="1"/>
        <pt x="-280" y="-205" on="0"/>
        <pt x="-199" y="-251" on="1"/>
        <pt x="-156" y="-276" on="0"/>
        <pt x="-106" y="-276" on="1"/>
        <pt x="-63" y="-276" on="0"/>
        <pt x="-14" y="-257" on="1"/>
        <pt x="-100" y="-364" on="0"/>
        <pt x="-206" y="-368" on="1"/>
        <pt x="-262" y="-373" on="0"/>
        <pt x="-263" y="-398" on="1"/>
        <pt x="-270" y="-450" on="1"/>
        <pt x="-275" y="-473" on="0"/>
        <pt x="-275" y="-493" on="1"/>
        <pt x="-275" y="-561" on="0"/>
        <pt x="-222" y="-600" on="1"/>
        <pt x="-154" y="-650" on="0"/>
        <pt x="-57" y="-650" on="1"/>
        <pt x="22" y="-650" on="0"/>
        <pt x="104" y="-594" on="1"/>
        <pt x="186" y="-537" on="0"/>
        <pt x="210" y="-425" on="1"/>
        <pt x="498" y="933" on="1"/>
        <pt x="501" y="945" on="0"/>
        <pt x="501" y="957" on="1"/>
        <pt x="501" y="1011" on="0"/>
        <pt x="450" y="1066" on="1"/>
        <pt x="387" y="1133" on="0"/>
        <pt x="253" y="1141" on="1"/>
        <pt x="400" y="1227" on="0"/>
        <pt x="489" y="1327" on="1"/>
        <pt x="578" y="1427" on="0"/>
        <pt x="620" y="1500" on="1"/>
        <pt x="692" y="1392" on="0"/>
        <pt x="764" y="1342" on="1"/>
        <pt x="825" y="1299" on="0"/>
        <pt x="886" y="1299" on="1"/>
        <pt x="896" y="1299" on="0"/>
        <pt x="906" y="1300" on="1"/>
        <pt x="856" y="1266" on="1"/>
        <pt x="805" y="1231" on="0"/>
        <pt x="730" y="1228" on="1"/>
        <pt x="721" y="1228" on="1"/>
        <pt x="652" y="1228" on="0"/>
        <pt x="602" y="1286" on="1"/>
        <pt x="511" y="1188" on="1"/>
        <pt x="596" y="1130" on="0"/>
        <pt x="629" y="1058" on="1"/>
        <pt x="650" y="1011" on="0"/>
        <pt x="650" y="959" on="1"/>
        <pt x="650" y="930" on="0"/>
        <pt x="644" y="900" on="1"/>
        <pt x="357" y="-450" on="1"/>
        <pt x="320" y="-625" on="0"/>
        <pt x="202" y="-712" on="1"/>
        <pt x="83" y="-800" on="0"/>
        <pt x="-57" y="-800" on="1"/>
        <pt x="-142" y="-800" on="0"/>
      </contour>
    </TTGlyph>
    <TTGlyph name="glyph144" xMin="-1408" yMin="-800" xMax="906" yMax="1500">
      <contour>
        <pt x="-1126" y="-282" on="1"/>
        <pt x="-1172" y="-320" on="0"/>
        <pt x="-1190" y="-400" on="1"/>
        <pt x="-1211" y="-500" on="1"/>
        <pt x="-1060" y="-500" on="0"/>
        <pt x="-1060" y="-600" on="1"/>
        <pt x="-1060" y="-800" on="0"/>
        <pt x="-1309" y="-800" on="1"/>
        <pt x="-1408" y="-800" on="0"/>
        <pt x="-1408" y="-724" on="1"/>
        <pt x="-1408" y="-709" on="0"/>
        <pt x="-1404" y="-691" on="1"/>
        <pt x="-1335" y="-365" on="1"/>
        <pt x="-1307" y="-230" on="0"/>
        <pt x="-1226" y="-164" on="1"/>
        <pt x="-1148" y="-100" on="0"/>
        <pt x="-1020" y="-100" on="1"/>
        <pt x="-849" y="-100" on="0"/>
        <pt x="-780" y="-184" on="1"/>
        <pt x="-734" y="-241" on="0"/>
        <pt x="-734" y="-336" on="1"/>
        <pt x="-734" y="-388" on="0"/>
        <pt x="-747" y="-450" on="1"/>
        <pt x="-753" y="-479" on="0"/>
        <pt x="-753" y="-504" on="1"/>
        <pt x="-753" y="-565" on="0"/>
        <pt x="-719" y="-600" on="1"/>
        <pt x="-671" y="-650" on="0"/>
        <pt x="-624" y="-650" on="1"/>
        <pt x="-541" y="-650" on="0"/>
        <pt x="-490" y="-598" on="1"/>
        <pt x="-440" y="-547" on="0"/>
        <pt x="-412" y="-444" on="1"/>
        <pt x="-342" y="-97" on="1"/>
        <pt x="-270" y="-205" on="0"/>
        <pt x="-189" y="-251" on="1"/>
        <pt x="-146" y="-276" on="0"/>
        <pt x="-96" y="-276" on="1"/>
        <pt x="-53" y="-276" on="0"/>
        <pt x="-4" y="-257" on="1"/>
        <pt x="-90" y="-364" on="0"/>
        <pt x="-196" y="-368" on="1"/>
        <pt x="-252" y="-373" on="0"/>
        <pt x="-253" y="-398" on="1"/>
        <pt x="-260" y="-450" on="1"/>
        <pt x="-265" y="-473" on="0"/>
        <pt x="-265" y="-493" on="1"/>
        <pt x="-265" y="-561" on="0"/>
        <pt x="-212" y="-600" on="1"/>
        <pt x="-144" y="-650" on="0"/>
        <pt x="-47" y="-650" on="1"/>
        <pt x="22" y="-650" on="0"/>
        <pt x="104" y="-594" on="1"/>
        <pt x="186" y="-537" on="0"/>
        <pt x="210" y="-425" on="1"/>
        <pt x="498" y="933" on="1"/>
        <pt x="501" y="945" on="0"/>
        <pt x="501" y="957" on="1"/>
        <pt x="501" y="1011" on="0"/>
        <pt x="450" y="1066" on="1"/>
        <pt x="387" y="1133" on="0"/>
        <pt x="253" y="1141" on="1"/>
        <pt x="400" y="1227" on="0"/>
        <pt x="489" y="1327" on="1"/>
        <pt x="578" y="1427" on="0"/>
        <pt x="620" y="1500" on="1"/>
        <pt x="692" y="1392" on="0"/>
        <pt x="764" y="1342" on="1"/>
        <pt x="825" y="1299" on="0"/>
        <pt x="886" y="1299" on="1"/>
        <pt x="896" y="1299" on="0"/>
        <pt x="906" y="1300" on="1"/>
        <pt x="856" y="1266" on="1"/>
        <pt x="805" y="1231" on="0"/>
        <pt x="730" y="1228" on="1"/>
        <pt x="721" y="1228" on="1"/>
        <pt x="652" y="1228" on="0"/>
        <pt x="602" y="1286" on="1"/>
        <pt x="511" y="1188" on="1"/>
        <pt x="596" y="1130" on="0"/>
        <pt x="629" y="1058" on="1"/>
        <pt x="650" y="1011" on="0"/>
        <pt x="650" y="959" on="1"/>
        <pt x="650" y="930" on="0"/>
        <pt x="644" y="900" on="1"/>
        <pt x="357" y="-450" on="1"/>
        <pt x="320" y="-625" on="0"/>
        <pt x="202" y="-712" on="1"/>
        <pt x="83" y="-800" on="0"/>
        <pt x="-47" y="-800" on="1"/>
        <pt x="-132" y="-800" on="0"/>
        <pt x="-228" y="-769" on="1"/>
        <pt x="-324" y="-737" on="0"/>
        <pt x="-372" y="-674" on="1"/>
        <pt x="-433" y="-737" on="0"/>
        <pt x="-488" y="-768" on="1"/>
        <pt x="-544" y="-800" on="0"/>
        <pt x="-624" y="-800" on="1"/>
        <pt x="-724" y="-800" on="0"/>
        <pt x="-829" y="-706" on="1"/>
        <pt x="-906" y="-637" on="0"/>
        <pt x="-906" y="-520" on="1"/>
        <pt x="-906" y="-476" on="0"/>
        <pt x="-895" y="-425" on="1"/>
        <pt x="-890" y="-397" on="0"/>
        <pt x="-890" y="-374" on="1"/>
        <pt x="-890" y="-320" on="0"/>
        <pt x="-915" y="-290" on="1"/>
        <pt x="-947" y="-250" on="0"/>
        <pt x="-1020" y="-250" on="1"/>
        <pt x="-1084" y="-250" on="0"/>
      </contour>
    </TTGlyph>
    <TTGlyph name="glyph146" xMin="-2107" yMin="-847" xMax="-464" yMax="-100">
      <contour>
        <pt x="-2102" y="-616" on="1"/>
        <pt x="-2102" y="-606" on="1"/>
        <pt x="-2102" y="-591" on="0"/>
        <pt x="-2090" y="-581" on="1"/>
        <pt x="-2074" y="-568" on="0"/>
        <pt x="-2039" y="-568" on="1"/>
        <pt x="-2004" y="-569" on="0"/>
        <pt x="-1952" y="-595" on="1"/>
        <pt x="-1669" y="-754" on="0"/>
        <pt x="-1281" y="-754" on="1"/>
        <pt x="-1246" y="-754" on="0"/>
        <pt x="-1209" y="-753" on="1"/>
        <pt x="-927" y="-741" on="0"/>
        <pt x="-719" y="-678" on="0"/>
        <pt x="-719" y="-655" on="1"/>
        <pt x="-719" y="-647" on="1"/>
        <pt x="-719" y="-633" on="0"/>
        <pt x="-725" y="-627" on="1"/>
        <pt x="-731" y="-622" on="0"/>
        <pt x="-747" y="-622" on="1"/>
        <pt x="-756" y="-622" on="1"/>
        <pt x="-756" y="-627" on="1"/>
        <pt x="-756" y="-652" on="0"/>
        <pt x="-821" y="-656" on="1"/>
        <pt x="-830" y="-656" on="1"/>
        <pt x="-893" y="-656" on="0"/>
        <pt x="-901" y="-615" on="1"/>
        <pt x="-901" y="-608" on="1"/>
        <pt x="-901" y="-535" on="0"/>
        <pt x="-774" y="-529" on="1"/>
        <pt x="-757" y="-529" on="1"/>
        <pt x="-670" y="-529" on="0"/>
        <pt x="-620" y="-567" on="1"/>
        <pt x="-575" y="-604" on="0"/>
        <pt x="-575" y="-653" on="1"/>
        <pt x="-575" y="-661" on="0"/>
        <pt x="-576" y="-670" on="1"/>
        <pt x="-582" y="-733" on="0"/>
        <pt x="-868" y="-833" on="0"/>
        <pt x="-1196" y="-846" on="1"/>
        <pt x="-1235" y="-847" on="0"/>
        <pt x="-1274" y="-847" on="1"/>
        <pt x="-1707" y="-847" on="0"/>
        <pt x="-2038" y="-666" on="1"/>
        <pt x="-2097" y="-638" on="0"/>
      </contour>
      <contour>
        <pt x="-1947" y="-376" on="1"/>
        <pt x="-1957" y="-423" on="1"/>
        <pt x="-1882" y="-409" on="0"/>
        <pt x="-1881" y="-388" on="1"/>
        <pt x="-1881" y="-387" on="1"/>
        <pt x="-1881" y="-373" on="0"/>
        <pt x="-1913" y="-373" on="1"/>
        <pt x="-1927" y="-373" on="0"/>
      </contour>
      <contour>
        <pt x="-2084" y="-288" on="1"/>
        <pt x="-2084" y="-284" on="1"/>
        <pt x="-2063" y="-217" on="0"/>
        <pt x="-1970" y="-157" on="1"/>
        <pt x="-1881" y="-100" on="0"/>
        <pt x="-1818" y="-100" on="1"/>
        <pt x="-1722" y="-100" on="0"/>
        <pt x="-1671" y="-158" on="1"/>
        <pt x="-1629" y="-204" on="1"/>
        <pt x="-1525" y="-100" on="0"/>
        <pt x="-1450" y="-100" on="1"/>
        <pt x="-1376" y="-100" on="0"/>
        <pt x="-1284" y="-178" on="1"/>
        <pt x="-1273" y="-187" on="0"/>
        <pt x="-1265" y="-194" on="1"/>
        <pt x="-1242" y="-171" on="0"/>
        <pt x="-1212" y="-154" on="1"/>
        <pt x="-1113" y="-100" on="0"/>
        <pt x="-885" y="-100" on="1"/>
        <pt x="-651" y="-100" on="0"/>
        <pt x="-542" y="-177" on="1"/>
        <pt x="-475" y="-225" on="0"/>
        <pt x="-467" y="-303" on="1"/>
        <pt x="-466" y="-314" on="0"/>
        <pt x="-466" y="-326" on="1"/>
        <pt x="-466" y="-338" on="1"/>
        <pt x="-464" y="-339" on="1"/>
        <pt x="-469" y="-367" on="1"/>
        <pt x="-470" y="-371" on="0"/>
        <pt x="-471" y="-375" on="1"/>
        <pt x="-476" y="-408" on="1"/>
        <pt x="-477" y="-408" on="1"/>
        <pt x="-484" y="-448" on="1"/>
        <pt x="-498" y="-517" on="0"/>
        <pt x="-565" y="-517" on="1"/>
        <pt x="-632" y="-517" on="0"/>
        <pt x="-683" y="-493" on="1"/>
        <pt x="-724" y="-473" on="0"/>
        <pt x="-724" y="-448" on="1"/>
        <pt x="-724" y="-443" on="0"/>
        <pt x="-722" y="-437" on="1"/>
        <pt x="-711" y="-406" on="0"/>
        <pt x="-665" y="-397" on="1"/>
        <pt x="-626" y="-389" on="0"/>
        <pt x="-609" y="-328" on="1"/>
        <pt x="-610" y="-280" on="0"/>
        <pt x="-656" y="-250" on="1"/>
        <pt x="-728" y="-203" on="0"/>
        <pt x="-875" y="-203" on="1"/>
        <pt x="-1045" y="-203" on="0"/>
        <pt x="-1110" y="-237" on="1"/>
        <pt x="-1164" y="-264" on="0"/>
        <pt x="-1173" y="-315" on="1"/>
        <pt x="-1175" y="-330" on="1"/>
        <pt x="-1176" y="-330" on="1"/>
        <pt x="-1176" y="-336" on="1"/>
        <pt x="-1170" y="-339" on="1"/>
        <pt x="-1175" y="-364" on="0"/>
        <pt x="-1181" y="-394" on="1"/>
        <pt x="-1181" y="-400" on="0"/>
        <pt x="-1182" y="-408" on="1"/>
        <pt x="-1183" y="-408" on="1"/>
        <pt x="-1187" y="-427" on="0"/>
        <pt x="-1191" y="-448" on="1"/>
        <pt x="-1206" y="-517" on="0"/>
        <pt x="-1273" y="-517" on="1"/>
        <pt x="-1339" y="-517" on="0"/>
        <pt x="-1390" y="-493" on="1"/>
        <pt x="-1431" y="-473" on="0"/>
        <pt x="-1431" y="-448" on="1"/>
        <pt x="-1431" y="-443" on="0"/>
        <pt x="-1429" y="-437" on="1"/>
        <pt x="-1418" y="-406" on="0"/>
        <pt x="-1373" y="-397" on="1"/>
        <pt x="-1342" y="-391" on="0"/>
        <pt x="-1325" y="-353" on="1"/>
        <pt x="-1324" y="-339" on="1"/>
        <pt x="-1331" y="-295" on="0"/>
        <pt x="-1366" y="-251" on="1"/>
        <pt x="-1418" y="-204" on="0"/>
        <pt x="-1448" y="-204" on="1"/>
        <pt x="-1479" y="-204" on="0"/>
        <pt x="-1640" y="-337" on="1"/>
        <pt x="-1767" y="-204" on="0"/>
        <pt x="-1808" y="-204" on="1"/>
        <pt x="-1851" y="-207" on="0"/>
        <pt x="-1891" y="-235" on="1"/>
        <pt x="-1918" y="-255" on="0"/>
        <pt x="-1934" y="-291" on="1"/>
        <pt x="-1910" y="-291" on="1"/>
        <pt x="-1818" y="-291" on="0"/>
        <pt x="-1787" y="-319" on="1"/>
        <pt x="-1757" y="-346" on="0"/>
        <pt x="-1757" y="-388" on="1"/>
        <pt x="-1757" y="-395" on="0"/>
        <pt x="-1758" y="-403" on="1"/>
        <pt x="-1765" y="-455" on="0"/>
        <pt x="-1862" y="-486" on="1"/>
        <pt x="-1960" y="-517" on="0"/>
        <pt x="-2042" y="-517" on="1"/>
        <pt x="-2100" y="-517" on="0"/>
        <pt x="-2107" y="-455" on="1"/>
        <pt x="-2107" y="-439" on="1"/>
        <pt x="-2107" y="-419" on="0"/>
        <pt x="-2104" y="-394" on="1"/>
        <pt x="-2090" y="-316" on="1"/>
        <pt x="-2085" y="-290" on="1"/>
        <pt x="-2085" y="-289" on="0"/>
      </contour>
    </TTGlyph>
    <TTGlyph name="glyph150" xMin="-1398" yMin="-800" xMax="907" yMax="1500">
      <contour>
        <pt x="-1222" y="-597" on="1"/>
        <pt x="-1238" y="-665" on="1"/>
        <pt x="-1158" y="-644" on="0"/>
        <pt x="-1155" y="-614" on="1"/>
        <pt x="-1155" y="-612" on="1"/>
        <pt x="-1155" y="-593" on="0"/>
        <pt x="-1186" y="-593" on="1"/>
        <pt x="-1201" y="-593" on="0"/>
      </contour>
      <contour>
        <pt x="499" y="933" on="1"/>
        <pt x="502" y="945" on="0"/>
        <pt x="502" y="957" on="1"/>
        <pt x="502" y="1011" on="0"/>
        <pt x="451" y="1066" on="1"/>
        <pt x="388" y="1133" on="0"/>
        <pt x="254" y="1141" on="1"/>
        <pt x="401" y="1227" on="0"/>
        <pt x="490" y="1327" on="1"/>
        <pt x="579" y="1427" on="0"/>
        <pt x="621" y="1500" on="1"/>
        <pt x="693" y="1392" on="0"/>
        <pt x="765" y="1342" on="1"/>
        <pt x="826" y="1299" on="0"/>
        <pt x="887" y="1299" on="1"/>
        <pt x="897" y="1299" on="0"/>
        <pt x="907" y="1300" on="1"/>
        <pt x="857" y="1266" on="1"/>
        <pt x="806" y="1231" on="0"/>
        <pt x="731" y="1228" on="1"/>
        <pt x="722" y="1228" on="1"/>
        <pt x="653" y="1228" on="0"/>
        <pt x="603" y="1286" on="1"/>
        <pt x="512" y="1188" on="1"/>
        <pt x="597" y="1130" on="0"/>
        <pt x="630" y="1058" on="1"/>
        <pt x="651" y="1011" on="0"/>
        <pt x="651" y="959" on="1"/>
        <pt x="651" y="930" on="0"/>
        <pt x="645" y="900" on="1"/>
        <pt x="305" y="-700" on="1"/>
        <pt x="284" y="-800" on="0"/>
        <pt x="208" y="-800" on="1"/>
        <pt x="131" y="-800" on="0"/>
        <pt x="58" y="-737" on="1"/>
        <pt x="-113" y="-580" on="1"/>
        <pt x="-363" y="-737" on="1"/>
        <pt x="-463" y="-800" on="0"/>
        <pt x="-539" y="-800" on="1"/>
        <pt x="-599" y="-800" on="0"/>
        <pt x="-599" y="-738" on="1"/>
        <pt x="-599" y="-721" on="0"/>
        <pt x="-595" y="-700" on="1"/>
        <pt x="-553" y="-503" on="1"/>
        <pt x="-548" y="-478" on="0"/>
        <pt x="-548" y="-453" on="1"/>
        <pt x="-548" y="-386" on="0"/>
        <pt x="-583" y="-317" on="1"/>
        <pt x="-632" y="-251" on="0"/>
        <pt x="-663" y="-251" on="1"/>
        <pt x="-695" y="-251" on="0"/>
        <pt x="-878" y="-441" on="1"/>
        <pt x="-996" y="-251" on="0"/>
        <pt x="-1039" y="-251" on="1"/>
        <pt x="-1085" y="-255" on="0"/>
        <pt x="-1129" y="-295" on="1"/>
        <pt x="-1174" y="-336" on="0"/>
        <pt x="-1197" y="-428" on="1"/>
        <pt x="-1202" y="-475" on="1"/>
        <pt x="-1187" y="-474" on="0"/>
        <pt x="-1173" y="-474" on="1"/>
        <pt x="-1079" y="-474" on="0"/>
        <pt x="-1050" y="-515" on="1"/>
        <pt x="-1025" y="-549" on="0"/>
        <pt x="-1025" y="-599" on="1"/>
        <pt x="-1025" y="-616" on="0"/>
        <pt x="-1028" y="-636" on="1"/>
        <pt x="-1040" y="-711" on="0"/>
        <pt x="-1145" y="-755" on="1"/>
        <pt x="-1251" y="-800" on="0"/>
        <pt x="-1337" y="-800" on="1"/>
        <pt x="-1398" y="-800" on="0"/>
        <pt x="-1398" y="-710" on="1"/>
        <pt x="-1398" y="-674" on="0"/>
        <pt x="-1388" y="-623" on="1"/>
        <pt x="-1338" y="-374" on="1"/>
        <pt x="-1313" y="-273" on="0"/>
        <pt x="-1204" y="-183" on="1"/>
        <pt x="-1105" y="-101" on="0"/>
        <pt x="-1039" y="-101" on="1"/>
        <pt x="-939" y="-101" on="0"/>
        <pt x="-892" y="-184" on="1"/>
        <pt x="-852" y="-251" on="1"/>
        <pt x="-733" y="-101" on="0"/>
        <pt x="-655" y="-101" on="1"/>
        <pt x="-577" y="-101" on="0"/>
        <pt x="-489" y="-213" on="1"/>
        <pt x="-406" y="-325" on="0"/>
        <pt x="-393" y="-381" on="1"/>
        <pt x="-391" y="-390" on="0"/>
        <pt x="-391" y="-406" on="1"/>
        <pt x="-391" y="-442" on="0"/>
        <pt x="-403" y="-511" on="1"/>
        <pt x="-418" y="-592" on="1"/>
        <pt x="-98" y="-395" on="1"/>
        <pt x="166" y="-633" on="1"/>
      </contour>
    </TTGlyph>
    <TTGlyph name="glyph157" xMin="-599" yMin="-800" xMax="907" yMax="1500">
      <contour>
        <pt x="-496" y="-239" on="1"/>
        <pt x="-475" y="-139" on="0"/>
        <pt x="-419" y="-110" on="1"/>
        <pt x="-400" y="-100" on="0"/>
        <pt x="-378" y="-100" on="1"/>
        <pt x="-337" y="-100" on="0"/>
        <pt x="-289" y="-133" on="1"/>
        <pt x="-234" y="-172" on="0"/>
        <pt x="-234" y="-213" on="1"/>
        <pt x="-234" y="-227" on="0"/>
        <pt x="-240" y="-241" on="1"/>
        <pt x="-265" y="-298" on="0"/>
        <pt x="-360" y="-325" on="0"/>
        <pt x="-384" y="-435" on="1"/>
        <pt x="-418" y="-592" on="1"/>
        <pt x="-98" y="-395" on="1"/>
        <pt x="166" y="-633" on="1"/>
        <pt x="499" y="933" on="1"/>
        <pt x="502" y="945" on="0"/>
        <pt x="502" y="957" on="1"/>
        <pt x="502" y="1011" on="0"/>
        <pt x="451" y="1066" on="1"/>
        <pt x="388" y="1133" on="0"/>
        <pt x="254" y="1141" on="1"/>
        <pt x="401" y="1227" on="0"/>
        <pt x="490" y="1327" on="1"/>
        <pt x="579" y="1427" on="0"/>
        <pt x="621" y="1500" on="1"/>
        <pt x="693" y="1392" on="0"/>
        <pt x="765" y="1342" on="1"/>
        <pt x="826" y="1299" on="0"/>
        <pt x="887" y="1299" on="1"/>
        <pt x="897" y="1299" on="0"/>
        <pt x="907" y="1300" on="1"/>
        <pt x="857" y="1266" on="1"/>
        <pt x="806" y="1231" on="0"/>
        <pt x="731" y="1228" on="1"/>
        <pt x="722" y="1228" on="1"/>
        <pt x="653" y="1228" on="0"/>
        <pt x="603" y="1286" on="1"/>
        <pt x="512" y="1188" on="1"/>
        <pt x="597" y="1130" on="0"/>
        <pt x="630" y="1058" on="1"/>
        <pt x="651" y="1011" on="0"/>
        <pt x="651" y="959" on="1"/>
        <pt x="651" y="930" on="0"/>
        <pt x="645" y="900" on="1"/>
        <pt x="305" y="-700" on="1"/>
        <pt x="284" y="-800" on="0"/>
        <pt x="208" y="-800" on="1"/>
        <pt x="131" y="-800" on="0"/>
        <pt x="58" y="-737" on="1"/>
        <pt x="-113" y="-580" on="1"/>
        <pt x="-363" y="-737" on="1"/>
        <pt x="-463" y="-800" on="0"/>
        <pt x="-539" y="-800" on="1"/>
        <pt x="-599" y="-800" on="0"/>
        <pt x="-599" y="-738" on="1"/>
        <pt x="-599" y="-721" on="0"/>
        <pt x="-595" y="-700" on="1"/>
      </contour>
    </TTGlyph>
    <TTGlyph name="glyph162" xMin="-545" yMin="-800" xMax="907" yMax="1500">
      <contour>
        <pt x="499" y="933" on="1"/>
        <pt x="502" y="945" on="0"/>
        <pt x="502" y="957" on="1"/>
        <pt x="502" y="1011" on="0"/>
        <pt x="451" y="1066" on="1"/>
        <pt x="388" y="1133" on="0"/>
        <pt x="254" y="1141" on="1"/>
        <pt x="401" y="1227" on="0"/>
        <pt x="490" y="1327" on="1"/>
        <pt x="579" y="1427" on="0"/>
        <pt x="621" y="1500" on="1"/>
        <pt x="693" y="1392" on="0"/>
        <pt x="765" y="1342" on="1"/>
        <pt x="826" y="1299" on="0"/>
        <pt x="887" y="1299" on="1"/>
        <pt x="897" y="1299" on="0"/>
        <pt x="907" y="1300" on="1"/>
        <pt x="857" y="1266" on="1"/>
        <pt x="806" y="1231" on="0"/>
        <pt x="731" y="1228" on="1"/>
        <pt x="722" y="1228" on="1"/>
        <pt x="653" y="1228" on="0"/>
        <pt x="603" y="1286" on="1"/>
        <pt x="512" y="1188" on="1"/>
        <pt x="597" y="1130" on="0"/>
        <pt x="630" y="1058" on="1"/>
        <pt x="651" y="1011" on="0"/>
        <pt x="651" y="959" on="1"/>
        <pt x="651" y="930" on="0"/>
        <pt x="645" y="900" on="1"/>
        <pt x="358" y="-450" on="1"/>
        <pt x="321" y="-625" on="0"/>
        <pt x="186" y="-712" on="1"/>
        <pt x="50" y="-800" on="0"/>
        <pt x="-134" y="-800" on="1"/>
        <pt x="-350" y="-800" on="0"/>
        <pt x="-461" y="-700" on="1"/>
        <pt x="-517" y="-650" on="0"/>
        <pt x="-536" y="-581" on="1"/>
        <pt x="-545" y="-546" on="0"/>
        <pt x="-545" y="-507" on="1"/>
        <pt x="-545" y="-468" on="0"/>
        <pt x="-536" y="-425" on="1"/>
        <pt x="-525" y="-374" on="1"/>
        <pt x="-496" y="-239" on="1"/>
        <pt x="-475" y="-139" on="0"/>
        <pt x="-419" y="-110" on="1"/>
        <pt x="-400" y="-100" on="0"/>
        <pt x="-378" y="-100" on="1"/>
        <pt x="-337" y="-100" on="0"/>
        <pt x="-289" y="-133" on="1"/>
        <pt x="-234" y="-172" on="0"/>
        <pt x="-234" y="-213" on="1"/>
        <pt x="-234" y="-227" on="0"/>
        <pt x="-240" y="-241" on="1"/>
        <pt x="-265" y="-298" on="0"/>
        <pt x="-360" y="-325" on="0"/>
        <pt x="-384" y="-435" on="1"/>
        <pt x="-388" y="-450" on="1"/>
        <pt x="-393" y="-475" on="0"/>
        <pt x="-393" y="-496" on="1"/>
        <pt x="-393" y="-559" on="0"/>
        <pt x="-350" y="-598" on="1"/>
        <pt x="-291" y="-650" on="0"/>
        <pt x="-134" y="-650" on="1"/>
        <pt x="5" y="-650" on="0"/>
        <pt x="96" y="-591" on="1"/>
        <pt x="187" y="-532" on="0"/>
        <pt x="209" y="-429" on="1"/>
      </contour>
    </TTGlyph>
    <TTGlyph name="glyph166" xMin="-586" yMin="-800" xMax="907" yMax="1500">
      <contour>
        <pt x="454" y="1" on="1"/>
        <pt x="358" y="-450" on="1"/>
        <pt x="321" y="-625" on="0"/>
        <pt x="186" y="-712" on="1"/>
        <pt x="50" y="-800" on="0"/>
        <pt x="-134" y="-800" on="1"/>
        <pt x="-350" y="-800" on="0"/>
        <pt x="-461" y="-700" on="1"/>
        <pt x="-517" y="-650" on="0"/>
        <pt x="-536" y="-581" on="1"/>
        <pt x="-545" y="-546" on="0"/>
        <pt x="-545" y="-507" on="1"/>
        <pt x="-545" y="-468" on="0"/>
        <pt x="-536" y="-425" on="1"/>
        <pt x="-522" y="-355" on="1"/>
        <pt x="-520" y="-345" on="0"/>
        <pt x="-520" y="-336" on="1"/>
        <pt x="-520" y="-299" on="0"/>
        <pt x="-549" y="-275" on="1"/>
        <pt x="-586" y="-245" on="0"/>
        <pt x="-586" y="-183" on="1"/>
        <pt x="-586" y="-121" on="0"/>
        <pt x="-497" y="-104" on="1"/>
        <pt x="-475" y="-100" on="0"/>
        <pt x="-456" y="-100" on="1"/>
        <pt x="-399" y="-100" on="0"/>
        <pt x="-370" y="-136" on="1"/>
        <pt x="-344" y="-168" on="0"/>
        <pt x="-344" y="-221" on="1"/>
        <pt x="-344" y="-250" on="0"/>
        <pt x="-352" y="-285" on="1"/>
        <pt x="-388" y="-450" on="1"/>
        <pt x="-393" y="-475" on="0"/>
        <pt x="-393" y="-496" on="1"/>
        <pt x="-393" y="-559" on="0"/>
        <pt x="-350" y="-598" on="1"/>
        <pt x="-291" y="-650" on="0"/>
        <pt x="-134" y="-650" on="1"/>
        <pt x="5" y="-650" on="0"/>
        <pt x="96" y="-591" on="1"/>
        <pt x="187" y="-532" on="0"/>
        <pt x="209" y="-429" on="1"/>
        <pt x="302" y="7" on="1"/>
        <pt x="226" y="18" on="0"/>
        <pt x="186" y="46" on="1"/>
        <pt x="120" y="91" on="0"/>
        <pt x="120" y="145" on="1"/>
        <pt x="120" y="239" on="0"/>
        <pt x="263" y="259" on="1"/>
        <pt x="255" y="236" on="0"/>
        <pt x="255" y="218" on="1"/>
        <pt x="255" y="193" on="0"/>
        <pt x="271" y="177" on="1"/>
        <pt x="287" y="161" on="0"/>
        <pt x="333" y="155" on="1"/>
        <pt x="499" y="933" on="1"/>
        <pt x="502" y="945" on="0"/>
        <pt x="502" y="957" on="1"/>
        <pt x="502" y="1011" on="0"/>
        <pt x="451" y="1066" on="1"/>
        <pt x="388" y="1133" on="0"/>
        <pt x="254" y="1141" on="1"/>
        <pt x="401" y="1227" on="0"/>
        <pt x="490" y="1327" on="1"/>
        <pt x="579" y="1427" on="0"/>
        <pt x="621" y="1500" on="1"/>
        <pt x="693" y="1392" on="0"/>
        <pt x="765" y="1342" on="1"/>
        <pt x="826" y="1299" on="0"/>
        <pt x="887" y="1299" on="1"/>
        <pt x="897" y="1299" on="0"/>
        <pt x="907" y="1300" on="1"/>
        <pt x="857" y="1266" on="1"/>
        <pt x="806" y="1231" on="0"/>
        <pt x="731" y="1228" on="1"/>
        <pt x="722" y="1228" on="1"/>
        <pt x="653" y="1228" on="0"/>
        <pt x="603" y="1286" on="1"/>
        <pt x="512" y="1188" on="1"/>
        <pt x="597" y="1130" on="0"/>
        <pt x="630" y="1058" on="1"/>
        <pt x="651" y="1011" on="0"/>
        <pt x="651" y="959" on="1"/>
        <pt x="651" y="930" on="0"/>
        <pt x="645" y="900" on="1"/>
        <pt x="486" y="154" on="1"/>
        <pt x="541" y="162" on="0"/>
        <pt x="579" y="182" on="1"/>
        <pt x="640" y="213" on="0"/>
        <pt x="663" y="289" on="1"/>
        <pt x="663" y="167" on="0"/>
        <pt x="622" y="95" on="1"/>
        <pt x="576" y="11" on="0"/>
      </contour>
    </TTGlyph>
    <TTGlyph name="glyph169" xMin="-758" yMin="-1549" xMax="-500" yMax="-850">
      <contour>
        <pt x="-701" y="-1547" on="1"/>
        <pt x="-758" y="-1535" on="0"/>
        <pt x="-758" y="-1473" on="1"/>
        <pt x="-758" y="-1455" on="0"/>
        <pt x="-754" y="-1434" on="1"/>
        <pt x="-673" y="-1055" on="1"/>
        <pt x="-672" y="-1050" on="0"/>
        <pt x="-672" y="-1045" on="1"/>
        <pt x="-672" y="-1020" on="0"/>
        <pt x="-701" y="-993" on="1"/>
        <pt x="-725" y="-970" on="0"/>
        <pt x="-725" y="-937" on="1"/>
        <pt x="-725" y="-922" on="0"/>
        <pt x="-720" y="-905" on="1"/>
        <pt x="-704" y="-850" on="0"/>
        <pt x="-628" y="-850" on="1"/>
        <pt x="-551" y="-850" on="0"/>
        <pt x="-522" y="-888" on="1"/>
        <pt x="-500" y="-917" on="0"/>
        <pt x="-500" y="-951" on="1"/>
        <pt x="-500" y="-963" on="0"/>
        <pt x="-503" y="-976" on="1"/>
        <pt x="-607" y="-1465" on="1"/>
        <pt x="-625" y="-1549" on="0"/>
        <pt x="-681" y="-1549" on="1"/>
        <pt x="-690" y="-1549" on="0"/>
      </contour>
    </TTGlyph>
    <TTGlyph name="glyph170" xMin="-1187" yMin="-1550" xMax="-400" yMax="-850">
      <contour>
        <pt x="-898" y="-850" on="0"/>
        <pt x="-867" y="-883" on="1"/>
        <pt x="-837" y="-917" on="0"/>
        <pt x="-837" y="-997" on="1"/>
        <pt x="-837" y="-1077" on="0"/>
        <pt x="-1037" y="-1290" on="0"/>
        <pt x="-1037" y="-1340" on="1"/>
        <pt x="-1037" y="-1400" on="0"/>
        <pt x="-917" y="-1400" on="1"/>
        <pt x="-817" y="-1400" on="0"/>
        <pt x="-723" y="-1174" on="1"/>
        <pt x="-629" y="-948" on="0"/>
        <pt x="-583" y="-899" on="1"/>
        <pt x="-537" y="-850" on="0"/>
        <pt x="-468" y="-850" on="1"/>
        <pt x="-400" y="-850" on="0"/>
        <pt x="-400" y="-880" on="1"/>
        <pt x="-400" y="-910" on="0"/>
        <pt x="-443" y="-931" on="1"/>
        <pt x="-487" y="-952" on="0"/>
        <pt x="-588" y="-1251" on="1"/>
        <pt x="-689" y="-1550" on="0"/>
        <pt x="-917" y="-1550" on="1"/>
        <pt x="-1187" y="-1550" on="0"/>
        <pt x="-1187" y="-1340" on="1"/>
        <pt x="-1187" y="-1251" on="0"/>
        <pt x="-987" y="-1076" on="0"/>
        <pt x="-987" y="-1050" on="1"/>
        <pt x="-987" y="-1017" on="0"/>
        <pt x="-1017" y="-998" on="1"/>
        <pt x="-1047" y="-980" on="0"/>
        <pt x="-1047" y="-944" on="1"/>
        <pt x="-1047" y="-908" on="0"/>
        <pt x="-1020" y="-879" on="1"/>
        <pt x="-993" y="-850" on="0"/>
        <pt x="-945" y="-850" on="1"/>
      </contour>
    </TTGlyph>
    <TTGlyph name="glyph171" xMin="-1237" yMin="-1550" xMax="-400" yMax="-850">
      <contour>
        <pt x="-948" y="-850" on="0"/>
        <pt x="-917" y="-883" on="1"/>
        <pt x="-887" y="-917" on="0"/>
        <pt x="-887" y="-997" on="1"/>
        <pt x="-887" y="-1077" on="0"/>
        <pt x="-987" y="-1183" on="1"/>
        <pt x="-1087" y="-1290" on="0"/>
        <pt x="-1087" y="-1340" on="1"/>
        <pt x="-1087" y="-1400" on="0"/>
        <pt x="-1047" y="-1400" on="1"/>
        <pt x="-967" y="-1400" on="0"/>
        <pt x="-795" y="-1174" on="1"/>
        <pt x="-795" y="-1194" on="1"/>
        <pt x="-795" y="-1400" on="0"/>
        <pt x="-717" y="-1400" on="1"/>
        <pt x="-667" y="-1400" on="0"/>
        <pt x="-618" y="-1174" on="1"/>
        <pt x="-569" y="-948" on="0"/>
        <pt x="-523" y="-899" on="1"/>
        <pt x="-477" y="-850" on="0"/>
        <pt x="-428" y="-850" on="1"/>
        <pt x="-400" y="-850" on="0"/>
        <pt x="-400" y="-880" on="1"/>
        <pt x="-400" y="-910" on="0"/>
        <pt x="-427" y="-952" on="0"/>
        <pt x="-480" y="-1194" on="1"/>
        <pt x="-559" y="-1550" on="0"/>
        <pt x="-717" y="-1550" on="1"/>
        <pt x="-828" y="-1550" on="0"/>
        <pt x="-861" y="-1391" on="1"/>
        <pt x="-977" y="-1550" on="0"/>
        <pt x="-1047" y="-1550" on="1"/>
        <pt x="-1237" y="-1550" on="0"/>
        <pt x="-1237" y="-1340" on="1"/>
        <pt x="-1237" y="-1251" on="0"/>
        <pt x="-1137" y="-1163" on="1"/>
        <pt x="-1037" y="-1076" on="0"/>
        <pt x="-1037" y="-1050" on="1"/>
        <pt x="-1037" y="-1017" on="0"/>
        <pt x="-1067" y="-998" on="1"/>
        <pt x="-1097" y="-980" on="0"/>
        <pt x="-1097" y="-944" on="1"/>
        <pt x="-1097" y="-908" on="0"/>
        <pt x="-1070" y="-879" on="1"/>
        <pt x="-1043" y="-850" on="0"/>
        <pt x="-995" y="-850" on="1"/>
      </contour>
    </TTGlyph>
    <TTGlyph name="glyph172" xMin="-890" yMin="2200" xMax="-2" yMax="2646">
      <contour>
        <pt x="-705" y="2476" on="1"/>
        <pt x="-737" y="2457" on="0"/>
        <pt x="-740" y="2427" on="1"/>
        <pt x="-741" y="2421" on="0"/>
        <pt x="-741" y="2415" on="1"/>
        <pt x="-741" y="2391" on="0"/>
        <pt x="-730" y="2381" on="1"/>
        <pt x="-719" y="2369" on="0"/>
        <pt x="-695" y="2367" on="1"/>
        <pt x="-230" y="2326" on="1"/>
        <pt x="-450" y="2482" on="0"/>
        <pt x="-583" y="2494" on="1"/>
        <pt x="-601" y="2496" on="0"/>
        <pt x="-617" y="2496" on="1"/>
        <pt x="-675" y="2496" on="0"/>
      </contour>
      <contour>
        <pt x="-843" y="2300" on="1"/>
        <pt x="-890" y="2339" on="0"/>
        <pt x="-890" y="2414" on="1"/>
        <pt x="-890" y="2427" on="0"/>
        <pt x="-889" y="2440" on="1"/>
        <pt x="-880" y="2544" on="0"/>
        <pt x="-807" y="2598" on="1"/>
        <pt x="-742" y="2646" on="0"/>
        <pt x="-627" y="2646" on="1"/>
        <pt x="-600" y="2646" on="0"/>
        <pt x="-570" y="2643" on="1"/>
        <pt x="-471" y="2635" on="0"/>
        <pt x="-354" y="2565" on="1"/>
        <pt x="-238" y="2496" on="0"/>
        <pt x="-118" y="2394" on="1"/>
        <pt x="-2" y="2295" on="0"/>
        <pt x="-2" y="2245" on="1"/>
        <pt x="-2" y="2244" on="0"/>
        <pt x="-3" y="2242" on="1"/>
        <pt x="-6" y="2200" on="0"/>
        <pt x="-80" y="2200" on="1"/>
        <pt x="-92" y="2200" on="0"/>
        <pt x="-107" y="2201" on="1"/>
        <pt x="-705" y="2254" on="1"/>
        <pt x="-796" y="2262" on="0"/>
      </contour>
    </TTGlyph>
    <TTGlyph name="glyph173" xMin="-890" yMin="2200" xMax="66" yMax="2703">
      <contour>
        <pt x="-706" y="2476" on="1"/>
        <pt x="-737" y="2457" on="0"/>
        <pt x="-740" y="2427" on="1"/>
        <pt x="-741" y="2421" on="0"/>
        <pt x="-741" y="2415" on="1"/>
        <pt x="-741" y="2391" on="0"/>
        <pt x="-730" y="2381" on="1"/>
        <pt x="-719" y="2369" on="0"/>
        <pt x="-695" y="2367" on="1"/>
        <pt x="-230" y="2326" on="1"/>
        <pt x="-450" y="2482" on="0"/>
        <pt x="-584" y="2494" on="1"/>
        <pt x="-602" y="2496" on="0"/>
        <pt x="-618" y="2496" on="1"/>
        <pt x="-675" y="2496" on="0"/>
      </contour>
      <contour>
        <pt x="-123" y="2399" on="1"/>
        <pt x="-88" y="2563" on="1"/>
        <pt x="-86" y="2571" on="0"/>
        <pt x="-86" y="2579" on="1"/>
        <pt x="-86" y="2614" on="0"/>
        <pt x="-127" y="2622" on="1"/>
        <pt x="-109" y="2703" on="0"/>
        <pt x="-40" y="2703" on="1"/>
        <pt x="-25" y="2703" on="0"/>
        <pt x="-8" y="2699" on="1"/>
        <pt x="66" y="2683" on="0"/>
        <pt x="66" y="2595" on="1"/>
        <pt x="66" y="2567" on="0"/>
        <pt x="58" y="2532" on="1"/>
        <pt x="-3" y="2246" on="1"/>
        <pt x="-9" y="2216" on="0"/>
        <pt x="-40" y="2207" on="1"/>
        <pt x="-63" y="2200" on="0"/>
        <pt x="-89" y="2200" on="1"/>
        <pt x="-98" y="2200" on="0"/>
        <pt x="-107" y="2201" on="1"/>
        <pt x="-705" y="2253" on="1"/>
        <pt x="-797" y="2261" on="0"/>
        <pt x="-843" y="2300" on="1"/>
        <pt x="-890" y="2339" on="0"/>
        <pt x="-890" y="2414" on="1"/>
        <pt x="-890" y="2427" on="0"/>
        <pt x="-889" y="2440" on="1"/>
        <pt x="-880" y="2544" on="0"/>
        <pt x="-807" y="2598" on="1"/>
        <pt x="-742" y="2646" on="0"/>
        <pt x="-627" y="2646" on="1"/>
        <pt x="-600" y="2646" on="0"/>
        <pt x="-570" y="2643" on="1"/>
        <pt x="-471" y="2634" on="0"/>
        <pt x="-354" y="2565" on="1"/>
        <pt x="-240" y="2498" on="0"/>
      </contour>
    </TTGlyph>
    <TTGlyph name="glyph174" xMin="-890" yMin="2200" xMax="23" yMax="2707">
      <contour>
        <pt x="-705" y="2476" on="1"/>
        <pt x="-737" y="2457" on="0"/>
        <pt x="-740" y="2427" on="1"/>
        <pt x="-741" y="2421" on="0"/>
        <pt x="-741" y="2415" on="1"/>
        <pt x="-741" y="2391" on="0"/>
        <pt x="-730" y="2381" on="1"/>
        <pt x="-719" y="2369" on="0"/>
        <pt x="-695" y="2367" on="1"/>
        <pt x="-230" y="2326" on="1"/>
        <pt x="-450" y="2482" on="0"/>
        <pt x="-583" y="2494" on="1"/>
        <pt x="-601" y="2496" on="0"/>
        <pt x="-617" y="2496" on="1"/>
        <pt x="-675" y="2496" on="0"/>
      </contour>
      <contour>
        <pt x="-93" y="2584" on="1"/>
        <pt x="-110" y="2603" on="0"/>
        <pt x="-147" y="2606" on="1"/>
        <pt x="-154" y="2607" on="0"/>
        <pt x="-161" y="2607" on="1"/>
        <pt x="-188" y="2607" on="0"/>
        <pt x="-204" y="2593" on="1"/>
        <pt x="-225" y="2576" on="0"/>
        <pt x="-228" y="2538" on="1"/>
        <pt x="-228" y="2527" on="1"/>
        <pt x="-228" y="2498" on="0"/>
        <pt x="-215" y="2481" on="1"/>
        <pt x="-198" y="2460" on="0"/>
        <pt x="-160" y="2457" on="1"/>
        <pt x="-149" y="2457" on="1"/>
        <pt x="-119" y="2457" on="0"/>
        <pt x="-101" y="2471" on="1"/>
        <pt x="-82" y="2488" on="0"/>
        <pt x="-79" y="2525" on="1"/>
        <pt x="-78" y="2532" on="0"/>
        <pt x="-78" y="2538" on="1"/>
        <pt x="-78" y="2567" on="0"/>
      </contour>
      <contour>
        <pt x="-84" y="2363" on="1"/>
        <pt x="-3" y="2288" on="0"/>
        <pt x="-3" y="2246" on="1"/>
        <pt x="-3" y="2242" on="1"/>
        <pt x="-6" y="2200" on="0"/>
        <pt x="-80" y="2200" on="1"/>
        <pt x="-92" y="2200" on="0"/>
        <pt x="-107" y="2201" on="1"/>
        <pt x="-705" y="2254" on="1"/>
        <pt x="-796" y="2262" on="0"/>
        <pt x="-843" y="2300" on="1"/>
        <pt x="-890" y="2339" on="0"/>
        <pt x="-890" y="2414" on="1"/>
        <pt x="-890" y="2427" on="0"/>
        <pt x="-889" y="2440" on="1"/>
        <pt x="-880" y="2544" on="0"/>
        <pt x="-807" y="2598" on="1"/>
        <pt x="-742" y="2646" on="0"/>
        <pt x="-627" y="2646" on="1"/>
        <pt x="-600" y="2646" on="0"/>
        <pt x="-570" y="2643" on="1"/>
        <pt x="-471" y="2635" on="0"/>
        <pt x="-354" y="2565" on="1"/>
        <pt x="-341" y="2557" on="0"/>
        <pt x="-328" y="2549" on="1"/>
        <pt x="-319" y="2635" on="0"/>
        <pt x="-272" y="2675" on="1"/>
        <pt x="-233" y="2707" on="0"/>
        <pt x="-166" y="2707" on="1"/>
        <pt x="-152" y="2707" on="0"/>
        <pt x="-138" y="2706" on="1"/>
        <pt x="-51" y="2698" on="0"/>
        <pt x="-11" y="2651" on="1"/>
        <pt x="23" y="2612" on="0"/>
        <pt x="23" y="2544" on="1"/>
        <pt x="23" y="2531" on="0"/>
        <pt x="21" y="2516" on="1"/>
        <pt x="13" y="2430" on="0"/>
        <pt x="-33" y="2390" on="1"/>
        <pt x="-55" y="2372" on="0"/>
      </contour>
    </TTGlyph>
    <TTGlyph name="glyph175" xMin="-890" yMin="2200" xMax="66" yMax="2775">
      <contour>
        <pt x="-706" y="2476" on="1"/>
        <pt x="-737" y="2457" on="0"/>
        <pt x="-740" y="2427" on="1"/>
        <pt x="-741" y="2421" on="0"/>
        <pt x="-741" y="2415" on="1"/>
        <pt x="-741" y="2391" on="0"/>
        <pt x="-730" y="2381" on="1"/>
        <pt x="-719" y="2369" on="0"/>
        <pt x="-695" y="2367" on="1"/>
        <pt x="-230" y="2326" on="1"/>
        <pt x="-450" y="2482" on="0"/>
        <pt x="-584" y="2494" on="1"/>
        <pt x="-602" y="2496" on="0"/>
        <pt x="-618" y="2496" on="1"/>
        <pt x="-675" y="2496" on="0"/>
      </contour>
      <contour>
        <pt x="-356" y="2566" on="1"/>
        <pt x="-340" y="2631" on="1"/>
        <pt x="-338" y="2639" on="0"/>
        <pt x="-338" y="2647" on="1"/>
        <pt x="-338" y="2682" on="0"/>
        <pt x="-389" y="2690" on="1"/>
        <pt x="-366" y="2775" on="0"/>
        <pt x="-293" y="2775" on="1"/>
        <pt x="-282" y="2775" on="0"/>
        <pt x="-269" y="2773" on="1"/>
        <pt x="-203" y="2762" on="0"/>
        <pt x="-203" y="2686" on="1"/>
        <pt x="-203" y="2653" on="0"/>
        <pt x="-215" y="2610" on="1"/>
        <pt x="-246" y="2495" on="1"/>
        <pt x="-185" y="2452" on="0"/>
        <pt x="-123" y="2399" on="1"/>
        <pt x="-88" y="2563" on="1"/>
        <pt x="-86" y="2571" on="0"/>
        <pt x="-86" y="2579" on="1"/>
        <pt x="-86" y="2614" on="0"/>
        <pt x="-127" y="2622" on="1"/>
        <pt x="-109" y="2703" on="0"/>
        <pt x="-40" y="2703" on="1"/>
        <pt x="-25" y="2703" on="0"/>
        <pt x="-8" y="2699" on="1"/>
        <pt x="66" y="2683" on="0"/>
        <pt x="66" y="2595" on="1"/>
        <pt x="66" y="2567" on="0"/>
        <pt x="58" y="2532" on="1"/>
        <pt x="-3" y="2246" on="1"/>
        <pt x="-9" y="2216" on="0"/>
        <pt x="-40" y="2207" on="1"/>
        <pt x="-63" y="2200" on="0"/>
        <pt x="-89" y="2200" on="1"/>
        <pt x="-98" y="2200" on="0"/>
        <pt x="-107" y="2201" on="1"/>
        <pt x="-705" y="2253" on="1"/>
        <pt x="-797" y="2261" on="0"/>
        <pt x="-843" y="2300" on="1"/>
        <pt x="-890" y="2339" on="0"/>
        <pt x="-890" y="2414" on="1"/>
        <pt x="-890" y="2427" on="0"/>
        <pt x="-889" y="2440" on="1"/>
        <pt x="-880" y="2544" on="0"/>
        <pt x="-807" y="2598" on="1"/>
        <pt x="-742" y="2646" on="0"/>
        <pt x="-627" y="2646" on="1"/>
        <pt x="-600" y="2646" on="0"/>
        <pt x="-570" y="2643" on="1"/>
        <pt x="-472" y="2634" on="0"/>
      </contour>
    </TTGlyph>
    <TTGlyph name="glyph176" xMin="-660" yMin="2240" xMax="-110" yMax="2790">
      <contour>
        <pt x="-660" y="2378" on="0"/>
        <pt x="-660" y="2515" on="1"/>
        <pt x="-660" y="2653" on="0"/>
        <pt x="-591" y="2721" on="1"/>
        <pt x="-522" y="2790" on="0"/>
        <pt x="-385" y="2790" on="1"/>
        <pt x="-247" y="2790" on="0"/>
        <pt x="-178" y="2721" on="1"/>
        <pt x="-110" y="2653" on="0"/>
        <pt x="-110" y="2515" on="1"/>
        <pt x="-110" y="2378" on="0"/>
        <pt x="-178" y="2309" on="1"/>
        <pt x="-247" y="2240" on="0"/>
        <pt x="-385" y="2240" on="1"/>
        <pt x="-522" y="2240" on="0"/>
        <pt x="-591" y="2309" on="1"/>
      </contour>
      <contour>
        <pt x="-260" y="2453" on="0"/>
        <pt x="-260" y="2515" on="1"/>
        <pt x="-260" y="2578" on="0"/>
        <pt x="-291" y="2609" on="1"/>
        <pt x="-322" y="2640" on="0"/>
        <pt x="-385" y="2640" on="1"/>
        <pt x="-447" y="2640" on="0"/>
        <pt x="-478" y="2609" on="1"/>
        <pt x="-510" y="2578" on="0"/>
        <pt x="-510" y="2515" on="1"/>
        <pt x="-510" y="2453" on="0"/>
        <pt x="-478" y="2421" on="1"/>
        <pt x="-447" y="2390" on="0"/>
        <pt x="-385" y="2390" on="1"/>
        <pt x="-322" y="2390" on="0"/>
        <pt x="-291" y="2421" on="1"/>
      </contour>
    </TTGlyph>
    <TTGlyph name="glyph177" xMin="-541" yMin="2200" xMax="0" yMax="2800">
      <contour>
        <pt x="-218" y="2420" on="1"/>
        <pt x="-253" y="2279" on="0"/>
        <pt x="-271" y="2249" on="1"/>
        <pt x="-300" y="2200" on="0"/>
        <pt x="-337" y="2200" on="1"/>
        <pt x="-374" y="2200" on="0"/>
        <pt x="-382" y="2251" on="1"/>
        <pt x="-383" y="2256" on="0"/>
        <pt x="-383" y="2265" on="1"/>
        <pt x="-383" y="2306" on="0"/>
        <pt x="-363" y="2420" on="1"/>
        <pt x="-432" y="2420" on="1"/>
        <pt x="-541" y="2420" on="0"/>
        <pt x="-541" y="2495" on="1"/>
        <pt x="-541" y="2570" on="0"/>
        <pt x="-432" y="2570" on="1"/>
        <pt x="-335" y="2570" on="1"/>
        <pt x="-330" y="2595" on="0"/>
        <pt x="-325" y="2621" on="1"/>
        <pt x="-322" y="2634" on="0"/>
        <pt x="-322" y="2644" on="1"/>
        <pt x="-322" y="2662" on="0"/>
        <pt x="-331" y="2668" on="1"/>
        <pt x="-345" y="2677" on="0"/>
        <pt x="-345" y="2713" on="1"/>
        <pt x="-345" y="2757" on="0"/>
        <pt x="-318" y="2778" on="1"/>
        <pt x="-292" y="2800" on="0"/>
        <pt x="-239" y="2800" on="1"/>
        <pt x="-186" y="2800" on="0"/>
        <pt x="-167" y="2763" on="1"/>
        <pt x="-157" y="2743" on="0"/>
        <pt x="-157" y="2712" on="1"/>
        <pt x="-157" y="2685" on="0"/>
        <pt x="-165" y="2650" on="1"/>
        <pt x="-174" y="2608" on="0"/>
        <pt x="-182" y="2570" on="1"/>
        <pt x="-108" y="2570" on="1"/>
        <pt x="0" y="2570" on="0"/>
        <pt x="0" y="2495" on="1"/>
        <pt x="0" y="2420" on="0"/>
        <pt x="-108" y="2420" on="1"/>
      </contour>
    </TTGlyph>
    <TTGlyph name="glyph178" xMin="-670" yMin="2200" xMax="309" yMax="3166">
      <contour>
        <pt x="-431" y="2582" on="1"/>
        <pt x="-429" y="2594" on="0"/>
        <pt x="-429" y="2603" on="1"/>
        <pt x="-429" y="2629" on="0"/>
        <pt x="-448" y="2629" on="1"/>
        <pt x="-475" y="2629" on="0"/>
        <pt x="-520" y="2547" on="0"/>
        <pt x="-520" y="2480" on="1"/>
        <pt x="-520" y="2412" on="0"/>
        <pt x="-460" y="2381" on="1"/>
        <pt x="-401" y="2350" on="0"/>
        <pt x="-290" y="2350" on="1"/>
        <pt x="-152" y="2350" on="0"/>
        <pt x="-61" y="2478" on="1"/>
        <pt x="30" y="2606" on="0"/>
        <pt x="106" y="2832" on="1"/>
        <pt x="159" y="2980" on="0"/>
        <pt x="159" y="3073" on="1"/>
        <pt x="159" y="3166" on="0"/>
        <pt x="234" y="3166" on="1"/>
        <pt x="309" y="3166" on="0"/>
        <pt x="309" y="3054" on="1"/>
        <pt x="309" y="2942" on="0"/>
        <pt x="237" y="2755" on="1"/>
        <pt x="142" y="2489" on="0"/>
        <pt x="26" y="2345" on="1"/>
        <pt x="-91" y="2200" on="0"/>
        <pt x="-290" y="2200" on="1"/>
        <pt x="-430" y="2200" on="0"/>
        <pt x="-550" y="2265" on="1"/>
        <pt x="-670" y="2330" on="0"/>
        <pt x="-670" y="2480" on="1"/>
        <pt x="-670" y="2590" on="0"/>
        <pt x="-603" y="2685" on="1"/>
        <pt x="-537" y="2779" on="0"/>
        <pt x="-442" y="2779" on="1"/>
        <pt x="-273" y="2779" on="0"/>
        <pt x="-273" y="2658" on="1"/>
        <pt x="-273" y="2643" on="0"/>
        <pt x="-275" y="2627" on="1"/>
        <pt x="-290" y="2535" on="0"/>
        <pt x="-365" y="2535" on="1"/>
        <pt x="-432" y="2535" on="0"/>
        <pt x="-432" y="2572" on="1"/>
        <pt x="-432" y="2577" on="0"/>
      </contour>
    </TTGlyph>
    <TTGlyph name="glyph179" xMin="335" yMin="0" xMax="2474" yMax="1507">
      <contour>
        <pt x="486" y="150" on="1"/>
        <pt x="575" y="150" on="0"/>
        <pt x="653" y="218" on="1"/>
        <pt x="730" y="285" on="0"/>
        <pt x="756" y="402" on="1"/>
        <pt x="761" y="425" on="0"/>
        <pt x="761" y="442" on="1"/>
        <pt x="761" y="474" on="0"/>
        <pt x="743" y="484" on="1"/>
        <pt x="715" y="500" on="0"/>
        <pt x="651" y="500" on="1"/>
        <pt x="560" y="500" on="0"/>
        <pt x="543" y="421" on="1"/>
      </contour>
      <contour>
        <pt x="1613" y="1050" on="1"/>
        <pt x="1610" y="976" on="0"/>
        <pt x="1590" y="890" on="1"/>
        <pt x="1422" y="100" on="1"/>
        <pt x="1400" y="0" on="0"/>
        <pt x="1330" y="0" on="1"/>
        <pt x="1260" y="0" on="0"/>
        <pt x="1210" y="35" on="1"/>
        <pt x="1172" y="62" on="0"/>
        <pt x="1172" y="95" on="1"/>
        <pt x="1172" y="105" on="0"/>
        <pt x="1175" y="115" on="1"/>
        <pt x="1190" y="160" on="0"/>
        <pt x="1238" y="173" on="1"/>
        <pt x="1286" y="186" on="0"/>
        <pt x="1310" y="297" on="1"/>
        <pt x="1441" y="914" on="1"/>
        <pt x="1466" y="1022" on="0"/>
        <pt x="1466" y="1101" on="1"/>
        <pt x="1466" y="1117" on="0"/>
        <pt x="1465" y="1131" on="1"/>
        <pt x="1460" y="1218" on="0"/>
        <pt x="1419" y="1262" on="1"/>
        <pt x="1337" y="1350" on="0"/>
        <pt x="1306" y="1350" on="1"/>
        <pt x="1274" y="1350" on="0"/>
        <pt x="1172" y="1225" on="1"/>
        <pt x="1070" y="1100" on="1"/>
        <pt x="1007" y="1225" on="1"/>
        <pt x="943" y="1350" on="0"/>
        <pt x="916" y="1350" on="1"/>
        <pt x="889" y="1350" on="0"/>
        <pt x="796" y="1257" on="1"/>
        <pt x="702" y="1163" on="0"/>
        <pt x="668" y="1006" on="1"/>
        <pt x="590" y="636" on="1"/>
        <pt x="620" y="650" on="0"/>
        <pt x="651" y="650" on="1"/>
        <pt x="755" y="650" on="0"/>
        <pt x="799" y="625" on="1"/>
        <pt x="908" y="561" on="0"/>
        <pt x="908" y="437" on="1"/>
        <pt x="908" y="411" on="0"/>
        <pt x="903" y="382" on="1"/>
        <pt x="870" y="203" on="0"/>
        <pt x="742" y="102" on="1"/>
        <pt x="614" y="0" on="0"/>
        <pt x="486" y="0" on="1"/>
        <pt x="393" y="0" on="0"/>
        <pt x="357" y="50" on="1"/>
        <pt x="335" y="81" on="0"/>
        <pt x="335" y="132" on="1"/>
        <pt x="335" y="163" on="0"/>
        <pt x="343" y="200" on="1"/>
        <pt x="519" y="1036" on="1"/>
        <pt x="562" y="1237" on="0"/>
        <pt x="698" y="1369" on="1"/>
        <pt x="766" y="1434" on="1"/>
        <pt x="834" y="1500" on="0"/>
        <pt x="917" y="1500" on="1"/>
        <pt x="1000" y="1500" on="0"/>
        <pt x="1047" y="1417" on="1"/>
        <pt x="1094" y="1333" on="1"/>
        <pt x="1165" y="1414" on="0"/>
        <pt x="1216" y="1460" on="1"/>
        <pt x="1266" y="1507" on="0"/>
        <pt x="1329" y="1507" on="1"/>
        <pt x="1392" y="1507" on="0"/>
        <pt x="1526" y="1353" on="1"/>
        <pt x="1562" y="1312" on="0"/>
        <pt x="1583" y="1260" on="1"/>
        <pt x="1655" y="1380" on="0"/>
        <pt x="1747" y="1440" on="1"/>
        <pt x="1839" y="1500" on="0"/>
        <pt x="2000" y="1500" on="1"/>
        <pt x="2310" y="1500" on="0"/>
        <pt x="2410" y="1360" on="1"/>
        <pt x="2461" y="1291" on="0"/>
        <pt x="2471" y="1186" on="1"/>
        <pt x="2474" y="1160" on="0"/>
        <pt x="2474" y="1131" on="1"/>
        <pt x="2474" y="1046" on="0"/>
        <pt x="2451" y="941" on="1"/>
        <pt x="2272" y="100" on="1"/>
        <pt x="2250" y="0" on="0"/>
        <pt x="2180" y="0" on="1"/>
        <pt x="2110" y="0" on="0"/>
        <pt x="2060" y="35" on="1"/>
        <pt x="2022" y="62" on="0"/>
        <pt x="2022" y="95" on="1"/>
        <pt x="2022" y="105" on="0"/>
        <pt x="2025" y="115" on="1"/>
        <pt x="2040" y="160" on="0"/>
        <pt x="2088" y="173" on="1"/>
        <pt x="2136" y="186" on="0"/>
        <pt x="2160" y="297" on="1"/>
        <pt x="2304" y="971" on="1"/>
        <pt x="2320" y="1045" on="0"/>
        <pt x="2320" y="1104" on="1"/>
        <pt x="2320" y="1198" on="0"/>
        <pt x="2281" y="1255" on="1"/>
        <pt x="2217" y="1350" on="0"/>
        <pt x="2000" y="1350" on="1"/>
        <pt x="1850" y="1350" on="0"/>
        <pt x="1765" y="1275" on="1"/>
        <pt x="1681" y="1200" on="0"/>
      </contour>
    </TTGlyph>
    <TTGlyph name="glyph180" xMin="-2123" yMin="-800" xMax="-1174" yMax="-100">
      <contour>
        <pt x="-1939" y="-560" on="1"/>
        <pt x="-1963" y="-665" on="1"/>
        <pt x="-1872" y="-644" on="0"/>
        <pt x="-1865" y="-595" on="1"/>
        <pt x="-1864" y="-591" on="0"/>
        <pt x="-1864" y="-588" on="1"/>
        <pt x="-1864" y="-557" on="0"/>
        <pt x="-1909" y="-557" on="1"/>
        <pt x="-1922" y="-557" on="0"/>
      </contour>
      <contour>
        <pt x="-2059" y="-375" on="1"/>
        <pt x="-2032" y="-247" on="0"/>
        <pt x="-1937" y="-178" on="1"/>
        <pt x="-1828" y="-100" on="0"/>
        <pt x="-1630" y="-100" on="1"/>
        <pt x="-1346" y="-100" on="0"/>
        <pt x="-1240" y="-212" on="1"/>
        <pt x="-1174" y="-280" on="0"/>
        <pt x="-1174" y="-390" on="1"/>
        <pt x="-1174" y="-437" on="0"/>
        <pt x="-1187" y="-493" on="1"/>
        <pt x="-1236" y="-730" on="1"/>
        <pt x="-1251" y="-800" on="0"/>
        <pt x="-1327" y="-800" on="1"/>
        <pt x="-1387" y="-800" on="0"/>
        <pt x="-1387" y="-744" on="1"/>
        <pt x="-1387" y="-728" on="0"/>
        <pt x="-1383" y="-709" on="1"/>
        <pt x="-1331" y="-462" on="1"/>
        <pt x="-1326" y="-437" on="0"/>
        <pt x="-1326" y="-415" on="1"/>
        <pt x="-1326" y="-355" on="0"/>
        <pt x="-1366" y="-316" on="1"/>
        <pt x="-1437" y="-250" on="0"/>
        <pt x="-1630" y="-250" on="1"/>
        <pt x="-1768" y="-250" on="0"/>
        <pt x="-1840" y="-298" on="1"/>
        <pt x="-1898" y="-337" on="0"/>
        <pt x="-1913" y="-409" on="1"/>
        <pt x="-1918" y="-437" on="1"/>
        <pt x="-1904" y="-436" on="0"/>
        <pt x="-1892" y="-436" on="1"/>
        <pt x="-1794" y="-436" on="0"/>
        <pt x="-1760" y="-477" on="1"/>
        <pt x="-1733" y="-510" on="0"/>
        <pt x="-1733" y="-566" on="1"/>
        <pt x="-1733" y="-589" on="0"/>
        <pt x="-1738" y="-617" on="1"/>
        <pt x="-1754" y="-711" on="0"/>
        <pt x="-1865" y="-755" on="1"/>
        <pt x="-1976" y="-800" on="0"/>
        <pt x="-2062" y="-800" on="1"/>
        <pt x="-2123" y="-800" on="0"/>
        <pt x="-2123" y="-710" on="1"/>
        <pt x="-2123" y="-674" on="0"/>
        <pt x="-2113" y="-623" on="1"/>
      </contour>
    </TTGlyph>
    <TTGlyph name="glyph181" xMin="-1458" yMin="-1549" xMax="-1200" yMax="-850">
      <contour>
        <pt x="-1401" y="-1547" on="1"/>
        <pt x="-1458" y="-1535" on="0"/>
        <pt x="-1458" y="-1473" on="1"/>
        <pt x="-1458" y="-1455" on="0"/>
        <pt x="-1454" y="-1434" on="1"/>
        <pt x="-1373" y="-1055" on="1"/>
        <pt x="-1372" y="-1050" on="0"/>
        <pt x="-1372" y="-1045" on="1"/>
        <pt x="-1372" y="-1020" on="0"/>
        <pt x="-1401" y="-993" on="1"/>
        <pt x="-1425" y="-970" on="0"/>
        <pt x="-1425" y="-937" on="1"/>
        <pt x="-1425" y="-922" on="0"/>
        <pt x="-1420" y="-905" on="1"/>
        <pt x="-1404" y="-850" on="0"/>
        <pt x="-1328" y="-850" on="1"/>
        <pt x="-1251" y="-850" on="0"/>
        <pt x="-1222" y="-888" on="1"/>
        <pt x="-1200" y="-917" on="0"/>
        <pt x="-1200" y="-951" on="1"/>
        <pt x="-1200" y="-963" on="0"/>
        <pt x="-1203" y="-976" on="1"/>
        <pt x="-1307" y="-1465" on="1"/>
        <pt x="-1325" y="-1549" on="0"/>
        <pt x="-1381" y="-1549" on="1"/>
        <pt x="-1390" y="-1549" on="0"/>
      </contour>
    </TTGlyph>
    <TTGlyph name="glyph182" xMin="-1887" yMin="-1550" xMax="-1100" yMax="-850">
      <contour>
        <pt x="-1598" y="-850" on="0"/>
        <pt x="-1567" y="-883" on="1"/>
        <pt x="-1537" y="-917" on="0"/>
        <pt x="-1537" y="-997" on="1"/>
        <pt x="-1537" y="-1077" on="0"/>
        <pt x="-1737" y="-1290" on="0"/>
        <pt x="-1737" y="-1340" on="1"/>
        <pt x="-1737" y="-1400" on="0"/>
        <pt x="-1617" y="-1400" on="1"/>
        <pt x="-1517" y="-1400" on="0"/>
        <pt x="-1423" y="-1174" on="1"/>
        <pt x="-1329" y="-948" on="0"/>
        <pt x="-1283" y="-899" on="1"/>
        <pt x="-1237" y="-850" on="0"/>
        <pt x="-1168" y="-850" on="1"/>
        <pt x="-1100" y="-850" on="0"/>
        <pt x="-1100" y="-880" on="1"/>
        <pt x="-1100" y="-910" on="0"/>
        <pt x="-1143" y="-931" on="1"/>
        <pt x="-1187" y="-952" on="0"/>
        <pt x="-1288" y="-1251" on="1"/>
        <pt x="-1389" y="-1550" on="0"/>
        <pt x="-1617" y="-1550" on="1"/>
        <pt x="-1887" y="-1550" on="0"/>
        <pt x="-1887" y="-1340" on="1"/>
        <pt x="-1887" y="-1251" on="0"/>
        <pt x="-1687" y="-1076" on="0"/>
        <pt x="-1687" y="-1050" on="1"/>
        <pt x="-1687" y="-1017" on="0"/>
        <pt x="-1717" y="-998" on="1"/>
        <pt x="-1747" y="-980" on="0"/>
        <pt x="-1747" y="-944" on="1"/>
        <pt x="-1747" y="-908" on="0"/>
        <pt x="-1720" y="-879" on="1"/>
        <pt x="-1693" y="-850" on="0"/>
        <pt x="-1645" y="-850" on="1"/>
      </contour>
    </TTGlyph>
    <TTGlyph name="glyph183" xMin="-1937" yMin="-1550" xMax="-1100" yMax="-850">
      <contour>
        <pt x="-1648" y="-850" on="0"/>
        <pt x="-1617" y="-883" on="1"/>
        <pt x="-1587" y="-917" on="0"/>
        <pt x="-1587" y="-997" on="1"/>
        <pt x="-1587" y="-1077" on="0"/>
        <pt x="-1687" y="-1183" on="1"/>
        <pt x="-1787" y="-1290" on="0"/>
        <pt x="-1787" y="-1340" on="1"/>
        <pt x="-1787" y="-1400" on="0"/>
        <pt x="-1747" y="-1400" on="1"/>
        <pt x="-1667" y="-1400" on="0"/>
        <pt x="-1495" y="-1174" on="1"/>
        <pt x="-1495" y="-1194" on="1"/>
        <pt x="-1495" y="-1400" on="0"/>
        <pt x="-1417" y="-1400" on="1"/>
        <pt x="-1367" y="-1400" on="0"/>
        <pt x="-1318" y="-1174" on="1"/>
        <pt x="-1269" y="-948" on="0"/>
        <pt x="-1223" y="-899" on="1"/>
        <pt x="-1177" y="-850" on="0"/>
        <pt x="-1128" y="-850" on="1"/>
        <pt x="-1100" y="-850" on="0"/>
        <pt x="-1100" y="-880" on="1"/>
        <pt x="-1100" y="-910" on="0"/>
        <pt x="-1127" y="-952" on="0"/>
        <pt x="-1180" y="-1194" on="1"/>
        <pt x="-1259" y="-1550" on="0"/>
        <pt x="-1417" y="-1550" on="1"/>
        <pt x="-1528" y="-1550" on="0"/>
        <pt x="-1561" y="-1391" on="1"/>
        <pt x="-1677" y="-1550" on="0"/>
        <pt x="-1747" y="-1550" on="1"/>
        <pt x="-1937" y="-1550" on="0"/>
        <pt x="-1937" y="-1340" on="1"/>
        <pt x="-1937" y="-1251" on="0"/>
        <pt x="-1837" y="-1163" on="1"/>
        <pt x="-1737" y="-1076" on="0"/>
        <pt x="-1737" y="-1050" on="1"/>
        <pt x="-1737" y="-1017" on="0"/>
        <pt x="-1767" y="-998" on="1"/>
        <pt x="-1797" y="-980" on="0"/>
        <pt x="-1797" y="-944" on="1"/>
        <pt x="-1797" y="-908" on="0"/>
        <pt x="-1770" y="-879" on="1"/>
        <pt x="-1743" y="-850" on="0"/>
        <pt x="-1695" y="-850" on="1"/>
      </contour>
    </TTGlyph>
    <TTGlyph name="glyph185" xMin="-714" yMin="-1600" xMax="825" yMax="2611">
      <contour>
        <pt x="-118" y="2308" on="1"/>
        <pt x="-150" y="2289" on="0"/>
        <pt x="-153" y="2259" on="1"/>
        <pt x="-154" y="2251" on="0"/>
        <pt x="-154" y="2244" on="1"/>
        <pt x="-154" y="2222" on="0"/>
        <pt x="-144" y="2213" on="1"/>
        <pt x="-133" y="2201" on="0"/>
        <pt x="-109" y="2198" on="1"/>
        <pt x="355" y="2152" on="1"/>
        <pt x="137" y="2310" on="0"/>
        <pt x="4" y="2324" on="1"/>
        <pt x="-17" y="2326" on="0"/>
        <pt x="-35" y="2326" on="1"/>
        <pt x="-89" y="2326" on="0"/>
      </contour>
      <contour>
        <pt x="656" y="2059" on="1"/>
        <pt x="752" y="1985" on="0"/>
        <pt x="797" y="1895" on="1"/>
        <pt x="825" y="1838" on="0"/>
        <pt x="825" y="1771" on="1"/>
        <pt x="825" y="1732" on="0"/>
        <pt x="815" y="1689" on="1"/>
        <pt x="194" y="-1237" on="1"/>
        <pt x="155" y="-1419" on="0"/>
        <pt x="40" y="-1509" on="1"/>
        <pt x="-74" y="-1600" on="0"/>
        <pt x="-262" y="-1600" on="1"/>
        <pt x="-545" y="-1600" on="0"/>
        <pt x="-651" y="-1485" on="1"/>
        <pt x="-714" y="-1416" on="0"/>
        <pt x="-714" y="-1308" on="1"/>
        <pt x="-714" y="-1262" on="0"/>
        <pt x="-703" y="-1209" on="1"/>
        <pt x="-671" y="-1068" on="1"/>
        <pt x="-650" y="-968" on="0"/>
        <pt x="-594" y="-939" on="1"/>
        <pt x="-575" y="-929" on="0"/>
        <pt x="-553" y="-929" on="1"/>
        <pt x="-512" y="-929" on="0"/>
        <pt x="-464" y="-962" on="1"/>
        <pt x="-409" y="-1001" on="0"/>
        <pt x="-409" y="-1042" on="1"/>
        <pt x="-409" y="-1056" on="0"/>
        <pt x="-415" y="-1070" on="1"/>
        <pt x="-440" y="-1127" on="0"/>
        <pt x="-536" y="-1154" on="0"/>
        <pt x="-544" y="-1188" on="1"/>
        <pt x="-556" y="-1240" on="1"/>
        <pt x="-561" y="-1264" on="0"/>
        <pt x="-561" y="-1285" on="1"/>
        <pt x="-561" y="-1344" on="0"/>
        <pt x="-522" y="-1382" on="1"/>
        <pt x="-454" y="-1450" on="0"/>
        <pt x="-262" y="-1450" on="1"/>
        <pt x="-136" y="-1450" on="0"/>
        <pt x="-60" y="-1390" on="1"/>
        <pt x="20" y="-1329" on="0"/>
        <pt x="45" y="-1204" on="1"/>
        <pt x="669" y="1722" on="1"/>
        <pt x="673" y="1740" on="0"/>
        <pt x="673" y="1759" on="1"/>
        <pt x="673" y="1859" on="0"/>
        <pt x="565" y="1968" on="1"/>
        <pt x="504" y="2027" on="1"/>
        <pt x="401" y="2033" on="1"/>
        <pt x="-121" y="2085" on="1"/>
        <pt x="-212" y="2094" on="0"/>
        <pt x="-259" y="2133" on="1"/>
        <pt x="-304" y="2171" on="0"/>
        <pt x="-304" y="2247" on="1"/>
        <pt x="-304" y="2260" on="0"/>
        <pt x="-303" y="2274" on="1"/>
        <pt x="-292" y="2377" on="0"/>
        <pt x="-219" y="2430" on="1"/>
        <pt x="-154" y="2476" on="0"/>
        <pt x="-42" y="2476" on="1"/>
        <pt x="-13" y="2476" on="0"/>
        <pt x="19" y="2473" on="1"/>
        <pt x="118" y="2463" on="0"/>
        <pt x="234" y="2392" on="1"/>
        <pt x="267" y="2372" on="0"/>
        <pt x="300" y="2349" on="1"/>
        <pt x="338" y="2472" on="1"/>
        <pt x="342" y="2483" on="0"/>
        <pt x="342" y="2493" on="1"/>
        <pt x="342" y="2524" on="0"/>
        <pt x="305" y="2535" on="1"/>
        <pt x="330" y="2611" on="0"/>
        <pt x="381" y="2611" on="1"/>
        <pt x="394" y="2611" on="0"/>
        <pt x="408" y="2607" on="1"/>
        <pt x="451" y="2593" on="0"/>
        <pt x="451" y="2534" on="1"/>
        <pt x="451" y="2496" on="0"/>
        <pt x="434" y="2441" on="1"/>
        <pt x="384" y="2287" on="1"/>
        <pt x="426" y="2254" on="0"/>
        <pt x="468" y="2218" on="1"/>
        <pt x="493" y="2196" on="0"/>
        <pt x="513" y="2177" on="1"/>
        <pt x="588" y="2415" on="1"/>
        <pt x="592" y="2427" on="0"/>
        <pt x="592" y="2437" on="1"/>
        <pt x="592" y="2466" on="0"/>
        <pt x="556" y="2477" on="1"/>
        <pt x="581" y="2554" on="0"/>
        <pt x="632" y="2554" on="1"/>
        <pt x="644" y="2554" on="0"/>
        <pt x="658" y="2550" on="1"/>
        <pt x="701" y="2536" on="0"/>
        <pt x="701" y="2478" on="1"/>
        <pt x="701" y="2440" on="0"/>
        <pt x="683" y="2384" on="1"/>
        <pt x="598" y="2113" on="1"/>
      </contour>
    </TTGlyph>
    <TTGlyph name="glyph186" xMin="-713" yMin="-1600" xMax="821" yMax="2700">
      <contour>
        <pt x="195" y="-1237" on="1"/>
        <pt x="156" y="-1419" on="0"/>
        <pt x="41" y="-1509" on="1"/>
        <pt x="-73" y="-1600" on="0"/>
        <pt x="-261" y="-1600" on="1"/>
        <pt x="-544" y="-1600" on="0"/>
        <pt x="-650" y="-1485" on="1"/>
        <pt x="-713" y="-1416" on="0"/>
        <pt x="-713" y="-1308" on="1"/>
        <pt x="-713" y="-1262" on="0"/>
        <pt x="-702" y="-1209" on="1"/>
        <pt x="-672" y="-1068" on="1"/>
        <pt x="-651" y="-968" on="0"/>
        <pt x="-595" y="-939" on="1"/>
        <pt x="-576" y="-929" on="0"/>
        <pt x="-554" y="-929" on="1"/>
        <pt x="-513" y="-929" on="0"/>
        <pt x="-465" y="-962" on="1"/>
        <pt x="-410" y="-1001" on="0"/>
        <pt x="-410" y="-1042" on="1"/>
        <pt x="-410" y="-1056" on="0"/>
        <pt x="-416" y="-1070" on="1"/>
        <pt x="-441" y="-1127" on="0"/>
        <pt x="-537" y="-1154" on="0"/>
        <pt x="-545" y="-1188" on="1"/>
        <pt x="-555" y="-1240" on="1"/>
        <pt x="-560" y="-1264" on="0"/>
        <pt x="-560" y="-1285" on="1"/>
        <pt x="-560" y="-1344" on="0"/>
        <pt x="-521" y="-1382" on="1"/>
        <pt x="-453" y="-1450" on="0"/>
        <pt x="-261" y="-1450" on="1"/>
        <pt x="-135" y="-1450" on="0"/>
        <pt x="-59" y="-1390" on="1"/>
        <pt x="21" y="-1329" on="0"/>
        <pt x="46" y="-1204" on="1"/>
        <pt x="663" y="1703" on="1"/>
        <pt x="670" y="1733" on="0"/>
        <pt x="670" y="1766" on="1"/>
        <pt x="670" y="1882" on="0"/>
        <pt x="585" y="2022" on="1"/>
        <pt x="497" y="2150" on="0"/>
        <pt x="339" y="2150" on="1"/>
        <pt x="132" y="2150" on="0"/>
        <pt x="29" y="2053" on="1"/>
        <pt x="-47" y="1966" on="0"/>
        <pt x="-99" y="1966" on="1"/>
        <pt x="-116" y="1966" on="0"/>
        <pt x="-131" y="1975" on="1"/>
        <pt x="-154" y="1989" on="0"/>
        <pt x="-154" y="2015" on="1"/>
        <pt x="-154" y="2060" on="0"/>
        <pt x="-89" y="2140" on="1"/>
        <pt x="-38" y="2199" on="1"/>
        <pt x="106" y="2358" on="0"/>
        <pt x="139" y="2615" on="1"/>
        <pt x="150" y="2700" on="0"/>
        <pt x="225" y="2700" on="1"/>
        <pt x="272" y="2700" on="0"/>
        <pt x="272" y="2605" on="1"/>
        <pt x="272" y="2549" on="0"/>
        <pt x="256" y="2460" on="1"/>
        <pt x="239" y="2368" on="0"/>
        <pt x="210" y="2295" on="1"/>
        <pt x="248" y="2300" on="0"/>
        <pt x="339" y="2300" on="1"/>
        <pt x="588" y="2300" on="0"/>
        <pt x="713" y="2125" on="1"/>
        <pt x="821" y="1958" on="0"/>
        <pt x="821" y="1788" on="1"/>
        <pt x="821" y="1731" on="0"/>
        <pt x="809" y="1673" on="1"/>
      </contour>
    </TTGlyph>
    <TTGlyph name="glyph187" xMin="-1324" yMin="-1607" xMax="906" yMax="1500">
      <contour>
        <pt x="-411" y="-1576" on="1"/>
        <pt x="-507" y="-1544" on="0"/>
        <pt x="-555" y="-1481" on="1"/>
        <pt x="-616" y="-1544" on="0"/>
        <pt x="-707" y="-1576" on="1"/>
        <pt x="-797" y="-1607" on="0"/>
        <pt x="-867" y="-1607" on="1"/>
        <pt x="-1057" y="-1607" on="0"/>
        <pt x="-1162" y="-1513" on="1"/>
        <pt x="-1239" y="-1444" on="0"/>
        <pt x="-1239" y="-1327" on="1"/>
        <pt x="-1239" y="-1283" on="0"/>
        <pt x="-1228" y="-1232" on="1"/>
        <pt x="-1217" y="-1162" on="1"/>
        <pt x="-1324" y="-1117" on="0"/>
        <pt x="-1324" y="-1036" on="1"/>
        <pt x="-1324" y="-1022" on="0"/>
        <pt x="-1321" y="-1008" on="1"/>
        <pt x="-1300" y="-907" on="0"/>
        <pt x="-1197" y="-907" on="1"/>
        <pt x="-1094" y="-907" on="0"/>
        <pt x="-1062" y="-963" on="1"/>
        <pt x="-1045" y="-993" on="0"/>
        <pt x="-1045" y="-1045" on="1"/>
        <pt x="-1045" y="-1088" on="0"/>
        <pt x="-1057" y="-1146" on="1"/>
        <pt x="-1080" y="-1257" on="1"/>
        <pt x="-1085" y="-1280" on="0"/>
        <pt x="-1085" y="-1300" on="1"/>
        <pt x="-1085" y="-1368" on="0"/>
        <pt x="-1032" y="-1407" on="1"/>
        <pt x="-964" y="-1457" on="0"/>
        <pt x="-867" y="-1457" on="1"/>
        <pt x="-784" y="-1457" on="0"/>
        <pt x="-703" y="-1406" on="1"/>
        <pt x="-623" y="-1354" on="0"/>
        <pt x="-595" y="-1251" on="1"/>
        <pt x="-525" y="-904" on="1"/>
        <pt x="-453" y="-1012" on="0"/>
        <pt x="-372" y="-1058" on="1"/>
        <pt x="-329" y="-1083" on="0"/>
        <pt x="-279" y="-1083" on="1"/>
        <pt x="-236" y="-1083" on="0"/>
        <pt x="-187" y="-1064" on="1"/>
        <pt x="-273" y="-1171" on="0"/>
        <pt x="-379" y="-1175" on="1"/>
        <pt x="-435" y="-1180" on="0"/>
        <pt x="-436" y="-1205" on="1"/>
        <pt x="-443" y="-1257" on="1"/>
        <pt x="-448" y="-1280" on="0"/>
        <pt x="-448" y="-1300" on="1"/>
        <pt x="-448" y="-1368" on="0"/>
        <pt x="-395" y="-1407" on="1"/>
        <pt x="-327" y="-1457" on="0"/>
        <pt x="-230" y="-1457" on="1"/>
        <pt x="-151" y="-1457" on="0"/>
        <pt x="-69" y="-1401" on="1"/>
        <pt x="13" y="-1344" on="0"/>
        <pt x="37" y="-1232" on="1"/>
        <pt x="498" y="933" on="1"/>
        <pt x="501" y="945" on="0"/>
        <pt x="501" y="957" on="1"/>
        <pt x="501" y="1011" on="0"/>
        <pt x="450" y="1066" on="1"/>
        <pt x="387" y="1133" on="0"/>
        <pt x="253" y="1141" on="1"/>
        <pt x="400" y="1227" on="0"/>
        <pt x="489" y="1327" on="1"/>
        <pt x="578" y="1427" on="0"/>
        <pt x="620" y="1500" on="1"/>
        <pt x="692" y="1392" on="0"/>
        <pt x="764" y="1342" on="1"/>
        <pt x="825" y="1299" on="0"/>
        <pt x="886" y="1299" on="1"/>
        <pt x="896" y="1299" on="0"/>
        <pt x="906" y="1300" on="1"/>
        <pt x="856" y="1266" on="1"/>
        <pt x="805" y="1231" on="0"/>
        <pt x="730" y="1228" on="1"/>
        <pt x="721" y="1228" on="1"/>
        <pt x="652" y="1228" on="0"/>
        <pt x="602" y="1286" on="1"/>
        <pt x="511" y="1188" on="1"/>
        <pt x="596" y="1130" on="0"/>
        <pt x="629" y="1058" on="1"/>
        <pt x="650" y="1011" on="0"/>
        <pt x="650" y="959" on="1"/>
        <pt x="650" y="930" on="0"/>
        <pt x="644" y="900" on="1"/>
        <pt x="184" y="-1257" on="1"/>
        <pt x="147" y="-1432" on="0"/>
        <pt x="29" y="-1519" on="1"/>
        <pt x="-90" y="-1607" on="0"/>
        <pt x="-230" y="-1607" on="1"/>
        <pt x="-315" y="-1607" on="0"/>
      </contour>
    </TTGlyph>
    <TTGlyph name="glyph188" xMin="-1577" yMin="-1594" xMax="906" yMax="1500">
      <contour>
        <pt x="-1295" y="-1076" on="1"/>
        <pt x="-1341" y="-1114" on="0"/>
        <pt x="-1359" y="-1194" on="1"/>
        <pt x="-1380" y="-1294" on="1"/>
        <pt x="-1229" y="-1294" on="0"/>
        <pt x="-1229" y="-1394" on="1"/>
        <pt x="-1229" y="-1594" on="0"/>
        <pt x="-1478" y="-1594" on="1"/>
        <pt x="-1577" y="-1594" on="0"/>
        <pt x="-1577" y="-1518" on="1"/>
        <pt x="-1577" y="-1503" on="0"/>
        <pt x="-1573" y="-1485" on="1"/>
        <pt x="-1504" y="-1159" on="1"/>
        <pt x="-1476" y="-1024" on="0"/>
        <pt x="-1395" y="-958" on="1"/>
        <pt x="-1317" y="-894" on="0"/>
        <pt x="-1189" y="-894" on="1"/>
        <pt x="-1018" y="-894" on="0"/>
        <pt x="-949" y="-978" on="1"/>
        <pt x="-903" y="-1035" on="0"/>
        <pt x="-903" y="-1130" on="1"/>
        <pt x="-903" y="-1182" on="0"/>
        <pt x="-916" y="-1244" on="1"/>
        <pt x="-922" y="-1273" on="0"/>
        <pt x="-922" y="-1298" on="1"/>
        <pt x="-922" y="-1359" on="0"/>
        <pt x="-888" y="-1394" on="1"/>
        <pt x="-840" y="-1444" on="0"/>
        <pt x="-793" y="-1444" on="1"/>
        <pt x="-710" y="-1444" on="0"/>
        <pt x="-659" y="-1392" on="1"/>
        <pt x="-609" y="-1341" on="0"/>
        <pt x="-581" y="-1238" on="1"/>
        <pt x="-511" y="-891" on="1"/>
        <pt x="-439" y="-999" on="0"/>
        <pt x="-358" y="-1045" on="1"/>
        <pt x="-315" y="-1070" on="0"/>
        <pt x="-265" y="-1070" on="1"/>
        <pt x="-222" y="-1070" on="0"/>
        <pt x="-173" y="-1051" on="1"/>
        <pt x="-259" y="-1158" on="0"/>
        <pt x="-365" y="-1162" on="1"/>
        <pt x="-421" y="-1167" on="0"/>
        <pt x="-422" y="-1192" on="1"/>
        <pt x="-429" y="-1244" on="1"/>
        <pt x="-434" y="-1267" on="0"/>
        <pt x="-434" y="-1287" on="1"/>
        <pt x="-434" y="-1355" on="0"/>
        <pt x="-381" y="-1394" on="1"/>
        <pt x="-313" y="-1444" on="0"/>
        <pt x="-216" y="-1444" on="1"/>
        <pt x="-147" y="-1444" on="0"/>
        <pt x="-65" y="-1388" on="1"/>
        <pt x="17" y="-1331" on="0"/>
        <pt x="41" y="-1219" on="1"/>
        <pt x="498" y="933" on="1"/>
        <pt x="501" y="945" on="0"/>
        <pt x="501" y="957" on="1"/>
        <pt x="501" y="1011" on="0"/>
        <pt x="450" y="1066" on="1"/>
        <pt x="387" y="1133" on="0"/>
        <pt x="253" y="1141" on="1"/>
        <pt x="400" y="1227" on="0"/>
        <pt x="489" y="1327" on="1"/>
        <pt x="578" y="1427" on="0"/>
        <pt x="620" y="1500" on="1"/>
        <pt x="692" y="1392" on="0"/>
        <pt x="764" y="1342" on="1"/>
        <pt x="825" y="1299" on="0"/>
        <pt x="886" y="1299" on="1"/>
        <pt x="896" y="1299" on="0"/>
        <pt x="906" y="1300" on="1"/>
        <pt x="856" y="1266" on="1"/>
        <pt x="805" y="1231" on="0"/>
        <pt x="730" y="1228" on="1"/>
        <pt x="721" y="1228" on="1"/>
        <pt x="652" y="1228" on="0"/>
        <pt x="602" y="1286" on="1"/>
        <pt x="511" y="1188" on="1"/>
        <pt x="596" y="1130" on="0"/>
        <pt x="629" y="1058" on="1"/>
        <pt x="650" y="1011" on="0"/>
        <pt x="650" y="959" on="1"/>
        <pt x="650" y="930" on="0"/>
        <pt x="644" y="900" on="1"/>
        <pt x="188" y="-1244" on="1"/>
        <pt x="151" y="-1419" on="0"/>
        <pt x="33" y="-1506" on="1"/>
        <pt x="-86" y="-1594" on="0"/>
        <pt x="-216" y="-1594" on="1"/>
        <pt x="-301" y="-1594" on="0"/>
        <pt x="-397" y="-1563" on="1"/>
        <pt x="-493" y="-1531" on="0"/>
        <pt x="-541" y="-1468" on="1"/>
        <pt x="-602" y="-1531" on="0"/>
        <pt x="-657" y="-1562" on="1"/>
        <pt x="-713" y="-1594" on="0"/>
        <pt x="-793" y="-1594" on="1"/>
        <pt x="-893" y="-1594" on="0"/>
        <pt x="-998" y="-1500" on="1"/>
        <pt x="-1075" y="-1431" on="0"/>
        <pt x="-1075" y="-1314" on="1"/>
        <pt x="-1075" y="-1270" on="0"/>
        <pt x="-1064" y="-1219" on="1"/>
        <pt x="-1059" y="-1191" on="0"/>
        <pt x="-1059" y="-1168" on="1"/>
        <pt x="-1059" y="-1114" on="0"/>
        <pt x="-1084" y="-1084" on="1"/>
        <pt x="-1116" y="-1044" on="0"/>
        <pt x="-1189" y="-1044" on="1"/>
        <pt x="-1253" y="-1044" on="0"/>
      </contour>
    </TTGlyph>
    <TTGlyph name="glyph189" xMin="-1567" yMin="-1598" xMax="907" yMax="1500">
      <contour>
        <pt x="-1391" y="-1395" on="1"/>
        <pt x="-1407" y="-1463" on="1"/>
        <pt x="-1327" y="-1442" on="0"/>
        <pt x="-1324" y="-1412" on="1"/>
        <pt x="-1324" y="-1410" on="1"/>
        <pt x="-1324" y="-1391" on="0"/>
        <pt x="-1355" y="-1391" on="1"/>
        <pt x="-1370" y="-1391" on="0"/>
      </contour>
      <contour>
        <pt x="499" y="933" on="1"/>
        <pt x="502" y="945" on="0"/>
        <pt x="502" y="957" on="1"/>
        <pt x="502" y="1011" on="0"/>
        <pt x="451" y="1066" on="1"/>
        <pt x="388" y="1133" on="0"/>
        <pt x="254" y="1141" on="1"/>
        <pt x="401" y="1227" on="0"/>
        <pt x="490" y="1327" on="1"/>
        <pt x="579" y="1427" on="0"/>
        <pt x="621" y="1500" on="1"/>
        <pt x="693" y="1392" on="0"/>
        <pt x="765" y="1342" on="1"/>
        <pt x="826" y="1299" on="0"/>
        <pt x="887" y="1299" on="1"/>
        <pt x="897" y="1299" on="0"/>
        <pt x="907" y="1300" on="1"/>
        <pt x="857" y="1266" on="1"/>
        <pt x="806" y="1231" on="0"/>
        <pt x="731" y="1228" on="1"/>
        <pt x="722" y="1228" on="1"/>
        <pt x="653" y="1228" on="0"/>
        <pt x="603" y="1286" on="1"/>
        <pt x="512" y="1188" on="1"/>
        <pt x="597" y="1130" on="0"/>
        <pt x="630" y="1058" on="1"/>
        <pt x="651" y="1011" on="0"/>
        <pt x="651" y="959" on="1"/>
        <pt x="651" y="930" on="0"/>
        <pt x="645" y="900" on="1"/>
        <pt x="136" y="-1498" on="1"/>
        <pt x="115" y="-1598" on="0"/>
        <pt x="39" y="-1598" on="1"/>
        <pt x="-38" y="-1598" on="0"/>
        <pt x="-111" y="-1535" on="1"/>
        <pt x="-282" y="-1378" on="1"/>
        <pt x="-532" y="-1535" on="1"/>
        <pt x="-632" y="-1598" on="0"/>
        <pt x="-708" y="-1598" on="1"/>
        <pt x="-768" y="-1598" on="0"/>
        <pt x="-768" y="-1536" on="1"/>
        <pt x="-768" y="-1519" on="0"/>
        <pt x="-764" y="-1498" on="1"/>
        <pt x="-722" y="-1301" on="1"/>
        <pt x="-717" y="-1276" on="0"/>
        <pt x="-717" y="-1251" on="1"/>
        <pt x="-717" y="-1184" on="0"/>
        <pt x="-752" y="-1115" on="1"/>
        <pt x="-801" y="-1049" on="0"/>
        <pt x="-832" y="-1049" on="1"/>
        <pt x="-864" y="-1049" on="0"/>
        <pt x="-1047" y="-1239" on="1"/>
        <pt x="-1165" y="-1049" on="0"/>
        <pt x="-1208" y="-1049" on="1"/>
        <pt x="-1254" y="-1053" on="0"/>
        <pt x="-1298" y="-1093" on="1"/>
        <pt x="-1343" y="-1134" on="0"/>
        <pt x="-1366" y="-1226" on="1"/>
        <pt x="-1371" y="-1273" on="1"/>
        <pt x="-1356" y="-1272" on="0"/>
        <pt x="-1342" y="-1272" on="1"/>
        <pt x="-1248" y="-1272" on="0"/>
        <pt x="-1219" y="-1313" on="1"/>
        <pt x="-1194" y="-1347" on="0"/>
        <pt x="-1194" y="-1397" on="1"/>
        <pt x="-1194" y="-1414" on="0"/>
        <pt x="-1197" y="-1434" on="1"/>
        <pt x="-1209" y="-1509" on="0"/>
        <pt x="-1314" y="-1553" on="1"/>
        <pt x="-1420" y="-1598" on="0"/>
        <pt x="-1506" y="-1598" on="1"/>
        <pt x="-1567" y="-1598" on="0"/>
        <pt x="-1567" y="-1508" on="1"/>
        <pt x="-1567" y="-1472" on="0"/>
        <pt x="-1557" y="-1421" on="1"/>
        <pt x="-1507" y="-1172" on="1"/>
        <pt x="-1482" y="-1071" on="0"/>
        <pt x="-1373" y="-981" on="1"/>
        <pt x="-1274" y="-899" on="0"/>
        <pt x="-1208" y="-899" on="1"/>
        <pt x="-1108" y="-899" on="0"/>
        <pt x="-1061" y="-982" on="1"/>
        <pt x="-1021" y="-1049" on="1"/>
        <pt x="-902" y="-899" on="0"/>
        <pt x="-824" y="-899" on="1"/>
        <pt x="-746" y="-899" on="0"/>
        <pt x="-658" y="-1011" on="1"/>
        <pt x="-575" y="-1123" on="0"/>
        <pt x="-562" y="-1179" on="1"/>
        <pt x="-560" y="-1188" on="0"/>
        <pt x="-560" y="-1204" on="1"/>
        <pt x="-560" y="-1240" on="0"/>
        <pt x="-572" y="-1309" on="1"/>
        <pt x="-587" y="-1390" on="1"/>
        <pt x="-267" y="-1193" on="1"/>
        <pt x="-3" y="-1431" on="1"/>
      </contour>
    </TTGlyph>
    <TTGlyph name="glyph190" xMin="-768" yMin="-1593" xMax="907" yMax="1500">
      <contour>
        <pt x="-665" y="-1032" on="1"/>
        <pt x="-644" y="-932" on="0"/>
        <pt x="-588" y="-903" on="1"/>
        <pt x="-569" y="-893" on="0"/>
        <pt x="-547" y="-893" on="1"/>
        <pt x="-506" y="-893" on="0"/>
        <pt x="-458" y="-926" on="1"/>
        <pt x="-403" y="-965" on="0"/>
        <pt x="-403" y="-1006" on="1"/>
        <pt x="-403" y="-1020" on="0"/>
        <pt x="-409" y="-1034" on="1"/>
        <pt x="-434" y="-1091" on="0"/>
        <pt x="-529" y="-1118" on="0"/>
        <pt x="-553" y="-1228" on="1"/>
        <pt x="-587" y="-1385" on="1"/>
        <pt x="-267" y="-1188" on="1"/>
        <pt x="-3" y="-1426" on="1"/>
        <pt x="499" y="933" on="1"/>
        <pt x="502" y="945" on="0"/>
        <pt x="502" y="957" on="1"/>
        <pt x="502" y="1011" on="0"/>
        <pt x="451" y="1066" on="1"/>
        <pt x="388" y="1133" on="0"/>
        <pt x="254" y="1141" on="1"/>
        <pt x="401" y="1227" on="0"/>
        <pt x="490" y="1327" on="1"/>
        <pt x="579" y="1427" on="0"/>
        <pt x="621" y="1500" on="1"/>
        <pt x="693" y="1392" on="0"/>
        <pt x="765" y="1342" on="1"/>
        <pt x="826" y="1299" on="0"/>
        <pt x="887" y="1299" on="1"/>
        <pt x="897" y="1299" on="0"/>
        <pt x="907" y="1300" on="1"/>
        <pt x="857" y="1266" on="1"/>
        <pt x="806" y="1231" on="0"/>
        <pt x="731" y="1228" on="1"/>
        <pt x="722" y="1228" on="1"/>
        <pt x="653" y="1228" on="0"/>
        <pt x="603" y="1286" on="1"/>
        <pt x="512" y="1188" on="1"/>
        <pt x="597" y="1130" on="0"/>
        <pt x="630" y="1058" on="1"/>
        <pt x="651" y="1011" on="0"/>
        <pt x="651" y="959" on="1"/>
        <pt x="651" y="930" on="0"/>
        <pt x="645" y="900" on="1"/>
        <pt x="136" y="-1493" on="1"/>
        <pt x="115" y="-1593" on="0"/>
        <pt x="39" y="-1593" on="1"/>
        <pt x="-38" y="-1593" on="0"/>
        <pt x="-111" y="-1530" on="1"/>
        <pt x="-282" y="-1373" on="1"/>
        <pt x="-532" y="-1530" on="1"/>
        <pt x="-632" y="-1593" on="0"/>
        <pt x="-708" y="-1593" on="1"/>
        <pt x="-768" y="-1593" on="0"/>
        <pt x="-768" y="-1531" on="1"/>
        <pt x="-768" y="-1514" on="0"/>
        <pt x="-764" y="-1493" on="1"/>
      </contour>
    </TTGlyph>
    <TTGlyph name="glyph191" xMin="-718" yMin="-1598" xMax="907" yMax="1500">
      <contour>
        <pt x="499" y="933" on="1"/>
        <pt x="502" y="945" on="0"/>
        <pt x="502" y="957" on="1"/>
        <pt x="502" y="1011" on="0"/>
        <pt x="451" y="1066" on="1"/>
        <pt x="388" y="1133" on="0"/>
        <pt x="254" y="1141" on="1"/>
        <pt x="401" y="1227" on="0"/>
        <pt x="490" y="1327" on="1"/>
        <pt x="579" y="1427" on="0"/>
        <pt x="621" y="1500" on="1"/>
        <pt x="693" y="1392" on="0"/>
        <pt x="765" y="1342" on="1"/>
        <pt x="826" y="1299" on="0"/>
        <pt x="887" y="1299" on="1"/>
        <pt x="897" y="1299" on="0"/>
        <pt x="907" y="1300" on="1"/>
        <pt x="857" y="1266" on="1"/>
        <pt x="806" y="1231" on="0"/>
        <pt x="731" y="1228" on="1"/>
        <pt x="722" y="1228" on="1"/>
        <pt x="653" y="1228" on="0"/>
        <pt x="603" y="1286" on="1"/>
        <pt x="512" y="1188" on="1"/>
        <pt x="597" y="1130" on="0"/>
        <pt x="630" y="1058" on="1"/>
        <pt x="651" y="1011" on="0"/>
        <pt x="651" y="959" on="1"/>
        <pt x="651" y="930" on="0"/>
        <pt x="645" y="900" on="1"/>
        <pt x="185" y="-1248" on="1"/>
        <pt x="148" y="-1423" on="0"/>
        <pt x="13" y="-1510" on="1"/>
        <pt x="-123" y="-1598" on="0"/>
        <pt x="-307" y="-1598" on="1"/>
        <pt x="-523" y="-1598" on="0"/>
        <pt x="-634" y="-1498" on="1"/>
        <pt x="-690" y="-1448" on="0"/>
        <pt x="-709" y="-1379" on="1"/>
        <pt x="-718" y="-1344" on="0"/>
        <pt x="-718" y="-1305" on="1"/>
        <pt x="-718" y="-1266" on="0"/>
        <pt x="-709" y="-1223" on="1"/>
        <pt x="-698" y="-1172" on="1"/>
        <pt x="-669" y="-1037" on="1"/>
        <pt x="-648" y="-937" on="0"/>
        <pt x="-592" y="-908" on="1"/>
        <pt x="-573" y="-898" on="0"/>
        <pt x="-551" y="-898" on="1"/>
        <pt x="-510" y="-898" on="0"/>
        <pt x="-462" y="-931" on="1"/>
        <pt x="-407" y="-970" on="0"/>
        <pt x="-407" y="-1011" on="1"/>
        <pt x="-407" y="-1025" on="0"/>
        <pt x="-413" y="-1039" on="1"/>
        <pt x="-438" y="-1096" on="0"/>
        <pt x="-533" y="-1123" on="0"/>
        <pt x="-557" y="-1233" on="1"/>
        <pt x="-561" y="-1248" on="1"/>
        <pt x="-566" y="-1273" on="0"/>
        <pt x="-566" y="-1294" on="1"/>
        <pt x="-566" y="-1357" on="0"/>
        <pt x="-523" y="-1396" on="1"/>
        <pt x="-464" y="-1448" on="0"/>
        <pt x="-307" y="-1448" on="1"/>
        <pt x="-168" y="-1448" on="0"/>
        <pt x="-77" y="-1389" on="1"/>
        <pt x="14" y="-1330" on="0"/>
        <pt x="36" y="-1227" on="1"/>
      </contour>
    </TTGlyph>
    <TTGlyph name="glyph192" xMin="137" yMin="-1500" xMax="1639" yMax="1500">
      <contour>
        <pt x="499" y="933" on="1"/>
        <pt x="502" y="945" on="0"/>
        <pt x="502" y="957" on="1"/>
        <pt x="502" y="1011" on="0"/>
        <pt x="451" y="1066" on="1"/>
        <pt x="388" y="1133" on="0"/>
        <pt x="254" y="1141" on="1"/>
        <pt x="401" y="1227" on="0"/>
        <pt x="490" y="1327" on="1"/>
        <pt x="579" y="1427" on="0"/>
        <pt x="621" y="1500" on="1"/>
        <pt x="693" y="1392" on="0"/>
        <pt x="765" y="1342" on="1"/>
        <pt x="826" y="1299" on="0"/>
        <pt x="887" y="1299" on="1"/>
        <pt x="897" y="1299" on="0"/>
        <pt x="907" y="1300" on="1"/>
        <pt x="857" y="1266" on="1"/>
        <pt x="806" y="1231" on="0"/>
        <pt x="731" y="1228" on="1"/>
        <pt x="722" y="1228" on="1"/>
        <pt x="653" y="1228" on="0"/>
        <pt x="603" y="1286" on="1"/>
        <pt x="512" y="1188" on="1"/>
        <pt x="597" y="1130" on="0"/>
        <pt x="630" y="1058" on="1"/>
        <pt x="651" y="1011" on="0"/>
        <pt x="651" y="959" on="1"/>
        <pt x="651" y="930" on="0"/>
        <pt x="645" y="900" on="1"/>
        <pt x="319" y="-631" on="1"/>
        <pt x="292" y="-753" on="0"/>
        <pt x="292" y="-860" on="1"/>
        <pt x="292" y="-1021" on="0"/>
        <pt x="354" y="-1147" on="1"/>
        <pt x="482" y="-1350" on="0"/>
        <pt x="871" y="-1350" on="1"/>
        <pt x="1137" y="-1350" on="0"/>
        <pt x="1273" y="-1259" on="1"/>
        <pt x="1413" y="-1165" on="0"/>
        <pt x="1483" y="-1047" on="1"/>
        <pt x="1529" y="-954" on="0"/>
        <pt x="1583" y="-954" on="1"/>
        <pt x="1639" y="-954" on="0"/>
        <pt x="1639" y="-1004" on="1"/>
        <pt x="1639" y="-1055" on="0"/>
        <pt x="1607" y="-1118" on="1"/>
        <pt x="1526" y="-1278" on="0"/>
        <pt x="1351" y="-1392" on="1"/>
        <pt x="1186" y="-1500" on="0"/>
        <pt x="871" y="-1500" on="1"/>
        <pt x="387" y="-1500" on="0"/>
        <pt x="223" y="-1251" on="1"/>
        <pt x="137" y="-1095" on="0"/>
        <pt x="137" y="-885" on="1"/>
        <pt x="137" y="-752" on="0"/>
        <pt x="172" y="-597" on="1"/>
      </contour>
    </TTGlyph>
    <TTGlyph name="glyph193" xMin="-763" yMin="-1598" xMax="907" yMax="1500">
      <contour>
        <pt x="454" y="1" on="1"/>
        <pt x="181" y="-1248" on="1"/>
        <pt x="144" y="-1423" on="0"/>
        <pt x="9" y="-1510" on="1"/>
        <pt x="-127" y="-1598" on="0"/>
        <pt x="-311" y="-1598" on="1"/>
        <pt x="-527" y="-1598" on="0"/>
        <pt x="-638" y="-1498" on="1"/>
        <pt x="-694" y="-1448" on="0"/>
        <pt x="-713" y="-1379" on="1"/>
        <pt x="-722" y="-1344" on="0"/>
        <pt x="-722" y="-1305" on="1"/>
        <pt x="-722" y="-1266" on="0"/>
        <pt x="-713" y="-1223" on="1"/>
        <pt x="-699" y="-1153" on="1"/>
        <pt x="-697" y="-1143" on="0"/>
        <pt x="-697" y="-1134" on="1"/>
        <pt x="-697" y="-1097" on="0"/>
        <pt x="-726" y="-1073" on="1"/>
        <pt x="-763" y="-1043" on="0"/>
        <pt x="-763" y="-981" on="1"/>
        <pt x="-763" y="-919" on="0"/>
        <pt x="-674" y="-902" on="1"/>
        <pt x="-652" y="-898" on="0"/>
        <pt x="-633" y="-898" on="1"/>
        <pt x="-576" y="-898" on="0"/>
        <pt x="-547" y="-934" on="1"/>
        <pt x="-521" y="-966" on="0"/>
        <pt x="-521" y="-1019" on="1"/>
        <pt x="-521" y="-1048" on="0"/>
        <pt x="-529" y="-1083" on="1"/>
        <pt x="-565" y="-1248" on="1"/>
        <pt x="-570" y="-1273" on="0"/>
        <pt x="-570" y="-1294" on="1"/>
        <pt x="-570" y="-1357" on="0"/>
        <pt x="-527" y="-1396" on="1"/>
        <pt x="-468" y="-1448" on="0"/>
        <pt x="-311" y="-1448" on="1"/>
        <pt x="-172" y="-1448" on="0"/>
        <pt x="-81" y="-1389" on="1"/>
        <pt x="10" y="-1330" on="0"/>
        <pt x="32" y="-1227" on="1"/>
        <pt x="302" y="7" on="1"/>
        <pt x="226" y="18" on="0"/>
        <pt x="186" y="46" on="1"/>
        <pt x="120" y="91" on="0"/>
        <pt x="120" y="145" on="1"/>
        <pt x="120" y="239" on="0"/>
        <pt x="263" y="259" on="1"/>
        <pt x="255" y="236" on="0"/>
        <pt x="255" y="218" on="1"/>
        <pt x="255" y="193" on="0"/>
        <pt x="271" y="177" on="1"/>
        <pt x="287" y="161" on="0"/>
        <pt x="333" y="155" on="1"/>
        <pt x="499" y="933" on="1"/>
        <pt x="502" y="945" on="0"/>
        <pt x="502" y="957" on="1"/>
        <pt x="502" y="1011" on="0"/>
        <pt x="451" y="1066" on="1"/>
        <pt x="388" y="1133" on="0"/>
        <pt x="254" y="1141" on="1"/>
        <pt x="401" y="1227" on="0"/>
        <pt x="490" y="1327" on="1"/>
        <pt x="579" y="1427" on="0"/>
        <pt x="621" y="1500" on="1"/>
        <pt x="693" y="1392" on="0"/>
        <pt x="765" y="1342" on="1"/>
        <pt x="826" y="1299" on="0"/>
        <pt x="887" y="1299" on="1"/>
        <pt x="897" y="1299" on="0"/>
        <pt x="907" y="1300" on="1"/>
        <pt x="857" y="1266" on="1"/>
        <pt x="806" y="1231" on="0"/>
        <pt x="731" y="1228" on="1"/>
        <pt x="722" y="1228" on="1"/>
        <pt x="653" y="1228" on="0"/>
        <pt x="603" y="1286" on="1"/>
        <pt x="512" y="1188" on="1"/>
        <pt x="597" y="1130" on="0"/>
        <pt x="630" y="1058" on="1"/>
        <pt x="651" y="1011" on="0"/>
        <pt x="651" y="959" on="1"/>
        <pt x="651" y="930" on="0"/>
        <pt x="645" y="900" on="1"/>
        <pt x="486" y="154" on="1"/>
        <pt x="541" y="162" on="0"/>
        <pt x="579" y="182" on="1"/>
        <pt x="640" y="213" on="0"/>
        <pt x="663" y="289" on="1"/>
        <pt x="663" y="167" on="0"/>
        <pt x="622" y="95" on="1"/>
        <pt x="576" y="11" on="0"/>
      </contour>
    </TTGlyph>
    <TTGlyph name="glyph194" xMin="-600" yMin="2000" xMax="288" yMax="2446">
      <contour>
        <pt x="-415" y="2276" on="1"/>
        <pt x="-447" y="2257" on="0"/>
        <pt x="-450" y="2227" on="1"/>
        <pt x="-451" y="2221" on="0"/>
        <pt x="-451" y="2215" on="1"/>
        <pt x="-451" y="2191" on="0"/>
        <pt x="-440" y="2181" on="1"/>
        <pt x="-429" y="2169" on="0"/>
        <pt x="-405" y="2167" on="1"/>
        <pt x="60" y="2126" on="1"/>
        <pt x="-160" y="2282" on="0"/>
        <pt x="-293" y="2294" on="1"/>
        <pt x="-311" y="2296" on="0"/>
        <pt x="-327" y="2296" on="1"/>
        <pt x="-385" y="2296" on="0"/>
      </contour>
      <contour>
        <pt x="-553" y="2100" on="1"/>
        <pt x="-600" y="2139" on="0"/>
        <pt x="-600" y="2214" on="1"/>
        <pt x="-600" y="2227" on="0"/>
        <pt x="-599" y="2240" on="1"/>
        <pt x="-590" y="2344" on="0"/>
        <pt x="-517" y="2398" on="1"/>
        <pt x="-452" y="2446" on="0"/>
        <pt x="-337" y="2446" on="1"/>
        <pt x="-310" y="2446" on="0"/>
        <pt x="-280" y="2443" on="1"/>
        <pt x="-181" y="2435" on="0"/>
        <pt x="-64" y="2365" on="1"/>
        <pt x="52" y="2296" on="0"/>
        <pt x="172" y="2194" on="1"/>
        <pt x="288" y="2095" on="0"/>
        <pt x="288" y="2045" on="1"/>
        <pt x="288" y="2044" on="0"/>
        <pt x="287" y="2042" on="1"/>
        <pt x="284" y="2000" on="0"/>
        <pt x="210" y="2000" on="1"/>
        <pt x="198" y="2000" on="0"/>
        <pt x="183" y="2001" on="1"/>
        <pt x="-415" y="2054" on="1"/>
        <pt x="-506" y="2062" on="0"/>
      </contour>
    </TTGlyph>
    <TTGlyph name="glyph195" xMin="-600" yMin="2000" xMax="356" yMax="2503">
      <contour>
        <pt x="-416" y="2276" on="1"/>
        <pt x="-447" y="2257" on="0"/>
        <pt x="-450" y="2227" on="1"/>
        <pt x="-451" y="2221" on="0"/>
        <pt x="-451" y="2215" on="1"/>
        <pt x="-451" y="2191" on="0"/>
        <pt x="-440" y="2181" on="1"/>
        <pt x="-429" y="2169" on="0"/>
        <pt x="-405" y="2167" on="1"/>
        <pt x="60" y="2126" on="1"/>
        <pt x="-160" y="2282" on="0"/>
        <pt x="-294" y="2294" on="1"/>
        <pt x="-312" y="2296" on="0"/>
        <pt x="-328" y="2296" on="1"/>
        <pt x="-385" y="2296" on="0"/>
      </contour>
      <contour>
        <pt x="167" y="2199" on="1"/>
        <pt x="202" y="2363" on="1"/>
        <pt x="204" y="2371" on="0"/>
        <pt x="204" y="2379" on="1"/>
        <pt x="204" y="2414" on="0"/>
        <pt x="163" y="2422" on="1"/>
        <pt x="181" y="2503" on="0"/>
        <pt x="250" y="2503" on="1"/>
        <pt x="265" y="2503" on="0"/>
        <pt x="282" y="2499" on="1"/>
        <pt x="356" y="2483" on="0"/>
        <pt x="356" y="2395" on="1"/>
        <pt x="356" y="2367" on="0"/>
        <pt x="348" y="2332" on="1"/>
        <pt x="287" y="2046" on="1"/>
        <pt x="281" y="2016" on="0"/>
        <pt x="250" y="2007" on="1"/>
        <pt x="227" y="2000" on="0"/>
        <pt x="201" y="2000" on="1"/>
        <pt x="192" y="2000" on="0"/>
        <pt x="183" y="2001" on="1"/>
        <pt x="-415" y="2053" on="1"/>
        <pt x="-507" y="2061" on="0"/>
        <pt x="-553" y="2100" on="1"/>
        <pt x="-600" y="2139" on="0"/>
        <pt x="-600" y="2214" on="1"/>
        <pt x="-600" y="2227" on="0"/>
        <pt x="-599" y="2240" on="1"/>
        <pt x="-590" y="2344" on="0"/>
        <pt x="-517" y="2398" on="1"/>
        <pt x="-452" y="2446" on="0"/>
        <pt x="-337" y="2446" on="1"/>
        <pt x="-310" y="2446" on="0"/>
        <pt x="-280" y="2443" on="1"/>
        <pt x="-181" y="2434" on="0"/>
        <pt x="-64" y="2365" on="1"/>
        <pt x="50" y="2298" on="0"/>
      </contour>
    </TTGlyph>
    <TTGlyph name="glyph196" xMin="-600" yMin="2000" xMax="313" yMax="2507">
      <contour>
        <pt x="-415" y="2276" on="1"/>
        <pt x="-447" y="2257" on="0"/>
        <pt x="-450" y="2227" on="1"/>
        <pt x="-451" y="2221" on="0"/>
        <pt x="-451" y="2215" on="1"/>
        <pt x="-451" y="2191" on="0"/>
        <pt x="-440" y="2181" on="1"/>
        <pt x="-429" y="2169" on="0"/>
        <pt x="-405" y="2167" on="1"/>
        <pt x="60" y="2126" on="1"/>
        <pt x="-160" y="2282" on="0"/>
        <pt x="-293" y="2294" on="1"/>
        <pt x="-311" y="2296" on="0"/>
        <pt x="-327" y="2296" on="1"/>
        <pt x="-385" y="2296" on="0"/>
      </contour>
      <contour>
        <pt x="197" y="2384" on="1"/>
        <pt x="180" y="2403" on="0"/>
        <pt x="143" y="2406" on="1"/>
        <pt x="136" y="2407" on="0"/>
        <pt x="129" y="2407" on="1"/>
        <pt x="102" y="2407" on="0"/>
        <pt x="86" y="2393" on="1"/>
        <pt x="65" y="2376" on="0"/>
        <pt x="62" y="2338" on="1"/>
        <pt x="62" y="2327" on="1"/>
        <pt x="62" y="2298" on="0"/>
        <pt x="75" y="2281" on="1"/>
        <pt x="92" y="2260" on="0"/>
        <pt x="130" y="2257" on="1"/>
        <pt x="141" y="2257" on="1"/>
        <pt x="171" y="2257" on="0"/>
        <pt x="189" y="2271" on="1"/>
        <pt x="208" y="2288" on="0"/>
        <pt x="211" y="2325" on="1"/>
        <pt x="212" y="2332" on="0"/>
        <pt x="212" y="2338" on="1"/>
        <pt x="212" y="2367" on="0"/>
      </contour>
      <contour>
        <pt x="206" y="2163" on="1"/>
        <pt x="287" y="2088" on="0"/>
        <pt x="287" y="2046" on="1"/>
        <pt x="287" y="2042" on="1"/>
        <pt x="284" y="2000" on="0"/>
        <pt x="210" y="2000" on="1"/>
        <pt x="198" y="2000" on="0"/>
        <pt x="183" y="2001" on="1"/>
        <pt x="-415" y="2054" on="1"/>
        <pt x="-506" y="2062" on="0"/>
        <pt x="-553" y="2100" on="1"/>
        <pt x="-600" y="2139" on="0"/>
        <pt x="-600" y="2214" on="1"/>
        <pt x="-600" y="2227" on="0"/>
        <pt x="-599" y="2240" on="1"/>
        <pt x="-590" y="2344" on="0"/>
        <pt x="-517" y="2398" on="1"/>
        <pt x="-452" y="2446" on="0"/>
        <pt x="-337" y="2446" on="1"/>
        <pt x="-310" y="2446" on="0"/>
        <pt x="-280" y="2443" on="1"/>
        <pt x="-181" y="2435" on="0"/>
        <pt x="-64" y="2365" on="1"/>
        <pt x="-51" y="2357" on="0"/>
        <pt x="-38" y="2349" on="1"/>
        <pt x="-29" y="2435" on="0"/>
        <pt x="18" y="2475" on="1"/>
        <pt x="57" y="2507" on="0"/>
        <pt x="124" y="2507" on="1"/>
        <pt x="138" y="2507" on="0"/>
        <pt x="152" y="2506" on="1"/>
        <pt x="239" y="2498" on="0"/>
        <pt x="279" y="2451" on="1"/>
        <pt x="313" y="2412" on="0"/>
        <pt x="313" y="2344" on="1"/>
        <pt x="313" y="2331" on="0"/>
        <pt x="311" y="2316" on="1"/>
        <pt x="303" y="2230" on="0"/>
        <pt x="257" y="2190" on="1"/>
        <pt x="235" y="2172" on="0"/>
      </contour>
    </TTGlyph>
    <TTGlyph name="glyph197" xMin="-600" yMin="2000" xMax="356" yMax="2575">
      <contour>
        <pt x="-416" y="2276" on="1"/>
        <pt x="-447" y="2257" on="0"/>
        <pt x="-450" y="2227" on="1"/>
        <pt x="-451" y="2221" on="0"/>
        <pt x="-451" y="2215" on="1"/>
        <pt x="-451" y="2191" on="0"/>
        <pt x="-440" y="2181" on="1"/>
        <pt x="-429" y="2169" on="0"/>
        <pt x="-405" y="2167" on="1"/>
        <pt x="60" y="2126" on="1"/>
        <pt x="-160" y="2282" on="0"/>
        <pt x="-294" y="2294" on="1"/>
        <pt x="-312" y="2296" on="0"/>
        <pt x="-328" y="2296" on="1"/>
        <pt x="-385" y="2296" on="0"/>
      </contour>
      <contour>
        <pt x="-66" y="2366" on="1"/>
        <pt x="-50" y="2431" on="1"/>
        <pt x="-48" y="2439" on="0"/>
        <pt x="-48" y="2447" on="1"/>
        <pt x="-48" y="2482" on="0"/>
        <pt x="-99" y="2490" on="1"/>
        <pt x="-76" y="2575" on="0"/>
        <pt x="-3" y="2575" on="1"/>
        <pt x="8" y="2575" on="0"/>
        <pt x="21" y="2573" on="1"/>
        <pt x="87" y="2562" on="0"/>
        <pt x="87" y="2486" on="1"/>
        <pt x="87" y="2453" on="0"/>
        <pt x="75" y="2410" on="1"/>
        <pt x="44" y="2295" on="1"/>
        <pt x="105" y="2252" on="0"/>
        <pt x="167" y="2199" on="1"/>
        <pt x="202" y="2363" on="1"/>
        <pt x="204" y="2371" on="0"/>
        <pt x="204" y="2379" on="1"/>
        <pt x="204" y="2414" on="0"/>
        <pt x="163" y="2422" on="1"/>
        <pt x="181" y="2503" on="0"/>
        <pt x="250" y="2503" on="1"/>
        <pt x="265" y="2503" on="0"/>
        <pt x="282" y="2499" on="1"/>
        <pt x="356" y="2483" on="0"/>
        <pt x="356" y="2395" on="1"/>
        <pt x="356" y="2367" on="0"/>
        <pt x="348" y="2332" on="1"/>
        <pt x="287" y="2046" on="1"/>
        <pt x="281" y="2016" on="0"/>
        <pt x="250" y="2007" on="1"/>
        <pt x="227" y="2000" on="0"/>
        <pt x="201" y="2000" on="1"/>
        <pt x="192" y="2000" on="0"/>
        <pt x="183" y="2001" on="1"/>
        <pt x="-415" y="2053" on="1"/>
        <pt x="-507" y="2061" on="0"/>
        <pt x="-553" y="2100" on="1"/>
        <pt x="-600" y="2139" on="0"/>
        <pt x="-600" y="2214" on="1"/>
        <pt x="-600" y="2227" on="0"/>
        <pt x="-599" y="2240" on="1"/>
        <pt x="-590" y="2344" on="0"/>
        <pt x="-517" y="2398" on="1"/>
        <pt x="-452" y="2446" on="0"/>
        <pt x="-337" y="2446" on="1"/>
        <pt x="-310" y="2446" on="0"/>
        <pt x="-280" y="2443" on="1"/>
        <pt x="-182" y="2434" on="0"/>
      </contour>
    </TTGlyph>
    <TTGlyph name="glyph198" xMin="-340" yMin="2000" xMax="210" yMax="2550">
      <contour>
        <pt x="-340" y="2138" on="0"/>
        <pt x="-340" y="2275" on="1"/>
        <pt x="-340" y="2413" on="0"/>
        <pt x="-271" y="2481" on="1"/>
        <pt x="-202" y="2550" on="0"/>
        <pt x="-65" y="2550" on="1"/>
        <pt x="73" y="2550" on="0"/>
        <pt x="142" y="2481" on="1"/>
        <pt x="210" y="2413" on="0"/>
        <pt x="210" y="2275" on="1"/>
        <pt x="210" y="2138" on="0"/>
        <pt x="142" y="2069" on="1"/>
        <pt x="73" y="2000" on="0"/>
        <pt x="-65" y="2000" on="1"/>
        <pt x="-202" y="2000" on="0"/>
        <pt x="-271" y="2069" on="1"/>
      </contour>
      <contour>
        <pt x="60" y="2213" on="0"/>
        <pt x="60" y="2275" on="1"/>
        <pt x="60" y="2338" on="0"/>
        <pt x="29" y="2369" on="1"/>
        <pt x="-2" y="2400" on="0"/>
        <pt x="-65" y="2400" on="1"/>
        <pt x="-127" y="2400" on="0"/>
        <pt x="-158" y="2369" on="1"/>
        <pt x="-190" y="2338" on="0"/>
        <pt x="-190" y="2275" on="1"/>
        <pt x="-190" y="2213" on="0"/>
        <pt x="-158" y="2181" on="1"/>
        <pt x="-127" y="2150" on="0"/>
        <pt x="-65" y="2150" on="1"/>
        <pt x="-2" y="2150" on="0"/>
        <pt x="29" y="2181" on="1"/>
      </contour>
    </TTGlyph>
    <TTGlyph name="glyph199" xMin="-357" yMin="2000" xMax="268" yMax="2600">
      <contour>
        <pt x="-217" y="2098" on="0"/>
        <pt x="-246" y="2049" on="1"/>
        <pt x="-275" y="2000" on="0"/>
        <pt x="-312" y="2000" on="1"/>
        <pt x="-349" y="2000" on="0"/>
        <pt x="-357" y="2051" on="1"/>
        <pt x="-357" y="2065" on="1"/>
        <pt x="-357" y="2136" on="0"/>
        <pt x="-300" y="2421" on="1"/>
        <pt x="-297" y="2434" on="0"/>
        <pt x="-297" y="2444" on="1"/>
        <pt x="-297" y="2462" on="0"/>
        <pt x="-306" y="2468" on="1"/>
        <pt x="-320" y="2477" on="0"/>
        <pt x="-320" y="2513" on="1"/>
        <pt x="-320" y="2557" on="0"/>
        <pt x="-293" y="2578" on="1"/>
        <pt x="-267" y="2600" on="0"/>
        <pt x="-214" y="2600" on="1"/>
        <pt x="-161" y="2600" on="0"/>
        <pt x="-142" y="2563" on="1"/>
        <pt x="-132" y="2543" on="0"/>
        <pt x="-132" y="2512" on="1"/>
        <pt x="-132" y="2485" on="0"/>
        <pt x="-140" y="2450" on="1"/>
      </contour>
      <contour>
        <pt x="183" y="2098" on="0"/>
        <pt x="154" y="2049" on="1"/>
        <pt x="125" y="2000" on="0"/>
        <pt x="88" y="2000" on="1"/>
        <pt x="51" y="2000" on="0"/>
        <pt x="43" y="2051" on="1"/>
        <pt x="42" y="2056" on="0"/>
        <pt x="42" y="2065" on="1"/>
        <pt x="42" y="2136" on="0"/>
        <pt x="100" y="2421" on="1"/>
        <pt x="103" y="2434" on="0"/>
        <pt x="103" y="2444" on="1"/>
        <pt x="103" y="2462" on="0"/>
        <pt x="94" y="2468" on="1"/>
        <pt x="80" y="2477" on="0"/>
        <pt x="80" y="2513" on="1"/>
        <pt x="80" y="2557" on="0"/>
        <pt x="107" y="2578" on="1"/>
        <pt x="133" y="2600" on="0"/>
        <pt x="186" y="2600" on="1"/>
        <pt x="239" y="2600" on="0"/>
        <pt x="258" y="2563" on="1"/>
        <pt x="268" y="2543" on="0"/>
        <pt x="268" y="2512" on="1"/>
        <pt x="268" y="2485" on="0"/>
        <pt x="260" y="2450" on="1"/>
      </contour>
    </TTGlyph>
    <TTGlyph name="glyph200" xMin="-410" yMin="1650" xMax="440" yMax="2650">
      <contour>
        <pt x="-20" y="1850" on="0"/>
        <pt x="45" y="1850" on="1"/>
        <pt x="79" y="1850" on="0"/>
        <pt x="79" y="1823" on="1"/>
        <pt x="79" y="1798" on="0"/>
        <pt x="50" y="1750" on="1"/>
        <pt x="-10" y="1650" on="0"/>
        <pt x="-170" y="1650" on="1"/>
        <pt x="-410" y="1650" on="0"/>
        <pt x="-410" y="1875" on="1"/>
        <pt x="-410" y="2100" on="0"/>
        <pt x="-160" y="2120" on="1"/>
        <pt x="-147" y="2122" on="0"/>
        <pt x="-133" y="2122" on="1"/>
        <pt x="-82" y="2122" on="0"/>
        <pt x="-26" y="2097" on="1"/>
        <pt x="163" y="2240" on="0"/>
        <pt x="227" y="2346" on="1"/>
        <pt x="290" y="2451" on="0"/>
        <pt x="290" y="2550" on="1"/>
        <pt x="290" y="2650" on="0"/>
        <pt x="365" y="2650" on="1"/>
        <pt x="440" y="2650" on="0"/>
        <pt x="440" y="2550" on="1"/>
        <pt x="440" y="2397" on="0"/>
        <pt x="349" y="2259" on="1"/>
        <pt x="258" y="2120" on="0"/>
        <pt x="71" y="1981" on="1"/>
        <pt x="28" y="1948" on="0"/>
        <pt x="-13" y="1948" on="1"/>
        <pt x="-32" y="1948" on="0"/>
        <pt x="-50" y="1955" on="1"/>
        <pt x="-94" y="1972" on="0"/>
        <pt x="-133" y="1972" on="1"/>
        <pt x="-147" y="1972" on="0"/>
        <pt x="-160" y="1970" on="1"/>
        <pt x="-260" y="1960" on="0"/>
        <pt x="-260" y="1875" on="1"/>
        <pt x="-260" y="1800" on="0"/>
        <pt x="-170" y="1800" on="1"/>
        <pt x="-60" y="1800" on="0"/>
      </contour>
    </TTGlyph>
    <TTGlyph name="glyph201" xMin="-600" yMin="1650" xMax="619" yMax="2393">
      <contour>
        <pt x="278" y="1730" on="1"/>
        <pt x="288" y="1710" on="0"/>
        <pt x="288" y="1695" on="1"/>
        <pt x="288" y="1694" on="0"/>
        <pt x="287" y="1692" on="1"/>
        <pt x="284" y="1650" on="0"/>
        <pt x="210" y="1650" on="1"/>
        <pt x="198" y="1650" on="0"/>
        <pt x="183" y="1651" on="1"/>
        <pt x="-415" y="1704" on="1"/>
        <pt x="-506" y="1712" on="0"/>
        <pt x="-553" y="1750" on="1"/>
        <pt x="-600" y="1789" on="0"/>
        <pt x="-600" y="1864" on="1"/>
        <pt x="-600" y="1877" on="0"/>
        <pt x="-599" y="1890" on="1"/>
        <pt x="-590" y="1994" on="0"/>
        <pt x="-517" y="2048" on="1"/>
        <pt x="-452" y="2096" on="0"/>
        <pt x="-337" y="2096" on="1"/>
        <pt x="-310" y="2096" on="0"/>
        <pt x="-280" y="2093" on="1"/>
        <pt x="-181" y="2085" on="0"/>
        <pt x="-64" y="2015" on="1"/>
        <pt x="-39" y="2001" on="0"/>
        <pt x="-15" y="1985" on="1"/>
        <pt x="18" y="2124" on="0"/>
        <pt x="207" y="2139" on="1"/>
        <pt x="219" y="2140" on="0"/>
        <pt x="231" y="2140" on="1"/>
        <pt x="279" y="2140" on="0"/>
        <pt x="330" y="2119" on="1"/>
        <pt x="418" y="2172" on="0"/>
        <pt x="452" y="2223" on="1"/>
        <pt x="482" y="2270" on="0"/>
        <pt x="482" y="2313" on="1"/>
        <pt x="482" y="2393" on="0"/>
        <pt x="550" y="2393" on="1"/>
        <pt x="619" y="2393" on="0"/>
        <pt x="619" y="2313" on="1"/>
        <pt x="619" y="2222" on="0"/>
        <pt x="563" y="2146" on="1"/>
        <pt x="505" y="2065" on="0"/>
        <pt x="418" y="2016" on="1"/>
        <pt x="379" y="1986" on="0"/>
        <pt x="342" y="1986" on="1"/>
        <pt x="325" y="1986" on="0"/>
        <pt x="308" y="1993" on="1"/>
        <pt x="268" y="2008" on="0"/>
        <pt x="231" y="2008" on="1"/>
        <pt x="219" y="2008" on="0"/>
        <pt x="207" y="2006" on="1"/>
        <pt x="116" y="1997" on="0"/>
        <pt x="116" y="1922" on="1"/>
        <pt x="116" y="1896" on="0"/>
        <pt x="129" y="1880" on="1"/>
        <pt x="138" y="1873" on="0"/>
        <pt x="147" y="1865" on="1"/>
        <pt x="167" y="1855" on="0"/>
        <pt x="198" y="1855" on="1"/>
        <pt x="299" y="1855" on="0"/>
        <pt x="335" y="1900" on="0"/>
        <pt x="394" y="1900" on="1"/>
        <pt x="425" y="1900" on="0"/>
        <pt x="425" y="1876" on="1"/>
        <pt x="425" y="1854" on="0"/>
        <pt x="399" y="1811" on="1"/>
        <pt x="361" y="1749" on="0"/>
      </contour>
      <contour>
        <pt x="26" y="1779" on="1"/>
        <pt x="10" y="1796" on="0"/>
        <pt x="-1" y="1818" on="1"/>
        <pt x="-178" y="1934" on="0"/>
        <pt x="-293" y="1944" on="1"/>
        <pt x="-311" y="1946" on="0"/>
        <pt x="-327" y="1946" on="1"/>
        <pt x="-385" y="1946" on="0"/>
        <pt x="-415" y="1926" on="1"/>
        <pt x="-447" y="1907" on="0"/>
        <pt x="-450" y="1877" on="1"/>
        <pt x="-451" y="1871" on="0"/>
        <pt x="-451" y="1865" on="1"/>
        <pt x="-451" y="1841" on="0"/>
        <pt x="-440" y="1831" on="1"/>
        <pt x="-429" y="1819" on="0"/>
        <pt x="-405" y="1817" on="1"/>
      </contour>
    </TTGlyph>
    <TTGlyph name="glyph202" xMin="-960" yMin="-800" xMax="0" yMax="-100">
      <contour>
        <pt x="-66" y="-212" on="1"/>
        <pt x="0" y="-280" on="0"/>
        <pt x="0" y="-390" on="1"/>
        <pt x="0" y="-437" on="0"/>
        <pt x="-13" y="-493" on="1"/>
        <pt x="-62" y="-730" on="1"/>
        <pt x="-77" y="-800" on="0"/>
        <pt x="-153" y="-800" on="1"/>
        <pt x="-213" y="-800" on="0"/>
        <pt x="-213" y="-744" on="1"/>
        <pt x="-213" y="-728" on="0"/>
        <pt x="-209" y="-709" on="1"/>
        <pt x="-157" y="-462" on="1"/>
        <pt x="-152" y="-437" on="0"/>
        <pt x="-152" y="-415" on="1"/>
        <pt x="-152" y="-355" on="0"/>
        <pt x="-192" y="-316" on="1"/>
        <pt x="-263" y="-250" on="0"/>
        <pt x="-456" y="-250" on="1"/>
        <pt x="-594" y="-250" on="0"/>
        <pt x="-666" y="-298" on="1"/>
        <pt x="-724" y="-337" on="0"/>
        <pt x="-739" y="-409" on="1"/>
        <pt x="-807" y="-730" on="1"/>
        <pt x="-823" y="-800" on="0"/>
        <pt x="-900" y="-800" on="1"/>
        <pt x="-960" y="-800" on="0"/>
        <pt x="-960" y="-740" on="1"/>
        <pt x="-960" y="-724" on="0"/>
        <pt x="-956" y="-704" on="1"/>
        <pt x="-885" y="-375" on="1"/>
        <pt x="-858" y="-247" on="0"/>
        <pt x="-763" y="-178" on="1"/>
        <pt x="-654" y="-100" on="0"/>
        <pt x="-456" y="-100" on="1"/>
        <pt x="-172" y="-100" on="0"/>
      </contour>
    </TTGlyph>
    <TTGlyph name="glyph203" xMin="-895" yMin="-800" xMax="0" yMax="-100">
      <contour>
        <pt x="-58" y="-183" on="1"/>
        <pt x="0" y="-231" on="0"/>
        <pt x="0" y="-308" on="1"/>
        <pt x="0" y="-332" on="0"/>
        <pt x="-6" y="-360" on="1"/>
        <pt x="-24" y="-462" on="0"/>
        <pt x="-385" y="-537" on="1"/>
        <pt x="-745" y="-612" on="1"/>
        <pt x="-731" y="-650" on="0"/>
        <pt x="-529" y="-650" on="1"/>
        <pt x="-390" y="-650" on="0"/>
        <pt x="-123" y="-527" on="1"/>
        <pt x="-90" y="-512" on="0"/>
        <pt x="-71" y="-512" on="1"/>
        <pt x="-45" y="-512" on="0"/>
        <pt x="-45" y="-541" on="1"/>
        <pt x="-45" y="-548" on="0"/>
        <pt x="-46" y="-556" on="1"/>
        <pt x="-59" y="-625" on="0"/>
        <pt x="-207" y="-712" on="1"/>
        <pt x="-355" y="-800" on="0"/>
        <pt x="-529" y="-800" on="1"/>
        <pt x="-821" y="-800" on="0"/>
        <pt x="-879" y="-665" on="1"/>
        <pt x="-892" y="-633" on="0"/>
        <pt x="-892" y="-607" on="1"/>
        <pt x="-892" y="-576" on="0"/>
        <pt x="-874" y="-552" on="1"/>
        <pt x="-840" y="-506" on="0"/>
        <pt x="-742" y="-483" on="1"/>
        <pt x="-451" y="-430" on="1"/>
        <pt x="-159" y="-377" on="0"/>
        <pt x="-153" y="-337" on="1"/>
        <pt x="-152" y="-330" on="0"/>
        <pt x="-152" y="-324" on="1"/>
        <pt x="-152" y="-294" on="0"/>
        <pt x="-180" y="-280" on="1"/>
        <pt x="-241" y="-250" on="0"/>
        <pt x="-429" y="-250" on="1"/>
        <pt x="-620" y="-250" on="0"/>
        <pt x="-695" y="-279" on="1"/>
        <pt x="-738" y="-295" on="0"/>
        <pt x="-745" y="-321" on="1"/>
        <pt x="-746" y="-325" on="0"/>
        <pt x="-746" y="-328" on="1"/>
        <pt x="-746" y="-349" on="0"/>
        <pt x="-718" y="-349" on="1"/>
        <pt x="-693" y="-349" on="0"/>
        <pt x="-693" y="-370" on="1"/>
        <pt x="-693" y="-376" on="0"/>
        <pt x="-695" y="-384" on="1"/>
        <pt x="-704" y="-419" on="0"/>
        <pt x="-756" y="-434" on="1"/>
        <pt x="-771" y="-438" on="0"/>
        <pt x="-785" y="-438" on="1"/>
        <pt x="-823" y="-438" on="0"/>
        <pt x="-858" y="-410" on="1"/>
        <pt x="-895" y="-381" on="0"/>
        <pt x="-895" y="-330" on="1"/>
        <pt x="-895" y="-314" on="0"/>
        <pt x="-892" y="-296" on="1"/>
        <pt x="-873" y="-214" on="0"/>
        <pt x="-791" y="-167" on="1"/>
        <pt x="-674" y="-100" on="0"/>
        <pt x="-429" y="-100" on="1"/>
        <pt x="-157" y="-100" on="0"/>
      </contour>
    </TTGlyph>
    <TTGlyph name="glyph204" xMin="-960" yMin="-800" xMax="0" yMax="-100">
      <contour>
        <pt x="-806" y="-728" on="1"/>
        <pt x="-807" y="-730" on="1"/>
        <pt x="-823" y="-800" on="0"/>
        <pt x="-900" y="-800" on="1"/>
        <pt x="-960" y="-800" on="0"/>
        <pt x="-960" y="-740" on="1"/>
        <pt x="-960" y="-724" on="0"/>
        <pt x="-956" y="-704" on="1"/>
        <pt x="-885" y="-375" on="1"/>
        <pt x="-858" y="-247" on="0"/>
        <pt x="-763" y="-178" on="1"/>
        <pt x="-654" y="-100" on="0"/>
        <pt x="-456" y="-100" on="1"/>
        <pt x="-172" y="-100" on="0"/>
        <pt x="-66" y="-212" on="1"/>
        <pt x="0" y="-280" on="0"/>
        <pt x="0" y="-390" on="1"/>
        <pt x="0" y="-437" on="0"/>
        <pt x="-13" y="-493" on="1"/>
        <pt x="-62" y="-730" on="1"/>
        <pt x="-77" y="-800" on="0"/>
        <pt x="-153" y="-800" on="1"/>
        <pt x="-213" y="-800" on="0"/>
        <pt x="-213" y="-744" on="1"/>
        <pt x="-213" y="-728" on="0"/>
        <pt x="-209" y="-709" on="1"/>
        <pt x="-157" y="-462" on="1"/>
        <pt x="-152" y="-437" on="0"/>
        <pt x="-152" y="-415" on="1"/>
        <pt x="-152" y="-355" on="0"/>
        <pt x="-192" y="-316" on="1"/>
        <pt x="-263" y="-250" on="0"/>
        <pt x="-456" y="-250" on="1"/>
        <pt x="-594" y="-250" on="0"/>
        <pt x="-666" y="-298" on="1"/>
        <pt x="-724" y="-337" on="0"/>
        <pt x="-739" y="-409" on="1"/>
        <pt x="-769" y="-554" on="1"/>
        <pt x="-656" y="-450" on="0"/>
        <pt x="-599" y="-450" on="1"/>
        <pt x="-502" y="-450" on="0"/>
        <pt x="-440" y="-504" on="1"/>
        <pt x="-406" y="-534" on="0"/>
        <pt x="-406" y="-565" on="1"/>
        <pt x="-406" y="-590" on="0"/>
        <pt x="-428" y="-615" on="1"/>
        <pt x="-459" y="-650" on="0"/>
        <pt x="-488" y="-650" on="1"/>
        <pt x="-506" y="-650" on="0"/>
        <pt x="-523" y="-636" on="1"/>
        <pt x="-567" y="-600" on="0"/>
        <pt x="-599" y="-600" on="1"/>
        <pt x="-646" y="-600" on="0"/>
        <pt x="-745" y="-679" on="1"/>
      </contour>
    </TTGlyph>
    <TTGlyph name="glyph205" xMin="-942" yMin="-800" xMax="0" yMax="-100">
      <contour>
        <pt x="-703" y="-418" on="1"/>
        <pt x="-701" y="-406" on="0"/>
        <pt x="-701" y="-397" on="1"/>
        <pt x="-701" y="-371" on="0"/>
        <pt x="-720" y="-371" on="1"/>
        <pt x="-747" y="-371" on="0"/>
        <pt x="-769" y="-412" on="1"/>
        <pt x="-792" y="-453" on="0"/>
        <pt x="-792" y="-520" on="1"/>
        <pt x="-792" y="-588" on="0"/>
        <pt x="-732" y="-619" on="1"/>
        <pt x="-673" y="-650" on="0"/>
        <pt x="-562" y="-650" on="1"/>
        <pt x="-424" y="-650" on="0"/>
        <pt x="-337" y="-549" on="1"/>
        <pt x="-251" y="-448" on="0"/>
        <pt x="-214" y="-371" on="1"/>
        <pt x="-178" y="-294" on="0"/>
        <pt x="-155" y="-183" on="1"/>
        <pt x="-136" y="-100" on="0"/>
        <pt x="-61" y="-100" on="1"/>
        <pt x="0" y="-100" on="0"/>
        <pt x="0" y="-166" on="1"/>
        <pt x="0" y="-185" on="0"/>
        <pt x="-6" y="-211" on="1"/>
        <pt x="-32" y="-332" on="0"/>
        <pt x="-85" y="-448" on="1"/>
        <pt x="-139" y="-565" on="0"/>
        <pt x="-251" y="-682" on="1"/>
        <pt x="-363" y="-800" on="0"/>
        <pt x="-562" y="-800" on="1"/>
        <pt x="-702" y="-800" on="0"/>
        <pt x="-822" y="-735" on="1"/>
        <pt x="-942" y="-670" on="0"/>
        <pt x="-942" y="-520" on="1"/>
        <pt x="-942" y="-410" on="0"/>
        <pt x="-875" y="-315" on="1"/>
        <pt x="-809" y="-221" on="0"/>
        <pt x="-714" y="-221" on="1"/>
        <pt x="-545" y="-221" on="0"/>
        <pt x="-545" y="-342" on="1"/>
        <pt x="-545" y="-357" on="0"/>
        <pt x="-547" y="-373" on="1"/>
        <pt x="-562" y="-465" on="0"/>
        <pt x="-637" y="-465" on="1"/>
        <pt x="-704" y="-465" on="0"/>
        <pt x="-704" y="-428" on="1"/>
        <pt x="-704" y="-423" on="0"/>
      </contour>
    </TTGlyph>
    <TTGlyph name="glyph206" xMin="-964" yMin="-800" xMax="0" yMax="-100">
      <contour>
        <pt x="-657" y="-182" on="1"/>
        <pt x="-657" y="-100" on="0"/>
        <pt x="-578" y="-100" on="1"/>
        <pt x="-507" y="-100" on="0"/>
        <pt x="-507" y="-182" on="1"/>
        <pt x="-507" y="-279" on="0"/>
        <pt x="-551" y="-361" on="1"/>
        <pt x="-595" y="-444" on="0"/>
        <pt x="-653" y="-494" on="1"/>
        <pt x="-711" y="-544" on="0"/>
        <pt x="-817" y="-600" on="1"/>
        <pt x="-817" y="-650" on="0"/>
        <pt x="-650" y="-650" on="1"/>
        <pt x="-450" y="-650" on="0"/>
        <pt x="-345" y="-521" on="1"/>
        <pt x="-436" y="-487" on="0"/>
        <pt x="-436" y="-412" on="1"/>
        <pt x="-436" y="-405" on="0"/>
        <pt x="-435" y="-399" on="1"/>
        <pt x="-427" y="-314" on="0"/>
        <pt x="-385" y="-267" on="1"/>
        <pt x="-343" y="-220" on="0"/>
        <pt x="-260" y="-220" on="1"/>
        <pt x="-187" y="-220" on="0"/>
        <pt x="-115" y="-314" on="0"/>
        <pt x="-115" y="-390" on="1"/>
        <pt x="-115" y="-409" on="0"/>
        <pt x="-133" y="-439" on="1"/>
        <pt x="0" y="-454" on="0"/>
        <pt x="0" y="-528" on="1"/>
        <pt x="0" y="-532" on="0"/>
        <pt x="-1" y="-537" on="1"/>
        <pt x="-9" y="-619" on="0"/>
        <pt x="-54" y="-624" on="1"/>
        <pt x="-60" y="-625" on="0"/>
        <pt x="-65" y="-625" on="1"/>
        <pt x="-96" y="-625" on="0"/>
        <pt x="-96" y="-597" on="1"/>
        <pt x="-96" y="-594" on="0"/>
        <pt x="-95" y="-590" on="1"/>
        <pt x="-95" y="-587" on="1"/>
        <pt x="-95" y="-550" on="0"/>
        <pt x="-203" y="-537" on="1"/>
        <pt x="-218" y="-556" on="0"/>
        <pt x="-252" y="-597" on="0"/>
        <pt x="-271" y="-619" on="1"/>
        <pt x="-349" y="-709" on="0"/>
        <pt x="-444" y="-754" on="1"/>
        <pt x="-538" y="-800" on="0"/>
        <pt x="-650" y="-800" on="1"/>
        <pt x="-817" y="-800" on="0"/>
        <pt x="-964" y="-700" on="0"/>
        <pt x="-964" y="-600" on="1"/>
        <pt x="-964" y="-497" on="0"/>
        <pt x="-897" y="-477" on="1"/>
        <pt x="-831" y="-456" on="0"/>
        <pt x="-782" y="-419" on="1"/>
        <pt x="-732" y="-381" on="0"/>
        <pt x="-694" y="-311" on="1"/>
        <pt x="-657" y="-242" on="0"/>
      </contour>
      <contour>
        <pt x="-226" y="-390" on="1"/>
        <pt x="-220" y="-377" on="0"/>
        <pt x="-220" y="-367" on="1"/>
        <pt x="-220" y="-343" on="0"/>
        <pt x="-260" y="-343" on="1"/>
        <pt x="-316" y="-343" on="0"/>
        <pt x="-316" y="-390" on="1"/>
        <pt x="-316" y="-420" on="0"/>
        <pt x="-254" y="-431" on="1"/>
        <pt x="-234" y="-407" on="0"/>
      </contour>
    </TTGlyph>
    <TTGlyph name="glyph207" xMin="-1133" yMin="-800" xMax="0" yMax="-97">
      <contour>
        <pt x="-263" y="-408" on="1"/>
        <pt x="-270" y="-375" on="0"/>
        <pt x="-292" y="-346" on="1"/>
        <pt x="-337" y="-285" on="0"/>
        <pt x="-395" y="-285" on="1"/>
        <pt x="-479" y="-285" on="0"/>
        <pt x="-493" y="-337" on="1"/>
        <pt x="-495" y="-350" on="0"/>
        <pt x="-495" y="-360" on="1"/>
        <pt x="-495" y="-428" on="0"/>
        <pt x="-398" y="-428" on="1"/>
        <pt x="-322" y="-428" on="0"/>
      </contour>
      <contour>
        <pt x="-109" y="-484" on="1"/>
        <pt x="-111" y="-496" on="0"/>
        <pt x="-114" y="-509" on="1"/>
        <pt x="-151" y="-670" on="0"/>
        <pt x="-253" y="-735" on="1"/>
        <pt x="-355" y="-800" on="0"/>
        <pt x="-551" y="-800" on="1"/>
        <pt x="-686" y="-800" on="0"/>
        <pt x="-769" y="-725" on="1"/>
        <pt x="-853" y="-650" on="0"/>
        <pt x="-901" y="-650" on="1"/>
        <pt x="-965" y="-650" on="0"/>
        <pt x="-976" y="-702" on="1"/>
        <pt x="-998" y="-800" on="0"/>
        <pt x="-1051" y="-800" on="1"/>
        <pt x="-1133" y="-800" on="0"/>
        <pt x="-1133" y="-732" on="1"/>
        <pt x="-1133" y="-718" on="0"/>
        <pt x="-1130" y="-701" on="1"/>
        <pt x="-1070" y="-416" on="1"/>
        <pt x="-1061" y="-374" on="0"/>
        <pt x="-1061" y="-344" on="1"/>
        <pt x="-1061" y="-293" on="0"/>
        <pt x="-1085" y="-273" on="1"/>
        <pt x="-1123" y="-242" on="0"/>
        <pt x="-1123" y="-180" on="1"/>
        <pt x="-1123" y="-118" on="0"/>
        <pt x="-1034" y="-101" on="1"/>
        <pt x="-1011" y="-97" on="0"/>
        <pt x="-992" y="-97" on="1"/>
        <pt x="-935" y="-97" on="0"/>
        <pt x="-906" y="-133" on="1"/>
        <pt x="-881" y="-165" on="0"/>
        <pt x="-881" y="-218" on="1"/>
        <pt x="-881" y="-247" on="0"/>
        <pt x="-888" y="-282" on="1"/>
        <pt x="-934" y="-502" on="1"/>
        <pt x="-918" y="-500" on="0"/>
        <pt x="-901" y="-500" on="1"/>
        <pt x="-818" y="-500" on="0"/>
        <pt x="-730" y="-575" on="1"/>
        <pt x="-643" y="-650" on="0"/>
        <pt x="-551" y="-650" on="1"/>
        <pt x="-400" y="-650" on="0"/>
        <pt x="-342" y="-613" on="1"/>
        <pt x="-316" y="-596" on="0"/>
        <pt x="-297" y="-569" on="1"/>
        <pt x="-344" y="-578" on="0"/>
        <pt x="-398" y="-578" on="1"/>
        <pt x="-540" y="-578" on="0"/>
        <pt x="-605" y="-496" on="1"/>
        <pt x="-656" y="-433" on="0"/>
        <pt x="-656" y="-365" on="1"/>
        <pt x="-656" y="-347" on="0"/>
        <pt x="-652" y="-328" on="1"/>
        <pt x="-634" y="-241" on="0"/>
        <pt x="-569" y="-188" on="1"/>
        <pt x="-505" y="-135" on="0"/>
        <pt x="-395" y="-135" on="1"/>
        <pt x="-246" y="-135" on="0"/>
        <pt x="-163" y="-239" on="1"/>
        <pt x="-135" y="-274" on="0"/>
        <pt x="-120" y="-315" on="1"/>
        <pt x="-75" y="-279" on="0"/>
        <pt x="-45" y="-279" on="1"/>
        <pt x="-31" y="-279" on="0"/>
        <pt x="-21" y="-286" on="1"/>
        <pt x="0" y="-300" on="0"/>
        <pt x="0" y="-324" on="1"/>
        <pt x="0" y="-347" on="0"/>
        <pt x="-20" y="-380" on="1"/>
        <pt x="-58" y="-441" on="0"/>
      </contour>
    </TTGlyph>
    <TTGlyph name="glyph208" xMin="-1109" yMin="-800" xMax="0" yMax="-100">
      <contour>
        <pt x="-280" y="-432" on="1"/>
        <pt x="-309" y="-428" on="0"/>
        <pt x="-342" y="-427" on="1"/>
        <pt x="-417" y="-423" on="0"/>
        <pt x="-456" y="-386" on="1"/>
        <pt x="-496" y="-346" on="0"/>
        <pt x="-496" y="-268" on="1"/>
        <pt x="-496" y="-260" on="1"/>
        <pt x="-493" y="-180" on="0"/>
        <pt x="-451" y="-140" on="1"/>
        <pt x="-408" y="-100" on="0"/>
        <pt x="-325" y="-100" on="1"/>
        <pt x="-219" y="-100" on="0"/>
        <pt x="-158" y="-193" on="1"/>
        <pt x="-115" y="-257" on="0"/>
        <pt x="-115" y="-345" on="1"/>
        <pt x="-85" y="-363" on="0"/>
        <pt x="-56" y="-390" on="1"/>
        <pt x="0" y="-440" on="0"/>
        <pt x="0" y="-481" on="1"/>
        <pt x="0" y="-505" on="0"/>
        <pt x="-19" y="-526" on="1"/>
        <pt x="-41" y="-551" on="0"/>
        <pt x="-65" y="-551" on="1"/>
        <pt x="-95" y="-551" on="0"/>
        <pt x="-127" y="-509" on="1"/>
        <pt x="-134" y="-499" on="0"/>
        <pt x="-142" y="-491" on="1"/>
        <pt x="-161" y="-543" on="0"/>
        <pt x="-193" y="-592" on="1"/>
        <pt x="-248" y="-677" on="0"/>
        <pt x="-342" y="-753" on="1"/>
        <pt x="-401" y="-800" on="0"/>
        <pt x="-465" y="-800" on="1"/>
        <pt x="-528" y="-800" on="0"/>
        <pt x="-627" y="-593" on="1"/>
        <pt x="-804" y="-800" on="0"/>
        <pt x="-877" y="-800" on="1"/>
        <pt x="-949" y="-800" on="0"/>
        <pt x="-996" y="-723" on="1"/>
        <pt x="-1037" y="-654" on="0"/>
        <pt x="-1064" y="-590" on="1"/>
        <pt x="-1087" y="-534" on="0"/>
        <pt x="-1099" y="-481" on="1"/>
        <pt x="-1109" y="-432" on="0"/>
        <pt x="-1109" y="-386" on="1"/>
        <pt x="-1109" y="-348" on="0"/>
        <pt x="-1102" y="-312" on="1"/>
        <pt x="-1081" y="-217" on="0"/>
        <pt x="-1029" y="-158" on="1"/>
        <pt x="-977" y="-100" on="0"/>
        <pt x="-920" y="-100" on="1"/>
        <pt x="-820" y="-100" on="0"/>
        <pt x="-820" y="-200" on="1"/>
        <pt x="-820" y="-300" on="0"/>
        <pt x="-920" y="-300" on="1"/>
        <pt x="-932" y="-300" on="0"/>
        <pt x="-942" y="-298" on="1"/>
        <pt x="-951" y="-319" on="0"/>
        <pt x="-956" y="-341" on="1"/>
        <pt x="-960" y="-363" on="0"/>
        <pt x="-960" y="-387" on="1"/>
        <pt x="-960" y="-418" on="0"/>
        <pt x="-953" y="-452" on="1"/>
        <pt x="-944" y="-491" on="0"/>
        <pt x="-926" y="-536" on="1"/>
        <pt x="-903" y="-591" on="0"/>
        <pt x="-866" y="-655" on="1"/>
        <pt x="-634" y="-415" on="0"/>
        <pt x="-599" y="-415" on="1"/>
        <pt x="-564" y="-415" on="0"/>
        <pt x="-439" y="-650" on="1"/>
        <pt x="-363" y="-583" on="0"/>
        <pt x="-319" y="-514" on="1"/>
        <pt x="-294" y="-473" on="0"/>
      </contour>
      <contour>
        <pt x="-335" y="-294" on="1"/>
        <pt x="-316" y="-303" on="0"/>
        <pt x="-273" y="-306" on="1"/>
        <pt x="-276" y="-297" on="0"/>
        <pt x="-280" y="-290" on="1"/>
        <pt x="-300" y="-250" on="0"/>
        <pt x="-325" y="-250" on="1"/>
        <pt x="-349" y="-250" on="0"/>
        <pt x="-349" y="-276" on="1"/>
        <pt x="-349" y="-278" on="1"/>
        <pt x="-348" y="-288" on="0"/>
      </contour>
    </TTGlyph>
    <TTGlyph name="glyph209" xMin="-1133" yMin="-700" xMax="190" yMax="-100">
      <contour>
        <pt x="-1133" y="-300" on="0"/>
        <pt x="-1133" y="-265" on="1"/>
        <pt x="-1133" y="-230" on="0"/>
        <pt x="-1113" y="-209" on="1"/>
        <pt x="-1097" y="-192" on="0"/>
        <pt x="-1069" y="-192" on="1"/>
        <pt x="-1064" y="-192" on="0"/>
        <pt x="-1058" y="-193" on="1"/>
        <pt x="-1022" y="-197" on="0"/>
        <pt x="-972" y="-241" on="1"/>
        <pt x="-619" y="-550" on="0"/>
        <pt x="-293" y="-550" on="1"/>
        <pt x="-146" y="-550" on="0"/>
        <pt x="-62" y="-468" on="1"/>
        <pt x="22" y="-387" on="0"/>
        <pt x="34" y="-330" on="1"/>
        <pt x="41" y="-295" on="0"/>
        <pt x="41" y="-277" on="1"/>
        <pt x="41" y="-266" on="0"/>
        <pt x="38" y="-261" on="1"/>
        <pt x="31" y="-250" on="0"/>
        <pt x="7" y="-250" on="1"/>
        <pt x="7" y="-300" on="0"/>
        <pt x="-68" y="-300" on="1"/>
        <pt x="-143" y="-300" on="0"/>
        <pt x="-143" y="-230" on="1"/>
        <pt x="-143" y="-100" on="0"/>
        <pt x="7" y="-100" on="1"/>
        <pt x="112" y="-100" on="0"/>
        <pt x="159" y="-171" on="1"/>
        <pt x="190" y="-217" on="0"/>
        <pt x="190" y="-283" on="1"/>
        <pt x="190" y="-320" on="0"/>
        <pt x="180" y="-363" on="1"/>
        <pt x="154" y="-484" on="0"/>
        <pt x="31" y="-592" on="1"/>
        <pt x="-93" y="-700" on="0"/>
        <pt x="-293" y="-700" on="1"/>
        <pt x="-674" y="-700" on="0"/>
        <pt x="-1076" y="-350" on="1"/>
      </contour>
    </TTGlyph>
    <TTGlyph name="glyph210" xMin="-949" yMin="-800" xMax="0" yMax="-100">
      <contour>
        <pt x="-765" y="-560" on="1"/>
        <pt x="-789" y="-665" on="1"/>
        <pt x="-698" y="-644" on="0"/>
        <pt x="-691" y="-595" on="1"/>
        <pt x="-690" y="-591" on="0"/>
        <pt x="-690" y="-588" on="1"/>
        <pt x="-690" y="-557" on="0"/>
        <pt x="-735" y="-557" on="1"/>
        <pt x="-748" y="-557" on="0"/>
      </contour>
      <contour>
        <pt x="-885" y="-375" on="1"/>
        <pt x="-858" y="-247" on="0"/>
        <pt x="-763" y="-178" on="1"/>
        <pt x="-654" y="-100" on="0"/>
        <pt x="-456" y="-100" on="1"/>
        <pt x="-172" y="-100" on="0"/>
        <pt x="-66" y="-212" on="1"/>
        <pt x="0" y="-280" on="0"/>
        <pt x="0" y="-390" on="1"/>
        <pt x="0" y="-437" on="0"/>
        <pt x="-13" y="-493" on="1"/>
        <pt x="-62" y="-730" on="1"/>
        <pt x="-77" y="-800" on="0"/>
        <pt x="-153" y="-800" on="1"/>
        <pt x="-213" y="-800" on="0"/>
        <pt x="-213" y="-744" on="1"/>
        <pt x="-213" y="-728" on="0"/>
        <pt x="-209" y="-709" on="1"/>
        <pt x="-157" y="-462" on="1"/>
        <pt x="-152" y="-437" on="0"/>
        <pt x="-152" y="-415" on="1"/>
        <pt x="-152" y="-355" on="0"/>
        <pt x="-192" y="-316" on="1"/>
        <pt x="-263" y="-250" on="0"/>
        <pt x="-456" y="-250" on="1"/>
        <pt x="-594" y="-250" on="0"/>
        <pt x="-666" y="-298" on="1"/>
        <pt x="-724" y="-337" on="0"/>
        <pt x="-739" y="-409" on="1"/>
        <pt x="-744" y="-437" on="1"/>
        <pt x="-730" y="-436" on="0"/>
        <pt x="-718" y="-436" on="1"/>
        <pt x="-620" y="-436" on="0"/>
        <pt x="-586" y="-477" on="1"/>
        <pt x="-559" y="-510" on="0"/>
        <pt x="-559" y="-566" on="1"/>
        <pt x="-559" y="-589" on="0"/>
        <pt x="-564" y="-617" on="1"/>
        <pt x="-580" y="-711" on="0"/>
        <pt x="-691" y="-755" on="1"/>
        <pt x="-802" y="-800" on="0"/>
        <pt x="-888" y="-800" on="1"/>
        <pt x="-949" y="-800" on="0"/>
        <pt x="-949" y="-710" on="1"/>
        <pt x="-949" y="-674" on="0"/>
        <pt x="-939" y="-623" on="1"/>
      </contour>
    </TTGlyph>
    <TTGlyph name="glyph211" xMin="-956" yMin="-750" xMax="0" yMax="-106">
      <contour>
        <pt x="-846" y="-317" on="1"/>
        <pt x="-744" y="-250" on="0"/>
        <pt x="-548" y="-250" on="1"/>
        <pt x="-154" y="-250" on="1"/>
        <pt x="-154" y="-248" on="1"/>
        <pt x="-179" y="-242" on="0"/>
        <pt x="-187" y="-221" on="1"/>
        <pt x="-192" y="-209" on="0"/>
        <pt x="-192" y="-194" on="1"/>
        <pt x="-192" y="-180" on="0"/>
        <pt x="-188" y="-163" on="1"/>
        <pt x="-180" y="-127" on="0"/>
        <pt x="-152" y="-114" on="1"/>
        <pt x="-136" y="-106" on="0"/>
        <pt x="-114" y="-106" on="1"/>
        <pt x="-96" y="-106" on="0"/>
        <pt x="-75" y="-111" on="1"/>
        <pt x="-26" y="-121" on="0"/>
        <pt x="-9" y="-163" on="1"/>
        <pt x="0" y="-184" on="0"/>
        <pt x="0" y="-214" on="1"/>
        <pt x="0" y="-242" on="0"/>
        <pt x="-8" y="-278" on="1"/>
        <pt x="-93" y="-676" on="1"/>
        <pt x="-108" y="-750" on="0"/>
        <pt x="-188" y="-750" on="1"/>
        <pt x="-263" y="-750" on="0"/>
        <pt x="-309" y="-707" on="1"/>
        <pt x="-451" y="-573" on="1"/>
        <pt x="-476" y="-602" on="1"/>
        <pt x="-596" y="-750" on="0"/>
        <pt x="-718" y="-750" on="1"/>
        <pt x="-846" y="-750" on="0"/>
        <pt x="-905" y="-693" on="1"/>
        <pt x="-956" y="-644" on="0"/>
        <pt x="-956" y="-555" on="1"/>
        <pt x="-956" y="-514" on="0"/>
        <pt x="-946" y="-466" on="1"/>
        <pt x="-925" y="-370" on="0"/>
      </contour>
      <contour>
        <pt x="-794" y="-568" on="1"/>
        <pt x="-775" y="-600" on="0"/>
        <pt x="-718" y="-600" on="1"/>
        <pt x="-616" y="-600" on="0"/>
        <pt x="-551" y="-524" on="1"/>
        <pt x="-445" y="-413" on="1"/>
        <pt x="-232" y="-609" on="1"/>
        <pt x="-186" y="-400" on="1"/>
        <pt x="-548" y="-400" on="1"/>
        <pt x="-687" y="-400" on="0"/>
        <pt x="-750" y="-436" on="1"/>
        <pt x="-791" y="-460" on="0"/>
        <pt x="-800" y="-500" on="1"/>
        <pt x="-803" y="-516" on="0"/>
        <pt x="-803" y="-530" on="1"/>
        <pt x="-803" y="-552" on="0"/>
      </contour>
    </TTGlyph>
    <TTGlyph name="glyph212" xMin="-875" yMin="-879" xMax="0" yMax="-100">
      <contour>
        <pt x="-317" y="-425" on="1"/>
        <pt x="-154" y="-381" on="0"/>
        <pt x="-154" y="-360" on="1"/>
        <pt x="-154" y="-359" on="1"/>
        <pt x="-158" y="-339" on="0"/>
        <pt x="-181" y="-298" on="1"/>
        <pt x="-228" y="-237" on="0"/>
        <pt x="-258" y="-237" on="1"/>
        <pt x="-289" y="-237" on="0"/>
        <pt x="-464" y="-391" on="1"/>
        <pt x="-577" y="-237" on="0"/>
        <pt x="-618" y="-237" on="1"/>
        <pt x="-662" y="-241" on="0"/>
        <pt x="-704" y="-278" on="1"/>
        <pt x="-729" y="-300" on="0"/>
        <pt x="-729" y="-324" on="1"/>
        <pt x="-729" y="-341" on="0"/>
        <pt x="-716" y="-360" on="1"/>
        <pt x="-692" y="-393" on="0"/>
        <pt x="-692" y="-421" on="1"/>
        <pt x="-692" y="-430" on="0"/>
        <pt x="-694" y="-438" on="1"/>
        <pt x="-705" y="-473" on="0"/>
        <pt x="-762" y="-473" on="1"/>
        <pt x="-762" y="-474" on="0"/>
        <pt x="-763" y="-474" on="1"/>
        <pt x="-819" y="-474" on="0"/>
        <pt x="-864" y="-376" on="1"/>
        <pt x="-875" y="-351" on="0"/>
        <pt x="-875" y="-326" on="1"/>
        <pt x="-875" y="-251" on="0"/>
        <pt x="-776" y="-175" on="1"/>
        <pt x="-681" y="-100" on="0"/>
        <pt x="-618" y="-100" on="1"/>
        <pt x="-522" y="-100" on="0"/>
        <pt x="-439" y="-217" on="1"/>
        <pt x="-325" y="-100" on="0"/>
        <pt x="-250" y="-100" on="1"/>
        <pt x="-176" y="-100" on="0"/>
        <pt x="-92" y="-203" on="1"/>
        <pt x="0" y="-330" on="0"/>
        <pt x="0" y="-404" on="1"/>
        <pt x="0" y="-414" on="0"/>
        <pt x="-2" y="-424" on="1"/>
        <pt x="-23" y="-481" on="0"/>
        <pt x="-271" y="-547" on="1"/>
        <pt x="-587" y="-630" on="1"/>
        <pt x="-629" y="-643" on="0"/>
        <pt x="-629" y="-673" on="1"/>
        <pt x="-629" y="-682" on="0"/>
        <pt x="-626" y="-692" on="1"/>
        <pt x="-622" y="-709" on="0"/>
        <pt x="-601" y="-709" on="1"/>
        <pt x="-590" y="-709" on="0"/>
        <pt x="-576" y="-705" on="1"/>
        <pt x="-264" y="-602" on="1"/>
        <pt x="-229" y="-593" on="0"/>
        <pt x="-200" y="-593" on="1"/>
        <pt x="-167" y="-593" on="0"/>
        <pt x="-142" y="-605" on="1"/>
        <pt x="-116" y="-619" on="0"/>
        <pt x="-116" y="-653" on="1"/>
        <pt x="-116" y="-678" on="0"/>
        <pt x="-131" y="-716" on="1"/>
        <pt x="-167" y="-804" on="1"/>
        <pt x="-198" y="-879" on="0"/>
        <pt x="-244" y="-879" on="1"/>
        <pt x="-255" y="-879" on="0"/>
        <pt x="-267" y="-875" on="1"/>
        <pt x="-306" y="-862" on="0"/>
        <pt x="-306" y="-820" on="1"/>
        <pt x="-306" y="-796" on="0"/>
        <pt x="-293" y="-762" on="1"/>
        <pt x="-280" y="-723" on="1"/>
        <pt x="-539" y="-814" on="1"/>
        <pt x="-587" y="-828" on="0"/>
        <pt x="-625" y="-828" on="1"/>
        <pt x="-729" y="-828" on="0"/>
        <pt x="-762" y="-724" on="1"/>
        <pt x="-774" y="-687" on="0"/>
        <pt x="-774" y="-656" on="1"/>
        <pt x="-774" y="-550" on="0"/>
        <pt x="-627" y="-510" on="1"/>
        <pt x="-484" y="-470" on="1"/>
      </contour>
    </TTGlyph>
    <TTGlyph name="glyph213" xMin="-949" yMin="-800" xMax="0" yMax="-100">
      <contour>
        <pt x="-765" y="-560" on="1"/>
        <pt x="-789" y="-665" on="1"/>
        <pt x="-698" y="-644" on="0"/>
        <pt x="-691" y="-595" on="1"/>
        <pt x="-690" y="-591" on="0"/>
        <pt x="-690" y="-588" on="1"/>
        <pt x="-690" y="-557" on="0"/>
        <pt x="-735" y="-557" on="1"/>
        <pt x="-748" y="-557" on="0"/>
      </contour>
      <contour>
        <pt x="-885" y="-375" on="1"/>
        <pt x="-858" y="-247" on="0"/>
        <pt x="-763" y="-178" on="1"/>
        <pt x="-654" y="-100" on="0"/>
        <pt x="-456" y="-100" on="1"/>
        <pt x="-172" y="-100" on="0"/>
        <pt x="-66" y="-212" on="1"/>
        <pt x="0" y="-280" on="0"/>
        <pt x="0" y="-390" on="1"/>
        <pt x="0" y="-437" on="0"/>
        <pt x="-13" y="-493" on="1"/>
        <pt x="-62" y="-730" on="1"/>
        <pt x="-77" y="-800" on="0"/>
        <pt x="-153" y="-800" on="1"/>
        <pt x="-213" y="-800" on="0"/>
        <pt x="-213" y="-744" on="1"/>
        <pt x="-213" y="-728" on="0"/>
        <pt x="-209" y="-709" on="1"/>
        <pt x="-157" y="-462" on="1"/>
        <pt x="-152" y="-437" on="0"/>
        <pt x="-152" y="-415" on="1"/>
        <pt x="-152" y="-355" on="0"/>
        <pt x="-192" y="-316" on="1"/>
        <pt x="-263" y="-250" on="0"/>
        <pt x="-456" y="-250" on="1"/>
        <pt x="-594" y="-250" on="0"/>
        <pt x="-666" y="-298" on="1"/>
        <pt x="-724" y="-337" on="0"/>
        <pt x="-739" y="-409" on="1"/>
        <pt x="-744" y="-437" on="1"/>
        <pt x="-730" y="-436" on="0"/>
        <pt x="-718" y="-436" on="1"/>
        <pt x="-620" y="-436" on="0"/>
        <pt x="-586" y="-477" on="1"/>
        <pt x="-559" y="-510" on="0"/>
        <pt x="-559" y="-566" on="1"/>
        <pt x="-559" y="-589" on="0"/>
        <pt x="-564" y="-617" on="1"/>
        <pt x="-580" y="-711" on="0"/>
        <pt x="-691" y="-755" on="1"/>
        <pt x="-802" y="-800" on="0"/>
        <pt x="-888" y="-800" on="1"/>
        <pt x="-949" y="-800" on="0"/>
        <pt x="-949" y="-710" on="1"/>
        <pt x="-949" y="-674" on="0"/>
        <pt x="-939" y="-623" on="1"/>
      </contour>
    </TTGlyph>
    <TTGlyph name="glyph214" xMin="-964" yMin="-700" xMax="0" yMax="-100">
      <contour>
        <pt x="-683" y="-426" on="1"/>
        <pt x="-647" y="-353" on="0"/>
        <pt x="-588" y="-353" on="1"/>
        <pt x="-564" y="-353" on="0"/>
        <pt x="-536" y="-364" on="1"/>
        <pt x="-472" y="-393" on="0"/>
        <pt x="-472" y="-476" on="1"/>
        <pt x="-472" y="-515" on="0"/>
        <pt x="-486" y="-567" on="1"/>
        <pt x="-527" y="-700" on="0"/>
        <pt x="-695" y="-700" on="1"/>
        <pt x="-964" y="-700" on="0"/>
        <pt x="-964" y="-476" on="1"/>
        <pt x="-964" y="-428" on="0"/>
        <pt x="-952" y="-370" on="1"/>
        <pt x="-896" y="-100" on="0"/>
        <pt x="-475" y="-100" on="1"/>
        <pt x="-81" y="-100" on="0"/>
        <pt x="-8" y="-401" on="1"/>
        <pt x="0" y="-432" on="0"/>
        <pt x="0" y="-456" on="1"/>
        <pt x="0" y="-518" on="0"/>
        <pt x="-48" y="-534" on="1"/>
        <pt x="-60" y="-538" on="0"/>
        <pt x="-70" y="-538" on="1"/>
        <pt x="-119" y="-538" on="0"/>
        <pt x="-140" y="-459" on="1"/>
        <pt x="-199" y="-250" on="0"/>
        <pt x="-475" y="-250" on="1"/>
        <pt x="-775" y="-250" on="0"/>
        <pt x="-806" y="-400" on="1"/>
        <pt x="-812" y="-427" on="0"/>
        <pt x="-812" y="-450" on="1"/>
        <pt x="-812" y="-550" on="0"/>
        <pt x="-695" y="-550" on="1"/>
        <pt x="-641" y="-550" on="0"/>
        <pt x="-628" y="-520" on="1"/>
        <pt x="-621" y="-503" on="0"/>
        <pt x="-621" y="-488" on="1"/>
        <pt x="-621" y="-446" on="0"/>
      </contour>
    </TTGlyph>
    <TTGlyph name="glyph215" xMin="-759" yMin="-800" xMax="0" yMax="-100">
      <contour>
        <pt x="-297" y="-188" on="1"/>
        <pt x="-278" y="-100" on="0"/>
        <pt x="-201" y="-100" on="1"/>
        <pt x="-143" y="-100" on="0"/>
        <pt x="-143" y="-165" on="1"/>
        <pt x="-143" y="-184" on="0"/>
        <pt x="-148" y="-210" on="1"/>
        <pt x="-194" y="-422" on="0"/>
        <pt x="-590" y="-569" on="1"/>
        <pt x="-592" y="-579" on="0"/>
        <pt x="-592" y="-589" on="1"/>
        <pt x="-592" y="-650" on="0"/>
        <pt x="-509" y="-650" on="1"/>
        <pt x="-352" y="-650" on="0"/>
        <pt x="-148" y="-406" on="1"/>
        <pt x="-85" y="-331" on="0"/>
        <pt x="-53" y="-331" on="1"/>
        <pt x="-48" y="-331" on="1"/>
        <pt x="0" y="-341" on="0"/>
        <pt x="0" y="-406" on="1"/>
        <pt x="0" y="-427" on="0"/>
        <pt x="-6" y="-455" on="1"/>
        <pt x="-56" y="-703" on="1"/>
        <pt x="-79" y="-800" on="0"/>
        <pt x="-157" y="-800" on="1"/>
        <pt x="-218" y="-800" on="0"/>
        <pt x="-218" y="-739" on="1"/>
        <pt x="-218" y="-722" on="0"/>
        <pt x="-213" y="-700" on="1"/>
        <pt x="-192" y="-596" on="1"/>
        <pt x="-365" y="-800" on="0"/>
        <pt x="-509" y="-800" on="1"/>
        <pt x="-606" y="-800" on="0"/>
        <pt x="-691" y="-713" on="1"/>
        <pt x="-759" y="-643" on="0"/>
        <pt x="-759" y="-569" on="1"/>
        <pt x="-759" y="-551" on="0"/>
        <pt x="-756" y="-534" on="1"/>
        <pt x="-738" y="-463" on="0"/>
        <pt x="-687" y="-450" on="1"/>
        <pt x="-330" y="-348" on="0"/>
      </contour>
    </TTGlyph>
    <TTGlyph name="glyph216" xMin="-953" yMin="-800" xMax="0" yMax="-100">
      <contour>
        <pt x="-803" y="-557" on="1"/>
        <pt x="-803" y="-559" on="1"/>
        <pt x="-803" y="-650" on="0"/>
        <pt x="-630" y="-650" on="1"/>
        <pt x="-509" y="-650" on="0"/>
        <pt x="-509" y="-542" on="1"/>
        <pt x="-509" y="-515" on="0"/>
        <pt x="-517" y="-480" on="1"/>
        <pt x="-673" y="-546" on="0"/>
      </contour>
      <contour>
        <pt x="-157" y="-281" on="0"/>
        <pt x="-334" y="-410" on="0"/>
        <pt x="-425" y="-434" on="1"/>
        <pt x="-252" y="-509" on="1"/>
        <pt x="-242" y="-513" on="0"/>
        <pt x="-233" y="-513" on="1"/>
        <pt x="-194" y="-513" on="0"/>
        <pt x="-175" y="-447" on="1"/>
        <pt x="-152" y="-366" on="1"/>
        <pt x="-126" y="-271" on="0"/>
        <pt x="-126" y="-206" on="1"/>
        <pt x="-126" y="-178" on="0"/>
        <pt x="-131" y="-155" on="1"/>
        <pt x="0" y="-204" on="0"/>
        <pt x="0" y="-279" on="1"/>
        <pt x="0" y="-332" on="0"/>
        <pt x="-18" y="-404" on="1"/>
        <pt x="-45" y="-503" on="1"/>
        <pt x="-73" y="-607" on="0"/>
        <pt x="-156" y="-639" on="1"/>
        <pt x="-202" y="-659" on="0"/>
        <pt x="-239" y="-659" on="1"/>
        <pt x="-275" y="-659" on="0"/>
        <pt x="-303" y="-641" on="1"/>
        <pt x="-388" y="-587" on="1"/>
        <pt x="-397" y="-700" on="0"/>
        <pt x="-513" y="-800" on="0"/>
        <pt x="-630" y="-800" on="1"/>
        <pt x="-814" y="-800" on="0"/>
        <pt x="-953" y="-663" on="0"/>
        <pt x="-953" y="-560" on="1"/>
        <pt x="-953" y="-547" on="1"/>
        <pt x="-948" y="-466" on="0"/>
        <pt x="-888" y="-440" on="1"/>
        <pt x="-719" y="-412" on="0"/>
        <pt x="-392" y="-298" on="0"/>
        <pt x="-328" y="-241" on="1"/>
        <pt x="-297" y="-213" on="0"/>
        <pt x="-297" y="-190" on="1"/>
        <pt x="-297" y="-167" on="0"/>
        <pt x="-330" y="-149" on="1"/>
        <pt x="-327" y="-100" on="0"/>
        <pt x="-266" y="-100" on="1"/>
        <pt x="-206" y="-100" on="0"/>
        <pt x="-179" y="-128" on="1"/>
        <pt x="-143" y="-157" on="0"/>
        <pt x="-143" y="-199" on="1"/>
        <pt x="-143" y="-210" on="0"/>
        <pt x="-145" y="-222" on="1"/>
      </contour>
    </TTGlyph>
    <TTGlyph name="glyph217" xMin="-910" yMin="-800" xMax="390" yMax="-100">
      <contour>
        <pt x="-778" y="-700" on="0"/>
        <pt x="-844" y="-639" on="1"/>
        <pt x="-910" y="-578" on="0"/>
        <pt x="-910" y="-470" on="1"/>
        <pt x="-910" y="-362" on="0"/>
        <pt x="-843" y="-281" on="1"/>
        <pt x="-776" y="-200" on="0"/>
        <pt x="-626" y="-200" on="1"/>
        <pt x="-207" y="-200" on="1"/>
        <pt x="-184" y="-100" on="0"/>
        <pt x="-108" y="-100" on="1"/>
        <pt x="-49" y="-100" on="0"/>
        <pt x="-49" y="-160" on="1"/>
        <pt x="-49" y="-178" on="0"/>
        <pt x="-54" y="-200" on="1"/>
        <pt x="290" y="-200" on="1"/>
        <pt x="390" y="-200" on="0"/>
        <pt x="390" y="-275" on="1"/>
        <pt x="390" y="-350" on="0"/>
        <pt x="290" y="-350" on="1"/>
        <pt x="-84" y="-350" on="1"/>
        <pt x="-116" y="-500" on="1"/>
        <pt x="-66" y="-500" on="0"/>
        <pt x="-31" y="-536" on="1"/>
        <pt x="4" y="-572" on="0"/>
        <pt x="4" y="-655" on="1"/>
        <pt x="4" y="-738" on="0"/>
        <pt x="-42" y="-769" on="1"/>
        <pt x="-89" y="-800" on="0"/>
        <pt x="-151" y="-800" on="1"/>
        <pt x="-213" y="-800" on="0"/>
        <pt x="-251" y="-770" on="1"/>
        <pt x="-289" y="-740" on="0"/>
        <pt x="-304" y="-663" on="1"/>
        <pt x="-506" y="-700" on="0"/>
        <pt x="-610" y="-700" on="1"/>
      </contour>
      <contour>
        <pt x="-760" y="-489" on="0"/>
        <pt x="-730" y="-519" on="1"/>
        <pt x="-701" y="-550" on="0"/>
        <pt x="-610" y="-550" on="1"/>
        <pt x="-576" y="-550" on="0"/>
        <pt x="-270" y="-515" on="1"/>
        <pt x="-239" y="-350" on="1"/>
        <pt x="-626" y="-350" on="1"/>
        <pt x="-701" y="-350" on="0"/>
        <pt x="-730" y="-381" on="1"/>
        <pt x="-760" y="-412" on="0"/>
        <pt x="-760" y="-450" on="1"/>
      </contour>
    </TTGlyph>
    <TTGlyph name="glyph218" xMin="-1003" yMin="-800" xMax="0" yMax="-100">
      <contour>
        <pt x="-99" y="-700" on="1"/>
        <pt x="-120" y="-800" on="0"/>
        <pt x="-196" y="-800" on="1"/>
        <pt x="-273" y="-800" on="0"/>
        <pt x="-346" y="-737" on="1"/>
        <pt x="-517" y="-600" on="1"/>
        <pt x="-767" y="-737" on="1"/>
        <pt x="-867" y="-800" on="0"/>
        <pt x="-943" y="-800" on="1"/>
        <pt x="-1003" y="-800" on="0"/>
        <pt x="-1003" y="-738" on="1"/>
        <pt x="-1003" y="-721" on="0"/>
        <pt x="-999" y="-700" on="1"/>
        <pt x="-937" y="-418" on="1"/>
        <pt x="-928" y="-376" on="0"/>
        <pt x="-928" y="-343" on="1"/>
        <pt x="-928" y="-289" on="0"/>
        <pt x="-952" y="-260" on="1"/>
        <pt x="-977" y="-230" on="0"/>
        <pt x="-977" y="-195" on="1"/>
        <pt x="-977" y="-177" on="0"/>
        <pt x="-970" y="-157" on="1"/>
        <pt x="-950" y="-100" on="0"/>
        <pt x="-881" y="-100" on="1"/>
        <pt x="-812" y="-100" on="0"/>
        <pt x="-773" y="-142" on="1"/>
        <pt x="-748" y="-169" on="0"/>
        <pt x="-748" y="-221" on="1"/>
        <pt x="-748" y="-249" on="0"/>
        <pt x="-755" y="-284" on="1"/>
        <pt x="-822" y="-592" on="1"/>
        <pt x="-502" y="-415" on="1"/>
        <pt x="-238" y="-633" on="1"/>
        <pt x="-188" y="-400" on="1"/>
        <pt x="-185" y="-385" on="0"/>
        <pt x="-185" y="-372" on="1"/>
        <pt x="-185" y="-321" on="0"/>
        <pt x="-228" y="-292" on="1"/>
        <pt x="-266" y="-267" on="0"/>
        <pt x="-266" y="-222" on="1"/>
        <pt x="-266" y="-201" on="0"/>
        <pt x="-258" y="-177" on="1"/>
        <pt x="-233" y="-100" on="0"/>
        <pt x="-133" y="-100" on="1"/>
        <pt x="-71" y="-100" on="0"/>
        <pt x="-29" y="-138" on="1"/>
        <pt x="0" y="-163" on="0"/>
        <pt x="0" y="-214" on="1"/>
        <pt x="0" y="-239" on="0"/>
        <pt x="-7" y="-270" on="1"/>
      </contour>
    </TTGlyph>
    <TTGlyph name="glyph219" xMin="-1007" yMin="-800" xMax="0" yMax="-101">
      <contour>
        <pt x="-947" y="-374" on="1"/>
        <pt x="-922" y="-273" on="0"/>
        <pt x="-813" y="-183" on="1"/>
        <pt x="-714" y="-101" on="0"/>
        <pt x="-648" y="-101" on="1"/>
        <pt x="-548" y="-101" on="0"/>
        <pt x="-501" y="-184" on="1"/>
        <pt x="-461" y="-251" on="1"/>
        <pt x="-342" y="-101" on="0"/>
        <pt x="-264" y="-101" on="1"/>
        <pt x="-186" y="-101" on="0"/>
        <pt x="-98" y="-213" on="1"/>
        <pt x="-15" y="-325" on="0"/>
        <pt x="-2" y="-381" on="1"/>
        <pt x="0" y="-390" on="0"/>
        <pt x="0" y="-406" on="1"/>
        <pt x="0" y="-482" on="0"/>
        <pt x="-50" y="-700" on="1"/>
        <pt x="-72" y="-800" on="0"/>
        <pt x="-142" y="-800" on="1"/>
        <pt x="-212" y="-800" on="0"/>
        <pt x="-262" y="-765" on="1"/>
        <pt x="-300" y="-738" on="0"/>
        <pt x="-300" y="-705" on="1"/>
        <pt x="-300" y="-695" on="0"/>
        <pt x="-297" y="-685" on="1"/>
        <pt x="-282" y="-640" on="0"/>
        <pt x="-234" y="-627" on="1"/>
        <pt x="-186" y="-614" on="0"/>
        <pt x="-162" y="-503" on="1"/>
        <pt x="-157" y="-478" on="0"/>
        <pt x="-157" y="-453" on="1"/>
        <pt x="-157" y="-386" on="0"/>
        <pt x="-192" y="-317" on="1"/>
        <pt x="-241" y="-251" on="0"/>
        <pt x="-272" y="-251" on="1"/>
        <pt x="-304" y="-251" on="0"/>
        <pt x="-487" y="-441" on="1"/>
        <pt x="-605" y="-251" on="0"/>
        <pt x="-648" y="-251" on="1"/>
        <pt x="-694" y="-255" on="0"/>
        <pt x="-738" y="-295" on="1"/>
        <pt x="-783" y="-336" on="0"/>
        <pt x="-806" y="-428" on="1"/>
        <pt x="-811" y="-475" on="1"/>
        <pt x="-796" y="-474" on="0"/>
        <pt x="-782" y="-474" on="1"/>
        <pt x="-688" y="-474" on="0"/>
        <pt x="-659" y="-515" on="1"/>
        <pt x="-634" y="-549" on="0"/>
        <pt x="-634" y="-599" on="1"/>
        <pt x="-634" y="-616" on="0"/>
        <pt x="-637" y="-636" on="1"/>
        <pt x="-649" y="-711" on="0"/>
        <pt x="-754" y="-755" on="1"/>
        <pt x="-860" y="-800" on="0"/>
        <pt x="-946" y="-800" on="1"/>
        <pt x="-1007" y="-800" on="0"/>
        <pt x="-1007" y="-710" on="1"/>
        <pt x="-1007" y="-674" on="0"/>
        <pt x="-997" y="-623" on="1"/>
      </contour>
      <contour>
        <pt x="-831" y="-597" on="1"/>
        <pt x="-847" y="-665" on="1"/>
        <pt x="-767" y="-644" on="0"/>
        <pt x="-764" y="-614" on="1"/>
        <pt x="-764" y="-612" on="1"/>
        <pt x="-764" y="-593" on="0"/>
        <pt x="-795" y="-593" on="1"/>
        <pt x="-810" y="-593" on="0"/>
      </contour>
    </TTGlyph>
    <TTGlyph name="glyph220" xMin="-1076" yMin="-800" xMax="0" yMax="-100">
      <contour>
        <pt x="-894" y="-417" on="1"/>
        <pt x="-885" y="-375" on="1"/>
        <pt x="-858" y="-247" on="0"/>
        <pt x="-763" y="-178" on="1"/>
        <pt x="-654" y="-100" on="0"/>
        <pt x="-456" y="-100" on="1"/>
        <pt x="-172" y="-100" on="0"/>
        <pt x="-66" y="-212" on="1"/>
        <pt x="0" y="-280" on="0"/>
        <pt x="0" y="-390" on="1"/>
        <pt x="0" y="-437" on="0"/>
        <pt x="-13" y="-493" on="1"/>
        <pt x="-62" y="-730" on="1"/>
        <pt x="-77" y="-800" on="0"/>
        <pt x="-153" y="-800" on="1"/>
        <pt x="-213" y="-800" on="0"/>
        <pt x="-213" y="-744" on="1"/>
        <pt x="-213" y="-728" on="0"/>
        <pt x="-209" y="-709" on="1"/>
        <pt x="-157" y="-462" on="1"/>
        <pt x="-152" y="-437" on="0"/>
        <pt x="-152" y="-415" on="1"/>
        <pt x="-152" y="-355" on="0"/>
        <pt x="-192" y="-316" on="1"/>
        <pt x="-263" y="-250" on="0"/>
        <pt x="-456" y="-250" on="1"/>
        <pt x="-594" y="-250" on="0"/>
        <pt x="-666" y="-298" on="1"/>
        <pt x="-724" y="-337" on="0"/>
        <pt x="-739" y="-409" on="1"/>
        <pt x="-807" y="-730" on="1"/>
        <pt x="-823" y="-800" on="0"/>
        <pt x="-906" y="-800" on="1"/>
        <pt x="-977" y="-800" on="0"/>
        <pt x="-1026" y="-710" on="1"/>
        <pt x="-1076" y="-620" on="0"/>
        <pt x="-1076" y="-543" on="1"/>
        <pt x="-1076" y="-501" on="0"/>
        <pt x="-1058" y="-450" on="1"/>
        <pt x="-1045" y="-413" on="0"/>
        <pt x="-960" y="-413" on="1"/>
        <pt x="-931" y="-413" on="0"/>
      </contour>
    </TTGlyph>
    <TTGlyph name="glyph221" xMin="-1170" yMin="-700" xMax="198" yMax="-100">
      <contour>
        <pt x="22" y="-460" on="1"/>
        <pt x="9" y="-450" on="0"/>
        <pt x="-20" y="-450" on="1"/>
        <pt x="-70" y="-450" on="1"/>
        <pt x="-76" y="-477" on="1"/>
        <pt x="-80" y="-495" on="0"/>
        <pt x="-80" y="-508" on="1"/>
        <pt x="-80" y="-523" on="0"/>
        <pt x="-75" y="-532" on="1"/>
        <pt x="-66" y="-550" on="0"/>
        <pt x="-40" y="-550" on="1"/>
        <pt x="22" y="-550" on="0"/>
        <pt x="31" y="-498" on="1"/>
        <pt x="32" y="-491" on="0"/>
        <pt x="32" y="-485" on="1"/>
        <pt x="32" y="-469" on="0"/>
      </contour>
      <contour>
        <pt x="-206" y="-638" on="1"/>
        <pt x="-235" y="-600" on="0"/>
        <pt x="-235" y="-538" on="1"/>
        <pt x="-235" y="-499" on="0"/>
        <pt x="-223" y="-450" on="1"/>
        <pt x="-297" y="-450" on="0"/>
        <pt x="-706" y="-490" on="0"/>
        <pt x="-870" y="-490" on="1"/>
        <pt x="-1038" y="-490" on="0"/>
        <pt x="-1104" y="-429" on="1"/>
        <pt x="-1170" y="-368" on="0"/>
        <pt x="-1170" y="-309" on="1"/>
        <pt x="-1170" y="-250" on="0"/>
        <pt x="-1105" y="-250" on="1"/>
        <pt x="-1040" y="-250" on="0"/>
        <pt x="-1000" y="-295" on="1"/>
        <pt x="-961" y="-340" on="0"/>
        <pt x="-870" y="-340" on="1"/>
        <pt x="-706" y="-340" on="0"/>
        <pt x="-280" y="-300" on="0"/>
        <pt x="-188" y="-300" on="1"/>
        <pt x="-182" y="-274" on="1"/>
        <pt x="-160" y="-155" on="1"/>
        <pt x="-147" y="-100" on="0"/>
        <pt x="-71" y="-100" on="1"/>
        <pt x="-10" y="-100" on="0"/>
        <pt x="-10" y="-164" on="1"/>
        <pt x="-10" y="-180" on="0"/>
        <pt x="-14" y="-200" on="1"/>
        <pt x="-36" y="-300" on="1"/>
        <pt x="-20" y="-300" on="1"/>
        <pt x="102" y="-300" on="0"/>
        <pt x="156" y="-355" on="1"/>
        <pt x="198" y="-398" on="0"/>
        <pt x="198" y="-475" on="1"/>
        <pt x="198" y="-498" on="0"/>
        <pt x="194" y="-525" on="1"/>
        <pt x="169" y="-700" on="0"/>
        <pt x="-40" y="-700" on="1"/>
        <pt x="-160" y="-700" on="0"/>
      </contour>
    </TTGlyph>
    <TTGlyph name="glyph222" xMin="-967" yMin="-800" xMax="0" yMax="-50">
      <contour>
        <pt x="-429" y="-577" on="1"/>
        <pt x="-383" y="-577" on="0"/>
        <pt x="-383" y="-607" on="1"/>
        <pt x="-383" y="-634" on="0"/>
        <pt x="-423" y="-688" on="1"/>
        <pt x="-505" y="-800" on="0"/>
        <pt x="-667" y="-800" on="1"/>
        <pt x="-967" y="-800" on="0"/>
        <pt x="-967" y="-559" on="1"/>
        <pt x="-967" y="-329" on="0"/>
        <pt x="-632" y="-306" on="1"/>
        <pt x="-620" y="-305" on="0"/>
        <pt x="-607" y="-305" on="1"/>
        <pt x="-529" y="-305" on="0"/>
        <pt x="-434" y="-352" on="1"/>
        <pt x="-318" y="-349" on="0"/>
        <pt x="-145" y="-216" on="0"/>
        <pt x="-145" y="-136" on="1"/>
        <pt x="-145" y="-50" on="0"/>
        <pt x="-72" y="-50" on="1"/>
        <pt x="0" y="-50" on="0"/>
        <pt x="0" y="-136" on="1"/>
        <pt x="0" y="-256" on="0"/>
        <pt x="-103" y="-347" on="1"/>
        <pt x="-206" y="-437" on="0"/>
        <pt x="-303" y="-477" on="1"/>
        <pt x="-353" y="-497" on="0"/>
        <pt x="-399" y="-497" on="1"/>
        <pt x="-442" y="-497" on="0"/>
        <pt x="-481" y="-480" on="1"/>
        <pt x="-546" y="-451" on="0"/>
        <pt x="-604" y="-451" on="1"/>
        <pt x="-618" y="-451" on="0"/>
        <pt x="-632" y="-453" on="1"/>
        <pt x="-817" y="-464" on="0"/>
        <pt x="-817" y="-559" on="1"/>
        <pt x="-817" y="-650" on="0"/>
        <pt x="-667" y="-650" on="1"/>
        <pt x="-574" y="-650" on="0"/>
      </contour>
    </TTGlyph>
    <TTGlyph name="glyph223" xMin="-803" yMin="-800" xMax="0" yMax="-76">
      <contour>
        <pt x="0" y="-103" on="0"/>
        <pt x="0" y="-137" on="1"/>
        <pt x="0" y="-200" on="0"/>
        <pt x="-69" y="-335" on="1"/>
        <pt x="-312" y="-800" on="0"/>
        <pt x="-519" y="-800" on="1"/>
        <pt x="-687" y="-800" on="0"/>
        <pt x="-769" y="-666" on="1"/>
        <pt x="-803" y="-599" on="0"/>
        <pt x="-803" y="-537" on="1"/>
        <pt x="-803" y="-508" on="0"/>
        <pt x="-795" y="-480" on="1"/>
        <pt x="-772" y="-393" on="0"/>
        <pt x="-648" y="-354" on="1"/>
        <pt x="-455" y="-287" on="0"/>
        <pt x="-268" y="-170" on="1"/>
        <pt x="-174" y="-112" on="1"/>
        <pt x="-116" y="-76" on="0"/>
        <pt x="-71" y="-76" on="1"/>
        <pt x="-43" y="-76" on="0"/>
        <pt x="-21" y="-90" on="1"/>
      </contour>
      <contour>
        <pt x="-179" y="-277" on="1"/>
        <pt x="-398" y="-415" on="0"/>
        <pt x="-610" y="-477" on="1"/>
        <pt x="-665" y="-491" on="0"/>
        <pt x="-665" y="-531" on="1"/>
        <pt x="-665" y="-549" on="0"/>
        <pt x="-652" y="-574" on="1"/>
        <pt x="-613" y="-650" on="0"/>
        <pt x="-519" y="-650" on="1"/>
        <pt x="-412" y="-650" on="0"/>
      </contour>
    </TTGlyph>
    <TTGlyph name="glyph224" xMin="-1206" yMin="-800" xMax="0" yMax="-98">
      <contour>
        <pt x="-1045" y="-98" on="1"/>
        <pt x="-988" y="-98" on="0"/>
        <pt x="-988" y="-150" on="1"/>
        <pt x="-988" y="-166" on="0"/>
        <pt x="-993" y="-185" on="1"/>
        <pt x="-1053" y="-449" on="1"/>
        <pt x="-1062" y="-486" on="0"/>
        <pt x="-1062" y="-517" on="1"/>
        <pt x="-1062" y="-577" on="0"/>
        <pt x="-1029" y="-613" on="1"/>
        <pt x="-981" y="-668" on="0"/>
        <pt x="-890" y="-668" on="1"/>
        <pt x="-805" y="-668" on="0"/>
        <pt x="-697" y="-569" on="0"/>
        <pt x="-674" y="-470" on="1"/>
        <pt x="-648" y="-356" on="1"/>
        <pt x="-617" y="-225" on="0"/>
        <pt x="-441" y="-98" on="0"/>
        <pt x="-314" y="-98" on="1"/>
        <pt x="-217" y="-98" on="0"/>
        <pt x="-108" y="-163" on="0"/>
        <pt x="-24" y="-262" on="0"/>
        <pt x="-7" y="-348" on="1"/>
        <pt x="0" y="-381" on="0"/>
        <pt x="0" y="-418" on="1"/>
        <pt x="0" y="-476" on="0"/>
        <pt x="-16" y="-545" on="1"/>
        <pt x="-53" y="-712" on="1"/>
        <pt x="-74" y="-800" on="0"/>
        <pt x="-141" y="-800" on="1"/>
        <pt x="-207" y="-800" on="0"/>
        <pt x="-255" y="-769" on="1"/>
        <pt x="-292" y="-745" on="0"/>
        <pt x="-292" y="-717" on="1"/>
        <pt x="-292" y="-708" on="0"/>
        <pt x="-288" y="-699" on="1"/>
        <pt x="-274" y="-659" on="0"/>
        <pt x="-228" y="-648" on="1"/>
        <pt x="-183" y="-636" on="0"/>
        <pt x="-160" y="-537" on="1"/>
        <pt x="-145" y="-468" on="0"/>
        <pt x="-145" y="-421" on="1"/>
        <pt x="-145" y="-400" on="0"/>
        <pt x="-148" y="-383" on="1"/>
        <pt x="-156" y="-327" on="0"/>
        <pt x="-227" y="-229" on="0"/>
        <pt x="-314" y="-229" on="1"/>
        <pt x="-397" y="-229" on="0"/>
        <pt x="-491" y="-306" on="0"/>
        <pt x="-506" y="-375" on="1"/>
        <pt x="-535" y="-492" on="1"/>
        <pt x="-570" y="-646" on="0"/>
        <pt x="-757" y="-800" on="0"/>
        <pt x="-890" y="-800" on="1"/>
        <pt x="-1033" y="-800" on="0"/>
        <pt x="-1134" y="-703" on="1"/>
        <pt x="-1206" y="-633" on="0"/>
        <pt x="-1206" y="-523" on="1"/>
        <pt x="-1206" y="-478" on="0"/>
        <pt x="-1195" y="-427" on="1"/>
        <pt x="-1137" y="-180" on="1"/>
        <pt x="-1118" y="-98" on="0"/>
      </contour>
    </TTGlyph>
    <TTGlyph name="glyph225" xMin="-1103" yMin="-800" xMax="0" yMax="-92">
      <contour>
        <pt x="-827" y="-528" on="1"/>
        <pt x="-863" y="-694" on="1"/>
        <pt x="-886" y="-800" on="0"/>
        <pt x="-944" y="-800" on="1"/>
        <pt x="-1002" y="-800" on="0"/>
        <pt x="-1058" y="-738" on="1"/>
        <pt x="-1103" y="-688" on="0"/>
        <pt x="-1103" y="-637" on="1"/>
        <pt x="-1103" y="-626" on="0"/>
        <pt x="-1101" y="-614" on="1"/>
        <pt x="-1091" y="-568" on="0"/>
        <pt x="-1035" y="-568" on="1"/>
        <pt x="-1016" y="-568" on="0"/>
        <pt x="-991" y="-573" on="1"/>
        <pt x="-949" y="-377" on="1"/>
        <pt x="-1037" y="-307" on="1"/>
        <pt x="-934" y="-236" on="0"/>
        <pt x="-848" y="-92" on="1"/>
        <pt x="-757" y="-232" on="0"/>
        <pt x="-631" y="-233" on="1"/>
        <pt x="-687" y="-294" on="0"/>
        <pt x="-754" y="-294" on="1"/>
        <pt x="-805" y="-294" on="0"/>
        <pt x="-863" y="-259" on="1"/>
        <pt x="-894" y="-294" on="1"/>
        <pt x="-803" y="-348" on="0"/>
        <pt x="-803" y="-405" on="1"/>
        <pt x="-803" y="-412" on="0"/>
        <pt x="-804" y="-419" on="1"/>
        <pt x="-804" y="-420" on="1"/>
        <pt x="-268" y="-420" on="1"/>
        <pt x="-259" y="-377" on="1"/>
        <pt x="-346" y="-307" on="1"/>
        <pt x="-244" y="-236" on="0"/>
        <pt x="-158" y="-92" on="1"/>
        <pt x="-106" y="-206" on="0"/>
        <pt x="0" y="-233" on="1"/>
        <pt x="-46" y="-286" on="0"/>
        <pt x="-97" y="-286" on="1"/>
        <pt x="-134" y="-286" on="0"/>
        <pt x="-173" y="-259" on="1"/>
        <pt x="-203" y="-294" on="1"/>
        <pt x="-113" y="-348" on="0"/>
        <pt x="-113" y="-405" on="1"/>
        <pt x="-113" y="-412" on="0"/>
        <pt x="-114" y="-419" on="1"/>
        <pt x="-173" y="-694" on="1"/>
        <pt x="-196" y="-800" on="0"/>
        <pt x="-253" y="-800" on="1"/>
        <pt x="-311" y="-800" on="0"/>
        <pt x="-356" y="-759" on="1"/>
        <pt x="-394" y="-725" on="0"/>
        <pt x="-394" y="-676" on="1"/>
        <pt x="-394" y="-666" on="0"/>
        <pt x="-392" y="-656" on="1"/>
        <pt x="-384" y="-594" on="0"/>
        <pt x="-301" y="-573" on="1"/>
        <pt x="-291" y="-528" on="1"/>
      </contour>
    </TTGlyph>
    <TTGlyph name="glyph226" xMin="-2000" yMin="-800" xMax="-1040" yMax="-100">
      <contour>
        <pt x="-1106" y="-212" on="1"/>
        <pt x="-1040" y="-280" on="0"/>
        <pt x="-1040" y="-390" on="1"/>
        <pt x="-1040" y="-437" on="0"/>
        <pt x="-1053" y="-493" on="1"/>
        <pt x="-1102" y="-730" on="1"/>
        <pt x="-1117" y="-800" on="0"/>
        <pt x="-1193" y="-800" on="1"/>
        <pt x="-1253" y="-800" on="0"/>
        <pt x="-1253" y="-744" on="1"/>
        <pt x="-1253" y="-728" on="0"/>
        <pt x="-1249" y="-709" on="1"/>
        <pt x="-1197" y="-462" on="1"/>
        <pt x="-1192" y="-437" on="0"/>
        <pt x="-1192" y="-415" on="1"/>
        <pt x="-1192" y="-355" on="0"/>
        <pt x="-1232" y="-316" on="1"/>
        <pt x="-1303" y="-250" on="0"/>
        <pt x="-1496" y="-250" on="1"/>
        <pt x="-1634" y="-250" on="0"/>
        <pt x="-1706" y="-298" on="1"/>
        <pt x="-1764" y="-337" on="0"/>
        <pt x="-1779" y="-409" on="1"/>
        <pt x="-1847" y="-730" on="1"/>
        <pt x="-1863" y="-800" on="0"/>
        <pt x="-1940" y="-800" on="1"/>
        <pt x="-2000" y="-800" on="0"/>
        <pt x="-2000" y="-740" on="1"/>
        <pt x="-2000" y="-724" on="0"/>
        <pt x="-1996" y="-704" on="1"/>
        <pt x="-1925" y="-375" on="1"/>
        <pt x="-1898" y="-247" on="0"/>
        <pt x="-1803" y="-178" on="1"/>
        <pt x="-1694" y="-100" on="0"/>
        <pt x="-1496" y="-100" on="1"/>
        <pt x="-1212" y="-100" on="0"/>
      </contour>
    </TTGlyph>
    <TTGlyph name="glyph227" xMin="-2000" yMin="-800" xMax="-1105" yMax="-100">
      <contour>
        <pt x="-1163" y="-183" on="1"/>
        <pt x="-1105" y="-231" on="0"/>
        <pt x="-1105" y="-308" on="1"/>
        <pt x="-1105" y="-332" on="0"/>
        <pt x="-1111" y="-360" on="1"/>
        <pt x="-1129" y="-462" on="0"/>
        <pt x="-1490" y="-537" on="1"/>
        <pt x="-1850" y="-612" on="1"/>
        <pt x="-1836" y="-650" on="0"/>
        <pt x="-1634" y="-650" on="1"/>
        <pt x="-1495" y="-650" on="0"/>
        <pt x="-1228" y="-527" on="1"/>
        <pt x="-1195" y="-512" on="0"/>
        <pt x="-1176" y="-512" on="1"/>
        <pt x="-1150" y="-512" on="0"/>
        <pt x="-1150" y="-541" on="1"/>
        <pt x="-1150" y="-548" on="0"/>
        <pt x="-1151" y="-556" on="1"/>
        <pt x="-1164" y="-625" on="0"/>
        <pt x="-1312" y="-712" on="1"/>
        <pt x="-1460" y="-800" on="0"/>
        <pt x="-1634" y="-800" on="1"/>
        <pt x="-1926" y="-800" on="0"/>
        <pt x="-1984" y="-665" on="1"/>
        <pt x="-1997" y="-633" on="0"/>
        <pt x="-1997" y="-607" on="1"/>
        <pt x="-1997" y="-576" on="0"/>
        <pt x="-1979" y="-552" on="1"/>
        <pt x="-1945" y="-506" on="0"/>
        <pt x="-1847" y="-483" on="1"/>
        <pt x="-1556" y="-430" on="1"/>
        <pt x="-1264" y="-377" on="0"/>
        <pt x="-1258" y="-337" on="1"/>
        <pt x="-1257" y="-330" on="0"/>
        <pt x="-1257" y="-324" on="1"/>
        <pt x="-1257" y="-294" on="0"/>
        <pt x="-1285" y="-280" on="1"/>
        <pt x="-1346" y="-250" on="0"/>
        <pt x="-1534" y="-250" on="1"/>
        <pt x="-1725" y="-250" on="0"/>
        <pt x="-1800" y="-279" on="1"/>
        <pt x="-1843" y="-295" on="0"/>
        <pt x="-1850" y="-321" on="1"/>
        <pt x="-1851" y="-325" on="0"/>
        <pt x="-1851" y="-328" on="1"/>
        <pt x="-1851" y="-349" on="0"/>
        <pt x="-1823" y="-349" on="1"/>
        <pt x="-1798" y="-349" on="0"/>
        <pt x="-1798" y="-370" on="1"/>
        <pt x="-1798" y="-376" on="0"/>
        <pt x="-1800" y="-384" on="1"/>
        <pt x="-1809" y="-419" on="0"/>
        <pt x="-1861" y="-434" on="1"/>
        <pt x="-1876" y="-438" on="0"/>
        <pt x="-1890" y="-438" on="1"/>
        <pt x="-1928" y="-438" on="0"/>
        <pt x="-1963" y="-410" on="1"/>
        <pt x="-2000" y="-381" on="0"/>
        <pt x="-2000" y="-330" on="1"/>
        <pt x="-2000" y="-314" on="0"/>
        <pt x="-1997" y="-296" on="1"/>
        <pt x="-1978" y="-214" on="0"/>
        <pt x="-1896" y="-167" on="1"/>
        <pt x="-1779" y="-100" on="0"/>
        <pt x="-1534" y="-100" on="1"/>
        <pt x="-1262" y="-100" on="0"/>
      </contour>
    </TTGlyph>
    <TTGlyph name="glyph228" xMin="-2000" yMin="-800" xMax="-1040" yMax="-100">
      <contour>
        <pt x="-1846" y="-728" on="1"/>
        <pt x="-1847" y="-730" on="1"/>
        <pt x="-1863" y="-800" on="0"/>
        <pt x="-1940" y="-800" on="1"/>
        <pt x="-2000" y="-800" on="0"/>
        <pt x="-2000" y="-740" on="1"/>
        <pt x="-2000" y="-724" on="0"/>
        <pt x="-1996" y="-704" on="1"/>
        <pt x="-1925" y="-375" on="1"/>
        <pt x="-1898" y="-247" on="0"/>
        <pt x="-1803" y="-178" on="1"/>
        <pt x="-1694" y="-100" on="0"/>
        <pt x="-1496" y="-100" on="1"/>
        <pt x="-1212" y="-100" on="0"/>
        <pt x="-1106" y="-212" on="1"/>
        <pt x="-1040" y="-280" on="0"/>
        <pt x="-1040" y="-390" on="1"/>
        <pt x="-1040" y="-437" on="0"/>
        <pt x="-1053" y="-493" on="1"/>
        <pt x="-1102" y="-730" on="1"/>
        <pt x="-1117" y="-800" on="0"/>
        <pt x="-1193" y="-800" on="1"/>
        <pt x="-1253" y="-800" on="0"/>
        <pt x="-1253" y="-744" on="1"/>
        <pt x="-1253" y="-728" on="0"/>
        <pt x="-1249" y="-709" on="1"/>
        <pt x="-1197" y="-462" on="1"/>
        <pt x="-1192" y="-437" on="0"/>
        <pt x="-1192" y="-415" on="1"/>
        <pt x="-1192" y="-355" on="0"/>
        <pt x="-1232" y="-316" on="1"/>
        <pt x="-1303" y="-250" on="0"/>
        <pt x="-1496" y="-250" on="1"/>
        <pt x="-1634" y="-250" on="0"/>
        <pt x="-1706" y="-298" on="1"/>
        <pt x="-1764" y="-337" on="0"/>
        <pt x="-1779" y="-409" on="1"/>
        <pt x="-1809" y="-554" on="1"/>
        <pt x="-1696" y="-450" on="0"/>
        <pt x="-1639" y="-450" on="1"/>
        <pt x="-1542" y="-450" on="0"/>
        <pt x="-1480" y="-504" on="1"/>
        <pt x="-1446" y="-534" on="0"/>
        <pt x="-1446" y="-565" on="1"/>
        <pt x="-1446" y="-590" on="0"/>
        <pt x="-1468" y="-615" on="1"/>
        <pt x="-1499" y="-650" on="0"/>
        <pt x="-1528" y="-650" on="1"/>
        <pt x="-1546" y="-650" on="0"/>
        <pt x="-1563" y="-636" on="1"/>
        <pt x="-1607" y="-600" on="0"/>
        <pt x="-1639" y="-600" on="1"/>
        <pt x="-1686" y="-600" on="0"/>
        <pt x="-1785" y="-679" on="1"/>
      </contour>
    </TTGlyph>
    <TTGlyph name="glyph229" xMin="-2000" yMin="-800" xMax="-1058" yMax="-100">
      <contour>
        <pt x="-1761" y="-418" on="1"/>
        <pt x="-1759" y="-406" on="0"/>
        <pt x="-1759" y="-397" on="1"/>
        <pt x="-1759" y="-371" on="0"/>
        <pt x="-1778" y="-371" on="1"/>
        <pt x="-1805" y="-371" on="0"/>
        <pt x="-1827" y="-412" on="1"/>
        <pt x="-1850" y="-453" on="0"/>
        <pt x="-1850" y="-520" on="1"/>
        <pt x="-1850" y="-588" on="0"/>
        <pt x="-1790" y="-619" on="1"/>
        <pt x="-1731" y="-650" on="0"/>
        <pt x="-1620" y="-650" on="1"/>
        <pt x="-1482" y="-650" on="0"/>
        <pt x="-1395" y="-549" on="1"/>
        <pt x="-1309" y="-448" on="0"/>
        <pt x="-1272" y="-371" on="1"/>
        <pt x="-1236" y="-294" on="0"/>
        <pt x="-1213" y="-183" on="1"/>
        <pt x="-1194" y="-100" on="0"/>
        <pt x="-1119" y="-100" on="1"/>
        <pt x="-1058" y="-100" on="0"/>
        <pt x="-1058" y="-166" on="1"/>
        <pt x="-1058" y="-185" on="0"/>
        <pt x="-1064" y="-211" on="1"/>
        <pt x="-1090" y="-332" on="0"/>
        <pt x="-1143" y="-448" on="1"/>
        <pt x="-1197" y="-565" on="0"/>
        <pt x="-1309" y="-682" on="1"/>
        <pt x="-1421" y="-800" on="0"/>
        <pt x="-1620" y="-800" on="1"/>
        <pt x="-1760" y="-800" on="0"/>
        <pt x="-1880" y="-735" on="1"/>
        <pt x="-2000" y="-670" on="0"/>
        <pt x="-2000" y="-520" on="1"/>
        <pt x="-2000" y="-410" on="0"/>
        <pt x="-1933" y="-315" on="1"/>
        <pt x="-1867" y="-221" on="0"/>
        <pt x="-1772" y="-221" on="1"/>
        <pt x="-1603" y="-221" on="0"/>
        <pt x="-1603" y="-342" on="1"/>
        <pt x="-1603" y="-357" on="0"/>
        <pt x="-1605" y="-373" on="1"/>
        <pt x="-1620" y="-465" on="0"/>
        <pt x="-1695" y="-465" on="1"/>
        <pt x="-1762" y="-465" on="0"/>
        <pt x="-1762" y="-428" on="1"/>
        <pt x="-1762" y="-423" on="0"/>
      </contour>
    </TTGlyph>
    <TTGlyph name="glyph230" xMin="-2000" yMin="-800" xMax="-1036" yMax="-100">
      <contour>
        <pt x="-1693" y="-182" on="1"/>
        <pt x="-1693" y="-100" on="0"/>
        <pt x="-1614" y="-100" on="1"/>
        <pt x="-1543" y="-100" on="0"/>
        <pt x="-1543" y="-182" on="1"/>
        <pt x="-1543" y="-279" on="0"/>
        <pt x="-1587" y="-361" on="1"/>
        <pt x="-1631" y="-444" on="0"/>
        <pt x="-1689" y="-494" on="1"/>
        <pt x="-1747" y="-544" on="0"/>
        <pt x="-1853" y="-600" on="1"/>
        <pt x="-1853" y="-650" on="0"/>
        <pt x="-1686" y="-650" on="1"/>
        <pt x="-1486" y="-650" on="0"/>
        <pt x="-1381" y="-521" on="1"/>
        <pt x="-1472" y="-487" on="0"/>
        <pt x="-1472" y="-412" on="1"/>
        <pt x="-1472" y="-405" on="0"/>
        <pt x="-1471" y="-399" on="1"/>
        <pt x="-1463" y="-314" on="0"/>
        <pt x="-1421" y="-267" on="1"/>
        <pt x="-1379" y="-220" on="0"/>
        <pt x="-1296" y="-220" on="1"/>
        <pt x="-1223" y="-220" on="0"/>
        <pt x="-1151" y="-314" on="0"/>
        <pt x="-1151" y="-390" on="1"/>
        <pt x="-1151" y="-409" on="0"/>
        <pt x="-1169" y="-439" on="1"/>
        <pt x="-1036" y="-454" on="0"/>
        <pt x="-1036" y="-528" on="1"/>
        <pt x="-1036" y="-532" on="0"/>
        <pt x="-1037" y="-537" on="1"/>
        <pt x="-1045" y="-619" on="0"/>
        <pt x="-1090" y="-624" on="1"/>
        <pt x="-1096" y="-625" on="0"/>
        <pt x="-1101" y="-625" on="1"/>
        <pt x="-1132" y="-625" on="0"/>
        <pt x="-1132" y="-597" on="1"/>
        <pt x="-1132" y="-594" on="0"/>
        <pt x="-1131" y="-590" on="1"/>
        <pt x="-1131" y="-587" on="1"/>
        <pt x="-1131" y="-550" on="0"/>
        <pt x="-1239" y="-537" on="1"/>
        <pt x="-1254" y="-556" on="0"/>
        <pt x="-1288" y="-597" on="0"/>
        <pt x="-1307" y="-619" on="1"/>
        <pt x="-1385" y="-709" on="0"/>
        <pt x="-1480" y="-754" on="1"/>
        <pt x="-1574" y="-800" on="0"/>
        <pt x="-1686" y="-800" on="1"/>
        <pt x="-1853" y="-800" on="0"/>
        <pt x="-2000" y="-700" on="0"/>
        <pt x="-2000" y="-600" on="1"/>
        <pt x="-2000" y="-497" on="0"/>
        <pt x="-1933" y="-477" on="1"/>
        <pt x="-1867" y="-456" on="0"/>
        <pt x="-1818" y="-419" on="1"/>
        <pt x="-1768" y="-381" on="0"/>
        <pt x="-1730" y="-311" on="1"/>
        <pt x="-1693" y="-242" on="0"/>
      </contour>
      <contour>
        <pt x="-1262" y="-390" on="1"/>
        <pt x="-1256" y="-377" on="0"/>
        <pt x="-1256" y="-367" on="1"/>
        <pt x="-1256" y="-343" on="0"/>
        <pt x="-1296" y="-343" on="1"/>
        <pt x="-1352" y="-343" on="0"/>
        <pt x="-1352" y="-390" on="1"/>
        <pt x="-1352" y="-420" on="0"/>
        <pt x="-1290" y="-431" on="1"/>
        <pt x="-1270" y="-407" on="0"/>
      </contour>
    </TTGlyph>
    <TTGlyph name="glyph231" xMin="-2000" yMin="-800" xMax="-867" yMax="-97">
      <contour>
        <pt x="-1130" y="-408" on="1"/>
        <pt x="-1137" y="-375" on="0"/>
        <pt x="-1159" y="-346" on="1"/>
        <pt x="-1204" y="-285" on="0"/>
        <pt x="-1262" y="-285" on="1"/>
        <pt x="-1346" y="-285" on="0"/>
        <pt x="-1360" y="-337" on="1"/>
        <pt x="-1362" y="-350" on="0"/>
        <pt x="-1362" y="-360" on="1"/>
        <pt x="-1362" y="-428" on="0"/>
        <pt x="-1265" y="-428" on="1"/>
        <pt x="-1189" y="-428" on="0"/>
      </contour>
      <contour>
        <pt x="-976" y="-484" on="1"/>
        <pt x="-978" y="-496" on="0"/>
        <pt x="-981" y="-509" on="1"/>
        <pt x="-1018" y="-670" on="0"/>
        <pt x="-1120" y="-735" on="1"/>
        <pt x="-1222" y="-800" on="0"/>
        <pt x="-1418" y="-800" on="1"/>
        <pt x="-1553" y="-800" on="0"/>
        <pt x="-1636" y="-725" on="1"/>
        <pt x="-1720" y="-650" on="0"/>
        <pt x="-1768" y="-650" on="1"/>
        <pt x="-1832" y="-650" on="0"/>
        <pt x="-1843" y="-702" on="1"/>
        <pt x="-1865" y="-800" on="0"/>
        <pt x="-1918" y="-800" on="1"/>
        <pt x="-2000" y="-800" on="0"/>
        <pt x="-2000" y="-732" on="1"/>
        <pt x="-2000" y="-718" on="0"/>
        <pt x="-1997" y="-701" on="1"/>
        <pt x="-1937" y="-416" on="1"/>
        <pt x="-1928" y="-374" on="0"/>
        <pt x="-1928" y="-344" on="1"/>
        <pt x="-1928" y="-293" on="0"/>
        <pt x="-1952" y="-273" on="1"/>
        <pt x="-1990" y="-242" on="0"/>
        <pt x="-1990" y="-180" on="1"/>
        <pt x="-1990" y="-118" on="0"/>
        <pt x="-1901" y="-101" on="1"/>
        <pt x="-1878" y="-97" on="0"/>
        <pt x="-1859" y="-97" on="1"/>
        <pt x="-1802" y="-97" on="0"/>
        <pt x="-1773" y="-133" on="1"/>
        <pt x="-1748" y="-165" on="0"/>
        <pt x="-1748" y="-218" on="1"/>
        <pt x="-1748" y="-247" on="0"/>
        <pt x="-1755" y="-282" on="1"/>
        <pt x="-1801" y="-502" on="1"/>
        <pt x="-1785" y="-500" on="0"/>
        <pt x="-1768" y="-500" on="1"/>
        <pt x="-1685" y="-500" on="0"/>
        <pt x="-1597" y="-575" on="1"/>
        <pt x="-1510" y="-650" on="0"/>
        <pt x="-1418" y="-650" on="1"/>
        <pt x="-1267" y="-650" on="0"/>
        <pt x="-1209" y="-613" on="1"/>
        <pt x="-1183" y="-596" on="0"/>
        <pt x="-1164" y="-569" on="1"/>
        <pt x="-1211" y="-578" on="0"/>
        <pt x="-1265" y="-578" on="1"/>
        <pt x="-1407" y="-578" on="0"/>
        <pt x="-1472" y="-496" on="1"/>
        <pt x="-1523" y="-433" on="0"/>
        <pt x="-1523" y="-365" on="1"/>
        <pt x="-1523" y="-347" on="0"/>
        <pt x="-1519" y="-328" on="1"/>
        <pt x="-1501" y="-241" on="0"/>
        <pt x="-1436" y="-188" on="1"/>
        <pt x="-1372" y="-135" on="0"/>
        <pt x="-1262" y="-135" on="1"/>
        <pt x="-1113" y="-135" on="0"/>
        <pt x="-1030" y="-239" on="1"/>
        <pt x="-1002" y="-274" on="0"/>
        <pt x="-987" y="-315" on="1"/>
        <pt x="-942" y="-279" on="0"/>
        <pt x="-912" y="-279" on="1"/>
        <pt x="-898" y="-279" on="0"/>
        <pt x="-888" y="-286" on="1"/>
        <pt x="-867" y="-300" on="0"/>
        <pt x="-867" y="-324" on="1"/>
        <pt x="-867" y="-347" on="0"/>
        <pt x="-887" y="-380" on="1"/>
        <pt x="-925" y="-441" on="0"/>
      </contour>
    </TTGlyph>
    <TTGlyph name="glyph232" xMin="-2000" yMin="-800" xMax="-891" yMax="-100">
      <contour>
        <pt x="-1171" y="-432" on="1"/>
        <pt x="-1200" y="-428" on="0"/>
        <pt x="-1233" y="-427" on="1"/>
        <pt x="-1308" y="-423" on="0"/>
        <pt x="-1347" y="-386" on="1"/>
        <pt x="-1387" y="-346" on="0"/>
        <pt x="-1387" y="-268" on="1"/>
        <pt x="-1387" y="-260" on="1"/>
        <pt x="-1384" y="-180" on="0"/>
        <pt x="-1342" y="-140" on="1"/>
        <pt x="-1299" y="-100" on="0"/>
        <pt x="-1216" y="-100" on="1"/>
        <pt x="-1110" y="-100" on="0"/>
        <pt x="-1049" y="-193" on="1"/>
        <pt x="-1006" y="-257" on="0"/>
        <pt x="-1006" y="-345" on="1"/>
        <pt x="-976" y="-363" on="0"/>
        <pt x="-947" y="-390" on="1"/>
        <pt x="-891" y="-440" on="0"/>
        <pt x="-891" y="-481" on="1"/>
        <pt x="-891" y="-505" on="0"/>
        <pt x="-910" y="-526" on="1"/>
        <pt x="-932" y="-551" on="0"/>
        <pt x="-956" y="-551" on="1"/>
        <pt x="-986" y="-551" on="0"/>
        <pt x="-1018" y="-509" on="1"/>
        <pt x="-1025" y="-499" on="0"/>
        <pt x="-1033" y="-491" on="1"/>
        <pt x="-1052" y="-543" on="0"/>
        <pt x="-1084" y="-592" on="1"/>
        <pt x="-1139" y="-677" on="0"/>
        <pt x="-1233" y="-753" on="1"/>
        <pt x="-1292" y="-800" on="0"/>
        <pt x="-1356" y="-800" on="1"/>
        <pt x="-1419" y="-800" on="0"/>
        <pt x="-1518" y="-593" on="1"/>
        <pt x="-1695" y="-800" on="0"/>
        <pt x="-1768" y="-800" on="1"/>
        <pt x="-1840" y="-800" on="0"/>
        <pt x="-1887" y="-723" on="1"/>
        <pt x="-1928" y="-654" on="0"/>
        <pt x="-1955" y="-590" on="1"/>
        <pt x="-1978" y="-534" on="0"/>
        <pt x="-1990" y="-481" on="1"/>
        <pt x="-2000" y="-432" on="0"/>
        <pt x="-2000" y="-386" on="1"/>
        <pt x="-2000" y="-348" on="0"/>
        <pt x="-1993" y="-312" on="1"/>
        <pt x="-1972" y="-217" on="0"/>
        <pt x="-1920" y="-158" on="1"/>
        <pt x="-1868" y="-100" on="0"/>
        <pt x="-1811" y="-100" on="1"/>
        <pt x="-1711" y="-100" on="0"/>
        <pt x="-1711" y="-200" on="1"/>
        <pt x="-1711" y="-300" on="0"/>
        <pt x="-1811" y="-300" on="1"/>
        <pt x="-1823" y="-300" on="0"/>
        <pt x="-1833" y="-298" on="1"/>
        <pt x="-1842" y="-319" on="0"/>
        <pt x="-1847" y="-341" on="1"/>
        <pt x="-1851" y="-363" on="0"/>
        <pt x="-1851" y="-387" on="1"/>
        <pt x="-1851" y="-418" on="0"/>
        <pt x="-1844" y="-452" on="1"/>
        <pt x="-1835" y="-491" on="0"/>
        <pt x="-1817" y="-536" on="1"/>
        <pt x="-1794" y="-591" on="0"/>
        <pt x="-1757" y="-655" on="1"/>
        <pt x="-1525" y="-415" on="0"/>
        <pt x="-1490" y="-415" on="1"/>
        <pt x="-1455" y="-415" on="0"/>
        <pt x="-1330" y="-650" on="1"/>
        <pt x="-1254" y="-583" on="0"/>
        <pt x="-1210" y="-514" on="1"/>
        <pt x="-1185" y="-473" on="0"/>
      </contour>
      <contour>
        <pt x="-1226" y="-294" on="1"/>
        <pt x="-1207" y="-303" on="0"/>
        <pt x="-1164" y="-306" on="1"/>
        <pt x="-1167" y="-297" on="0"/>
        <pt x="-1171" y="-290" on="1"/>
        <pt x="-1191" y="-250" on="0"/>
        <pt x="-1216" y="-250" on="1"/>
        <pt x="-1240" y="-250" on="0"/>
        <pt x="-1240" y="-276" on="1"/>
        <pt x="-1240" y="-278" on="1"/>
        <pt x="-1239" y="-288" on="0"/>
      </contour>
    </TTGlyph>
    <TTGlyph name="glyph233" xMin="-2363" yMin="-700" xMax="-1040" yMax="-100">
      <contour>
        <pt x="-2363" y="-300" on="0"/>
        <pt x="-2363" y="-265" on="1"/>
        <pt x="-2363" y="-230" on="0"/>
        <pt x="-2343" y="-209" on="1"/>
        <pt x="-2327" y="-192" on="0"/>
        <pt x="-2299" y="-192" on="1"/>
        <pt x="-2294" y="-192" on="0"/>
        <pt x="-2288" y="-193" on="1"/>
        <pt x="-2252" y="-197" on="0"/>
        <pt x="-2202" y="-241" on="1"/>
        <pt x="-1849" y="-550" on="0"/>
        <pt x="-1523" y="-550" on="1"/>
        <pt x="-1376" y="-550" on="0"/>
        <pt x="-1292" y="-468" on="1"/>
        <pt x="-1208" y="-387" on="0"/>
        <pt x="-1196" y="-330" on="1"/>
        <pt x="-1189" y="-295" on="0"/>
        <pt x="-1189" y="-277" on="1"/>
        <pt x="-1189" y="-266" on="0"/>
        <pt x="-1192" y="-261" on="1"/>
        <pt x="-1199" y="-250" on="0"/>
        <pt x="-1223" y="-250" on="1"/>
        <pt x="-1223" y="-300" on="0"/>
        <pt x="-1298" y="-300" on="1"/>
        <pt x="-1373" y="-300" on="0"/>
        <pt x="-1373" y="-230" on="1"/>
        <pt x="-1373" y="-100" on="0"/>
        <pt x="-1223" y="-100" on="1"/>
        <pt x="-1118" y="-100" on="0"/>
        <pt x="-1071" y="-171" on="1"/>
        <pt x="-1040" y="-217" on="0"/>
        <pt x="-1040" y="-283" on="1"/>
        <pt x="-1040" y="-320" on="0"/>
        <pt x="-1050" y="-363" on="1"/>
        <pt x="-1076" y="-484" on="0"/>
        <pt x="-1199" y="-592" on="1"/>
        <pt x="-1323" y="-700" on="0"/>
        <pt x="-1523" y="-700" on="1"/>
        <pt x="-1904" y="-700" on="0"/>
        <pt x="-2306" y="-350" on="1"/>
      </contour>
    </TTGlyph>
</ttFont>
